<?xml version="1.0" standalone="no"?>
<!DOCTYPE svg PUBLIC "-//W3C//DTD SVG 1.1//EN" "http://www.w3.org/Graphics/SVG/1.1/DTD/svg11.dtd" >
<svg xmlns="http://www.w3.org/2000/svg" xmlns:xlink="http://www.w3.org/1999/xlink" version="1.1">
<metadata></metadata>
<defs>
<font id="avenir_next_condensedbold" horiz-adv-x="978" >
<font-face units-per-em="2048" ascent="1638" descent="-410" />
<missing-glyph horiz-adv-x="409" />
<glyph unicode="IJ" horiz-adv-x="1501" d="M129 0v1450h330v-1450h-330zM561 281l266 118q12 -49 40 -86t75 -37q68 0 89.5 55.5t21.5 153.5v965h325v-993q0 -227 -101 -358.5t-319 -131.5q-152 0 -258 86t-139 228z" />
<glyph unicode="ij" horiz-adv-x="1112" d="M106 1362q0 39 13.5 72.5t36 59.5t55.5 41t72 15t71.5 -15t55 -41t36 -59.5t13.5 -72.5q0 -78 -49.5 -132t-126.5 -54q-78 0 -127.5 54t-49.5 132zM121 0v1071h323v-1071h-323zM489 -479l17 280q27 -10 57 -10q66 0 84.5 45t18.5 121v1114h325v-1143q0 -86 -16.5 -162.5 t-57 -133t-110.5 -90.5t-174 -34q-37 0 -75 3.5t-69 9.5zM653 1362q0 39 13.5 72.5t36 59.5t55.5 41t71 15q39 0 72 -15t55.5 -41t36 -59.5t13.5 -72.5q0 -78 -49.5 -132t-127.5 -54t-127 54t-49 132z" />
<glyph unicode="&#x22;n" horiz-adv-x="1257" d="M-29 1067l103 383h239l-127 -383h-215zM279 0v1071h313v-151h4q27 78 94.5 134t167.5 56q92 0 147.5 -38t86 -101.5t41 -145.5t10.5 -170v-655h-322v657q0 68 -19.5 119t-76.5 51q-59 0 -92 -54t-33 -142v-631h-321z" />
<glyph unicode="&#xfb01;" horiz-adv-x="1177" d="M12 821v250h127v90q0 88 18.5 167t61.5 139.5t115 96t178 35.5q29 0 67.5 -4t67.5 -12l-16 -260q-31 10 -66 10q-68 0 -91 -52t-23 -122v-88h163v-250h-161v-821h-314v821h-127zM719 1362q0 39 13 72.5t36 59.5t55.5 41t71.5 15t71.5 -15t55 -41t36 -59.5t13.5 -72.5 q0 -78 -49 -132t-127 -54t-127 54t-49 132zM733 0v1071h324v-1071h-324z" />
<glyph unicode="&#xfb02;" horiz-adv-x="1193" d="M12 821v250h127v90q0 88 18.5 167t61.5 139.5t115 96t178 35.5q29 0 67.5 -4t67.5 -12l-16 -260q-31 10 -66 10q-68 0 -91 -52t-23 -122v-88h163v-250h-161v-821h-314v821h-127zM739 0v1548h328v-1548h-328z" />
<glyph horiz-adv-x="409" />
<glyph horiz-adv-x="409" />
<glyph unicode="&#xd;" horiz-adv-x="0" />
<glyph unicode=" "  horiz-adv-x="409" />
<glyph unicode="&#x09;" horiz-adv-x="409" />
<glyph unicode="&#xa0;" horiz-adv-x="409" />
<glyph unicode="!" horiz-adv-x="671" d="M164 166q0 76 48 131t124 55q78 0 126 -55t48 -131q0 -78 -48 -131t-126 -53q-76 0 -124 53t-48 131zM178 494v956h318v-956h-318z" />
<glyph unicode="&#x22;" horiz-adv-x="804" d="M141 901v549h211v-549h-211zM453 901v549h209v-549h-209z" />
<glyph unicode="#" horiz-adv-x="878" d="M61 416v202h146l22 216h-127v202h146l39 414h172l-39 -414h102l41 414h170l-41 -414h123v-202h-145l-19 -216h105v-202h-125l-41 -416h-170l41 416h-103l-41 -416h-172l41 416h-125zM379 618h102l21 216h-105z" />
<glyph unicode="$" horiz-adv-x="1075" d="M90 154l160 235q45 -47 104.5 -75.5t118.5 -28.5q57 0 96 37.5t39 103.5q0 68 -47 108.5t-137 83.5q-55 29 -105.5 63t-88 80t-59 108.5t-21.5 148.5q0 94 26.5 168t70.5 126t102.5 85t121.5 47v166h127v-154q104 -4 188 -41t142 -98l-162 -230q-35 41 -82 64t-98 23 q-53 0 -94 -33t-41 -111q0 -33 10 -56.5t31.5 -44t53.5 -40t75 -39.5q47 -23 99 -54.5t95 -79.5t70.5 -113.5t27.5 -156.5q0 -94 -25.5 -168.5t-69.5 -130t-104.5 -90t-127.5 -49.5v-176h-127v166q-117 4 -213 50t-156 106z" />
<glyph unicode="%" horiz-adv-x="1421" d="M47 1087q0 84 20.5 155t58.5 123t92 81t122 29q70 0 124 -29t92 -81t58.5 -123t20.5 -155t-20.5 -153.5t-58.5 -120.5t-92 -79.5t-124 -28.5q-68 0 -122 28.5t-92 79.5t-58.5 121t-20.5 153zM246 1090q0 -82 23.5 -140.5t70.5 -58.5q51 0 74.5 58.5t23.5 140.5 q0 86 -23.5 142t-74.5 56q-47 0 -70.5 -56t-23.5 -142zM330 12l620 1499l152 -59l-619 -1495zM791 352q0 84 20 155t58 122t92.5 79.5t121.5 28.5q70 0 124.5 -28.5t92 -79.5t58 -122t20.5 -155t-20.5 -153.5t-58 -120.5t-92 -80t-124.5 -29q-68 0 -122 29t-92 80t-58 120.5 t-20 153.5zM989 354q0 -84 23.5 -141t70.5 -57q51 0 74 57t23 141t-22.5 141.5t-74.5 57.5q-47 0 -70.5 -57.5t-23.5 -141.5z" />
<glyph unicode="&#x26;" horiz-adv-x="1243" d="M61 406q0 147 68 246.5t172 154.5q-49 66 -76.5 140.5t-27.5 162.5t29.5 158.5t81.5 120t123 76t153 26.5q78 0 143.5 -23.5t113.5 -69.5t74.5 -112.5t26.5 -152.5q0 -70 -21.5 -126.5t-58.5 -103.5t-85 -85t-99 -70l121 -168l100 215h309l-233 -437l258 -358h-365 l-84 121q-41 -63 -119.5 -107.5t-191.5 -44.5q-190 0 -301 113t-111 324zM356 426q0 -86 39 -136t105 -50q53 0 83.5 31.5t45.5 64.5l-187 268q-29 -16 -57.5 -62t-28.5 -116zM485 1110q0 -102 70 -188q47 31 84 78.5t37 113.5q0 59 -22.5 99t-67.5 40q-47 0 -74 -43 t-27 -100z" />
<glyph unicode="'" horiz-adv-x="491" d="M141 901v549h209v-549h-209z" />
<glyph unicode="(" horiz-adv-x="577" d="M49 590q0 123 16.5 250t47 248.5t77 235.5t105.5 214l199 -90q-104 -184 -161 -406.5t-57 -451.5t56.5 -451.5t161.5 -406.5l-199 -90q-59 100 -105.5 213.5t-77 235.5t-47 249t-16.5 250z" />
<glyph unicode=")" horiz-adv-x="577" d="M84 -268q104 184 160.5 406t56.5 452q0 229 -56.5 451.5t-160.5 406.5l199 90q59 -100 105 -214t77 -235.5t47 -248.5t16 -250t-16 -250t-47 -249t-77 -235.5t-105 -213.5z" />
<glyph unicode="*" horiz-adv-x="970" d="M57 1071l74 205l246 -86v260h225v-260l248 80l68 -207l-248 -78l155 -215l-182 -133l-158 221l-153 -213l-182 131l159 211z" />
<glyph unicode="+" horiz-adv-x="1363" d="M115 492v258h434v428h266v-428h436v-258h-434v-429h-266v429h-436z" />
<glyph unicode="," horiz-adv-x="552" d="M55 -242l123 584h281l-166 -584h-238z" />
<glyph unicode="-" horiz-adv-x="507" d="M57 444v244h394v-244h-394z" />
<glyph unicode="." horiz-adv-x="552" d="M102 166q0 76 48.5 131t125.5 55q76 0 125.5 -55t49.5 -131q0 -78 -49.5 -131t-125.5 -53q-78 0 -126 53t-48 131z" />
<glyph unicode="/" horiz-adv-x="598" d="M10 -41l400 1593l170 -39l-398 -1591z" />
<glyph unicode="0" horiz-adv-x="1075" d="M61 725q0 123 18.5 256t71 244.5t145.5 183.5t241 72q147 0 240 -72t145.5 -183.5t72 -244.5t19.5 -256t-19.5 -256t-72 -244.5t-145.5 -183.5t-240 -72t-240.5 72t-146 183.5t-71 244.5t-18.5 256zM387 725q0 -74 5 -156t21.5 -150.5t45 -114.5t78.5 -46q49 0 77.5 46 t45 114.5t21.5 150.5t5 156q0 72 -5 154t-21.5 151.5t-45 115.5t-77.5 46t-78 -46t-45.5 -115.5t-21.5 -151.5t-5 -154z" />
<glyph unicode="1" horiz-adv-x="1075" d="M94 1159l398 291h286v-1450h-321v1069l-217 -164z" />
<glyph unicode="2" horiz-adv-x="1075" d="M76 1040q25 221 150.5 331t312.5 110q100 0 180 -31t136 -86t87 -135t31 -178q0 -72 -18.5 -133.5t-49.5 -117t-69.5 -106.5t-79.5 -98l-271 -313h469v-283h-858v291l441 506q53 61 83.5 125.5t30.5 124.5q0 63 -29.5 108t-93.5 45q-59 0 -98 -48t-47 -140z" />
<glyph unicode="3" horiz-adv-x="1075" d="M53 338l289 74q16 -72 57 -117t113 -45q39 0 67.5 16.5t48 43t29 60t9.5 68.5q0 94 -54.5 139.5t-144.5 45.5h-74v241h82q82 0 126 48.5t44 134.5q0 55 -31.5 104t-101.5 49q-59 0 -92 -39t-49 -98l-281 70q25 94 71 159.5t104.5 107.5t128 61.5t141.5 19.5 q80 0 154.5 -24.5t134 -74t95 -123t35.5 -172.5q0 -127 -54 -214t-144 -115v-6q104 -29 165.5 -119t61.5 -209q0 -111 -36 -195t-97.5 -142t-144 -88t-179.5 -30q-178 0 -305 91.5t-168 277.5z" />
<glyph unicode="4" horiz-adv-x="1075" d="M47 291v278l424 881h397v-889h148v-270h-148v-291h-290v291h-531zM332 561h252v569h-4z" />
<glyph unicode="5" horiz-adv-x="1075" d="M66 340l280 88q16 -72 56 -123t106 -51q76 0 113.5 62.5t37.5 154.5q0 113 -62 166t-151 53q-63 0 -146 -19.5t-142 -43.5l30 823h736v-285h-461l-10 -250q25 10 56.5 16.5t53.5 6.5q98 0 175 -33t129.5 -92t80 -143.5t27.5 -188.5q0 -129 -36 -224t-98.5 -159.5 t-146.5 -96.5t-178 -32q-166 0 -289 92.5t-161 278.5z" />
<glyph unicode="6" horiz-adv-x="1075" d="M63 485q0 133 35 239.5t88 205.5l277 520h375l-281 -496l2 -2q10 6 34 10.5t42 4.5q96 0 166.5 -37t118 -100.5t71 -150.5t23.5 -187q0 -125 -35 -222.5t-98.5 -164t-149.5 -101.5t-188 -35q-104 0 -192.5 34t-152 100.5t-99.5 162.5t-36 219zM379 496q0 -104 45 -172 t115 -68q72 0 115.5 68t43.5 172q0 106 -42 172.5t-115 66.5q-70 0 -116 -67.5t-46 -171.5z" />
<glyph unicode="7" horiz-adv-x="1075" d="M96 1161v289h854v-246l-428 -1204h-356l428 1161h-498z" />
<glyph unicode="8" horiz-adv-x="1075" d="M70 408q0 74 19.5 132t51 103t72.5 73.5t84 45.5v4q-96 39 -147.5 120t-51.5 197q0 76 28 148t82 127t137 89t194 34t194.5 -34t140 -89t85 -127t28.5 -148q0 -117 -51 -197.5t-145 -119.5v-4q43 -16 83.5 -46t72.5 -74t50.5 -102t18.5 -132q0 -94 -34 -174t-95.5 -138.5 t-149.5 -92.5t-198 -34q-109 0 -196 34t-147.5 92.5t-93 138t-32.5 174.5zM391 426q0 -90 39 -148.5t109 -58.5q72 0 109.5 58.5t37.5 148.5q0 92 -41 150.5t-106 58.5q-66 0 -107 -58.5t-41 -150.5zM406 1061q0 -74 35.5 -131.5t97.5 -57.5q63 0 99 57.5t36 131.5 q0 80 -35 132t-100 52q-66 0 -99.5 -52t-33.5 -132z" />
<glyph unicode="9" horiz-adv-x="1075" d="M61 971q0 125 37 220t101.5 159.5t151.5 97.5t188 33q100 0 187 -34t150.5 -98.5t99.5 -159.5t36 -218q0 -133 -35 -239.5t-88 -205.5l-277 -526h-374l284 514l-2 2q-10 -6 -34 -10t-42 -4q-96 0 -167.5 36.5t-119.5 99t-72 148.5t-24 185zM377 967q0 -106 42 -171 t116 -65q70 0 115.5 65.5t45.5 170.5q0 104 -45 168.5t-114 64.5q-72 0 -116 -64.5t-44 -168.5z" />
<glyph unicode=":" horiz-adv-x="614" d="M139 174q0 37 12.5 69.5t35 57.5t53 39t67.5 14t68 -14t54.5 -39t35.5 -57.5t12 -69.5q0 -78 -48 -129t-122 -51t-121 51t-47 129zM139 893q0 72 47 125t121 53t122 -53t48 -125q0 -78 -48 -129t-122 -51t-121 51t-47 129z" />
<glyph unicode=";" horiz-adv-x="614" d="M72 -242l121 584h278l-166 -584h-233zM139 893q0 72 47 125t121 53t122 -53t48 -125q0 -78 -48 -129t-122 -51t-121 51t-47 129z" />
<glyph unicode="&#x3c;" horiz-adv-x="1363" d="M162 514v211l1040 438v-278l-627 -269l627 -260v-280z" />
<glyph unicode="=" horiz-adv-x="1363" d="M139 307v252h1086v-252h-1086zM139 686v252h1086v-252h-1086z" />
<glyph unicode="&#x3e;" horiz-adv-x="1363" d="M162 76v280l626 260l-626 269v278l1040 -438v-211z" />
<glyph unicode="?" horiz-adv-x="876" d="M35 1090q10 80 39.5 151.5t82 126.5t126 88t174.5 33q180 0 287.5 -104.5t107.5 -297.5q0 -66 -14.5 -116.5t-39 -93.5t-59 -81t-77.5 -75q-53 -47 -71 -87t-18 -89v-58h-270v86q0 109 37 179.5t104 134.5l35 37q29 31 50.5 64.5t21.5 76.5q0 66 -26.5 103.5t-86.5 37.5 q-35 0 -59.5 -16t-39.5 -41t-24.5 -53.5t-11.5 -53.5zM279 166q0 76 48 131t126 55t126 -55t48 -131q0 -78 -48.5 -131t-125.5 -53q-78 0 -126 53t-48 131z" />
<glyph unicode="@" horiz-adv-x="1310" d="M68 723q0 162 43 302t121.5 242.5t190.5 161t251 58.5q131 0 236.5 -43t179 -127t112.5 -208t39 -284q0 -106 -22.5 -197t-63.5 -158t-100.5 -104.5t-132.5 -37.5q-66 0 -107 34.5t-45 112.5h-4q-23 -59 -69 -103t-117 -44q-53 0 -95.5 26.5t-71 73.5t-44 110.5 t-15.5 135.5q0 88 19.5 173t56.5 151.5t91 107.5t124 41q66 0 101.5 -38t46.5 -85h4l14 70h168l-47 -275q-10 -72 -18.5 -130t-8.5 -87q0 -31 9.5 -55.5t41.5 -24.5q49 0 89 76t40 223q0 240 -109.5 374t-301.5 134q-98 0 -178 -48t-136.5 -130t-87 -191.5t-30.5 -234.5 q0 -131 30.5 -240.5t89 -189.5t142.5 -124t190 -44q102 0 195.5 41t163.5 113l90 -138q-94 -92 -210 -136t-255 -44q-145 0 -259 56.5t-191.5 158t-118.5 240.5t-41 305zM547 674q0 -66 19.5 -109t66.5 -43q31 0 53.5 29t37.5 72t22.5 91t7.5 89q0 66 -17.5 110.5 t-64.5 44.5q-29 0 -52.5 -25.5t-40 -65.5t-24.5 -91t-8 -102z" />
<glyph unicode="A" horiz-adv-x="1112" d="M0 0l352 1450h412l350 -1450h-342l-59 264h-326l-59 -264h-328zM424 518h248l-117 617h-8z" />
<glyph unicode="B" horiz-adv-x="1114" d="M129 0v1450h434q68 0 143.5 -14.5t138 -54.5t104.5 -113.5t42 -190.5q0 -129 -52 -205.5t-128 -111.5v-4q41 -10 82 -37t73.5 -69t53 -101t20.5 -135q0 -117 -37.5 -196t-99 -127t-138.5 -69.5t-155 -21.5h-481zM434 272h123q72 0 122 43t50 129q0 49 -15.5 83t-41 55.5 t-57 32t-62.5 10.5h-119v-353zM434 864h113q59 0 107 37t48 123q0 84 -47 119t-110 35h-111v-314z" />
<glyph unicode="C" horiz-adv-x="1048" d="M70 725q0 170 41 311.5t114.5 241.5t177 155.5t230.5 55.5q145 0 242.5 -52.5t156.5 -129.5l-176 -238q-37 49 -83 78t-116 29q-66 0 -113.5 -35t-81.5 -95.5t-50.5 -143.5t-16.5 -177t16.5 -176t50.5 -143.5t83 -96.5t114 -35q66 0 115 33t78 78l182 -227 q-59 -84 -155.5 -140.5t-245.5 -56.5q-127 0 -230.5 56.5t-177 157.5t-114.5 241.5t-41 308.5z" />
<glyph unicode="D" horiz-adv-x="1208" d="M129 0v1450h408q156 0 269.5 -51t187 -146.5t109.5 -229.5t36 -302q0 -164 -36 -297t-109.5 -227.5t-187.5 -145.5t-269 -51h-408zM461 287h80q119 0 193.5 111.5t74.5 322.5q0 219 -75 330.5t-193 111.5h-80v-876z" />
<glyph unicode="E" horiz-adv-x="917" d="M129 0v1450h700v-289h-387v-284h357v-271h-357v-313h412v-293h-725z" />
<glyph unicode="F" horiz-adv-x="884" d="M129 0v1450h707v-297h-377v-295h346v-280h-344v-578h-332z" />
<glyph unicode="G" horiz-adv-x="1146" d="M70 725q0 170 40 310.5t113.5 241.5t177 156.5t230.5 55.5q147 0 246.5 -50t156.5 -126l-178 -240q-74 102 -201 103q-68 0 -117 -36t-81.5 -97.5t-48 -143.5t-15.5 -174t14.5 -174t46 -143.5t80 -98.5t115.5 -37q74 0 115 31v270h-156v285h443v-772q-70 -53 -168.5 -86 t-231.5 -33q-137 0 -244.5 55.5t-182 154.5t-114.5 238.5t-40 309.5z" />
<glyph unicode="H" horiz-adv-x="1247" d="M129 0v1450h326v-551h338v551h325v-1450h-325v606h-338v-606h-326z" />
<glyph unicode="I" horiz-adv-x="587" d="M129 0v1450h330v-1450h-330z" />
<glyph unicode="J" horiz-adv-x="911" d="M-29 281l267 118q12 -49 39.5 -86t74.5 -37q68 0 89.5 55.5t21.5 153.5v965h325v-993q0 -227 -101 -358.5t-318 -131.5q-152 0 -258.5 86t-139.5 228z" />
<glyph unicode="K" horiz-adv-x="1163" d="M129 0v1450h330v-604h6l299 604h366l-372 -664l395 -786h-379l-309 674h-6v-674h-330z" />
<glyph unicode="L" horiz-adv-x="866" d="M129 0v1450h332v-1147h387v-303h-719z" />
<glyph unicode="M" horiz-adv-x="1579" d="M129 0v1450h414l233 -934h8l228 934h438v-1450h-322l13 995h-8l-244 -995h-232l-235 995h-6l10 -995h-297z" />
<glyph unicode="N" horiz-adv-x="1234" d="M129 0v1450h360l334 -895h6l-6 895h283v-1450h-350l-336 883h-6l8 -883h-293z" />
<glyph unicode="O" horiz-adv-x="1253" d="M70 729q0 172 37.5 312.5t109.5 239.5t175.5 153.5t234.5 54.5q129 0 232.5 -54.5t175 -153.5t110.5 -239.5t39 -312.5t-39 -314.5t-110.5 -242.5t-175 -155.5t-232.5 -55.5t-232.5 55.5t-175.5 155.5t-110.5 242.5t-38.5 314.5zM406 729q0 -94 13 -176t40.5 -141.5 t69.5 -94t98 -34.5q55 0 96 34.5t68.5 94t42 141.5t14.5 176t-14.5 175t-42 140.5t-68.5 93t-96 33.5t-97.5 -33.5t-70 -93t-40.5 -140.5t-13 -175z" />
<glyph unicode="P" horiz-adv-x="1069" d="M129 0v1450h451q78 0 156.5 -22.5t143 -75t104.5 -140.5t40 -217q0 -121 -37 -209t-98.5 -145t-139 -85t-157.5 -28h-141v-528h-322zM451 795h104q68 0 115 50t47 144q0 98 -47 141.5t-115 43.5h-104v-379z" />
<glyph unicode="Q" horiz-adv-x="1269" d="M70 733q0 172 38.5 311.5t111.5 237.5t176.5 152.5t230.5 54.5q129 0 231.5 -54.5t174 -151.5t109.5 -233.5t38 -301.5q0 -74 -13.5 -147t-35 -136.5t-50 -110.5t-59.5 -71v-9l231 9v-283h-637q-129 0 -230 50t-172 144.5t-107.5 230.5t-36.5 308zM406 733q0 -92 14 -172 t41.5 -138t69.5 -92t98 -34q55 0 97 35t69.5 94t41 138t13.5 169q0 92 -14.5 172t-42 138.5t-69.5 91t-95 32.5q-55 0 -97.5 -32.5t-70 -91t-41.5 -137.5t-14 -173z" />
<glyph unicode="R" horiz-adv-x="1107" d="M129 0v1450h465q211 0 327.5 -109.5t116.5 -326.5q0 -80 -18.5 -143.5t-48 -108.5t-66.5 -74t-71 -41l247 -647h-346l-194 578h-97v-578h-315zM444 809h97q70 0 122 44t52 142q0 55 -15.5 90t-40 55.5t-54.5 28t-58 7.5h-103v-367z" />
<glyph unicode="S" horiz-adv-x="944" d="M20 125l168 246q47 -49 108.5 -79t125.5 -30q59 0 100 39t41 109q0 72 -49 113.5t-143 88.5q-59 29 -111.5 64t-92.5 84t-62.5 114.5t-22.5 155.5q0 121 40 208t104.5 142.5t143.5 82t158 26.5q119 0 213.5 -39t157.5 -107l-170 -241q-37 43 -86 66.5t-102 23.5 q-55 0 -99.5 -35t-44.5 -115q0 -68 45 -105.5t133 -82.5q49 -25 103.5 -58.5t99.5 -82.5t75 -118t30 -163q0 -117 -37 -206t-99.5 -147.5t-144.5 -88t-170 -29.5q-131 0 -238.5 49t-173.5 115z" />
<glyph unicode="T" horiz-adv-x="849" d="M-2 1171v279h854v-279h-266v-1171h-322v1171h-266z" />
<glyph unicode="U" horiz-adv-x="1189" d="M104 537v913h330v-885q0 -61 7.5 -114.5t25.5 -91t49 -60.5t80 -23t80 23t49 60.5t25.5 91t7.5 114.5v885h327v-913q0 -121 -27.5 -225.5t-87 -182.5t-153.5 -123t-227 -45t-225.5 45t-150.5 123t-84 182.5t-26 225.5z" />
<glyph unicode="V" horiz-adv-x="1118" d="M-2 1450h371l196 -1061h4l195 1061h356l-356 -1450h-416z" />
<glyph unicode="W" horiz-adv-x="1636" d="M18 1450h334l150 -1010h8l158 1010h317l164 -1010h6l148 1010h317l-274 -1450h-349l-178 973h-4l-176 -973h-348z" />
<glyph unicode="X" horiz-adv-x="1105" d="M6 0l356 760l-327 690h342l178 -440l180 440h336l-330 -688l361 -762h-354l-201 479l-199 -479h-342z" />
<glyph unicode="Y" horiz-adv-x="1007" d="M-25 1450h355l174 -600h4l176 600h348l-368 -928v-522h-322v522z" />
<glyph unicode="Z" horiz-adv-x="937" d="M49 0v266l445 895h-408v289h782v-260l-442 -893h442v-297h-819z" />
<glyph unicode="[" horiz-adv-x="577" d="M74 -319v1818h401v-203h-160v-1413h160v-202h-401z" />
<glyph unicode="\" horiz-adv-x="598" d="M10 1513l170 39l400 -1593l-172 -37z" />
<glyph unicode="]" horiz-adv-x="577" d="M102 -117h160v1413h-160v203h400v-1818h-400v202z" />
<glyph unicode="^" horiz-adv-x="1413" d="M150 702l436 748h241l435 -748h-304l-253 437l-252 -437h-303z" />
<glyph unicode="_" horiz-adv-x="1024" d="M0 -154h1024v-182h-1024v182z" />
<glyph unicode="`" horiz-adv-x="561" d="M0 1481h266l185 -295h-222z" />
<glyph unicode="a" horiz-adv-x="952" d="M53 299q0 111 40 182.5t104.5 114.5t146.5 60.5t166 17.5h41v16q0 78 -36 113t-95 35t-107.5 -27t-83.5 -68l-141 197q66 78 163 121t193 43q109 0 185 -33t123 -96.5t67.5 -154.5t20.5 -210v-610h-265v133h-4q-20 -72 -80.5 -116t-156.5 -44q-47 0 -96.5 16.5 t-90.5 54.5t-67.5 100.5t-26.5 154.5zM326 322q0 -63 27.5 -93t66.5 -30q37 0 64.5 18.5t44 48t24.5 67.5t8 75v59h-57q-35 0 -68 -6t-57.5 -23.5t-38.5 -45t-14 -70.5z" />
<glyph unicode="b" horiz-adv-x="1081" d="M127 0v1548h319v-585h7q18 59 76.5 100t136.5 41q86 0 152.5 -42t111.5 -116t67.5 -175t22.5 -220q0 -121 -23.5 -227.5t-68.5 -185.5t-111.5 -125t-150.5 -46q-98 0 -149.5 48t-76.5 114h-4v-129h-309zM430 537q0 -59 8 -112.5t25.5 -93.5t43 -62.5t60.5 -22.5 q37 0 62.5 22.5t43 62.5t25 93t7.5 113q0 61 -7.5 113t-25 92t-43 62.5t-62.5 22.5q-35 0 -60.5 -22.5t-43 -62.5t-25.5 -92t-8 -113z" />
<glyph unicode="c" horiz-adv-x="739" d="M61 537q0 125 29 228t82 179t132 118t181 42q90 0 156 -33t102 -74l-129 -249q-18 29 -44.5 45t-59.5 16q-59 0 -99 -71.5t-40 -200.5t39 -200t106 -71q35 0 60.5 17.5t41.5 46.5l130 -248q-43 -53 -111 -84t-156 -31q-102 0 -180 42t-131 118t-81 180.5t-28 229.5z" />
<glyph unicode="d" horiz-adv-x="1081" d="M61 551q0 119 22.5 220t68 175t112 116t152.5 42q80 0 138 -41t77 -100h6v585h317v-1548h-309v129h-4q-23 -66 -75 -114t-150 -48q-84 0 -150.5 46t-111.5 125t-69 185.5t-24 227.5zM377 537q0 -59 8 -112.5t24.5 -93.5t42 -62.5t62.5 -22.5q35 0 60.5 22.5t43 62.5 t25.5 93.5t8 112.5q0 61 -8 113t-25.5 92t-43 62.5t-60.5 22.5q-37 0 -62.5 -22.5t-42 -62.5t-24.5 -92t-8 -113z" />
<glyph unicode="e" horiz-adv-x="968" d="M61 532q0 131 32 239t90.5 182.5t138 115.5t176.5 41q111 0 188.5 -43t127.5 -118t72.5 -178t22.5 -226v-90h-536q0 -45 11 -85t29.5 -70t45 -47t59.5 -17q53 0 86 34.5t51 81.5l236 -133q-53 -119 -148.5 -188.5t-236.5 -69.5q-94 0 -175 37t-141.5 109.5t-94.5 179 t-34 245.5zM371 664h243q0 86 -26.5 143t-87.5 57q-33 0 -56.5 -19.5t-40 -49t-24.5 -65.5t-8 -66z" />
<glyph unicode="f" horiz-adv-x="612" d="M12 821v250h127v90q0 88 18.5 167t61.5 139.5t115 96t178 35.5q29 0 67.5 -4t67.5 -12l-16 -260q-31 10 -66 10q-68 0 -91 -52t-23 -122v-88h163v-250h-161v-821h-314v821h-127z" />
<glyph unicode="g" horiz-adv-x="1079" d="M61 539q0 123 24 226t70 178t111.5 118t151.5 43q92 0 144 -45t77 -115h6v127h307v-995q0 -274 -114.5 -421t-364.5 -147q-113 0 -219.5 40t-175.5 100l149 237q47 -41 103.5 -67.5t122.5 -26.5q100 0 144 69.5t44 174.5v88h-4q-23 -53 -82 -95t-137 -42q-88 0 -154.5 42 t-112 116.5t-68 176t-22.5 218.5zM377 537q0 -59 8 -112.5t24.5 -93.5t42 -62.5t62.5 -22.5q35 0 60.5 22.5t43 62.5t25.5 93.5t8 112.5q0 61 -8 113t-25.5 92t-43 62.5t-60.5 22.5q-37 0 -62.5 -22.5t-42 -62.5t-24.5 -92t-8 -113z" />
<glyph unicode="h" horiz-adv-x="1101" d="M123 0v1548h321v-620h7q25 72 89 127t162 55q92 0 148.5 -38t87.5 -101.5t41 -145.5t10 -170v-655h-321v657q0 68 -19.5 119t-79.5 51q-59 0 -92 -54t-33 -142v-631h-321z" />
<glyph unicode="i" horiz-adv-x="565" d="M106 1362q0 39 13.5 72.5t36 59.5t55.5 41t72 15t71.5 -15t55 -41t36 -59.5t13.5 -72.5q0 -78 -49.5 -132t-126.5 -54q-78 0 -127.5 54t-49.5 132zM121 0v1071h323v-1071h-323z" />
<glyph unicode="j" horiz-adv-x="567" d="M-55 -479l16 280q27 -10 57 -10q66 0 84.5 45t18.5 121v1114h325v-1143q0 -86 -16 -162.5t-57 -133t-110.5 -90.5t-174.5 -34q-37 0 -75 3.5t-68 9.5zM109 1362q0 39 13 72.5t35.5 59.5t55.5 41t72 15t71.5 -15t55 -41t36 -59.5t13.5 -72.5q0 -78 -49.5 -132t-126.5 -54 q-78 0 -127 54t-49 132z" />
<glyph unicode="k" horiz-adv-x="1024" d="M127 0v1548h319v-909h5l196 432h377l-270 -491l276 -580h-371l-208 492h-5v-492h-319z" />
<glyph unicode="l" horiz-adv-x="581" d="M127 0v1548h328v-1548h-328z" />
<glyph unicode="m" horiz-adv-x="1630" d="M127 0v1071h313v-151h4q20 78 86 134t168 56q115 0 171.5 -55.5t78.5 -134.5h4q14 37 38 70.5t57.5 60t77.5 43t100 16.5q92 0 149.5 -38t88 -101.5t42 -145.5t11.5 -170v-655h-318v657q0 68 -20.5 119t-77.5 51q-59 0 -91 -54t-32 -142v-631h-315v657q0 68 -19.5 119 t-77.5 51q-59 0 -91 -54t-32 -142v-631h-315z" />
<glyph unicode="n" horiz-adv-x="1105" d="M127 0v1071h313v-151h4q27 78 94.5 134t168.5 56q92 0 147 -38t86 -101.5t41 -145.5t10 -170v-655h-321v657q0 68 -19.5 119t-77.5 51q-59 0 -91.5 -54t-32.5 -142v-631h-322z" />
<glyph unicode="o" horiz-adv-x="1013" d="M61 535q0 125 31 231t88.5 182t140 119t187.5 43q104 0 187 -43t139.5 -119t87 -182t30.5 -231t-30.5 -230.5t-87 -181.5t-139.5 -119t-187 -43t-186 43t-140.5 119t-89.5 181.5t-31 230.5zM373 537q0 -61 8 -113.5t24.5 -92.5t42 -62.5t60.5 -22.5q37 0 62.5 22.5 t42 62.5t24.5 92.5t8 113.5t-8 113t-24.5 92t-42 62.5t-62.5 22.5q-35 0 -60.5 -22.5t-42 -62.5t-24.5 -92t-8 -113z" />
<glyph unicode="p" horiz-adv-x="1081" d="M127 -492v1563h309v-127h6q29 70 81 115t143 45q86 0 152.5 -43t110.5 -118t67.5 -176t23.5 -220q0 -121 -23.5 -227.5t-67.5 -184.5t-110.5 -123t-152.5 -45q-92 0 -145.5 45t-74.5 103h-4v-607h-315zM430 537q0 -59 8 -112.5t25.5 -93.5t43 -62.5t60.5 -22.5 q37 0 62.5 22.5t43 62.5t25 93t7.5 113q0 61 -7.5 113t-25 92t-43 62.5t-62.5 22.5q-35 0 -60.5 -22.5t-43 -62.5t-25.5 -92t-8 -113z" />
<glyph unicode="q" horiz-adv-x="1081" d="M61 547q0 119 24 220t68 176t110.5 118t152.5 43q90 0 142 -45t81 -115h6v127h309v-1563h-315v607h-4q-20 -57 -73.5 -102.5t-145.5 -45.5q-86 0 -151.5 45t-110.5 123t-69 184.5t-24 227.5zM377 537q0 -59 8 -112.5t24.5 -93.5t42 -62.5t62.5 -22.5q35 0 60.5 22.5 t43 62.5t25.5 93.5t8 112.5q0 61 -8 113t-25.5 92t-43 62.5t-60.5 22.5q-37 0 -62.5 -22.5t-42 -62.5t-24.5 -92t-8 -113z" />
<glyph unicode="r" horiz-adv-x="704" d="M127 0v1071h313v-180h2q57 213 215 213q16 0 26.5 -1t25.5 -5l-21 -322q-16 4 -31.5 7t-38.5 3q-41 0 -71.5 -21.5t-52 -56t-32.5 -81.5t-11 -97v-530h-324z" />
<glyph unicode="s" horiz-adv-x="819" d="M16 115l160 204q43 -45 93 -73.5t110 -28.5q45 0 70.5 26.5t25.5 69.5q0 51 -41 75t-123 50q-43 14 -86 36t-76.5 58.5t-55 89t-21.5 128.5q0 90 32.5 156.5t85 110.5t117 65.5t129.5 21.5q98 0 188.5 -35t159.5 -96l-155 -203q-37 37 -80 59.5t-94 22.5q-39 0 -67 -24.5 t-28 -67.5q0 -41 30 -60.5t112 -44.5q47 -14 94 -38.5t84 -63.5t60.5 -93t23.5 -128q0 -98 -35 -168t-88 -113t-119.5 -63.5t-128.5 -20.5q-106 0 -205.5 39t-171.5 109z" />
<glyph unicode="t" horiz-adv-x="645" d="M12 821v250h127v258h312v-258h184v-250h-184v-426q0 -78 24.5 -113.5t77.5 -35.5q43 0 72 14v-252q-27 -14 -76 -24.5t-98 -10.5q-162 0 -236 87t-74 262v499h-129z" />
<glyph unicode="u" horiz-adv-x="1105" d="M115 416v655h321v-655q0 -35 4 -66t14.5 -53.5t30 -36.5t47.5 -14q59 0 92 54t33 142v629h322v-1071h-313v152h-4q-27 -78 -94.5 -134.5t-168.5 -56.5q-92 0 -147 38t-86 101.5t-41 145.5t-10 170z" />
<glyph unicode="v" horiz-adv-x="962" d="M6 1071h338l143 -733h9l135 733h325l-280 -1071h-391z" />
<glyph unicode="w" horiz-adv-x="1417" d="M12 1071h328l104 -670h5l122 670h275l127 -670h4l104 670h324l-242 -1071h-325l-136 614h-4l-133 -614h-315z" />
<glyph unicode="x" horiz-adv-x="958" d="M-4 0l258 561l-238 510h342l121 -330l127 330h340l-246 -512l263 -559h-351l-133 340l-129 -340h-354z" />
<glyph unicode="y" horiz-adv-x="974" d="M6 1071h338l154 -715h4l141 715h326l-303 -1108q-25 -92 -56.5 -174t-81 -144.5t-121 -99.5t-176.5 -37q-47 0 -95 6.5t-85 14.5l43 291q18 -8 43 -12.5t43 -4.5q61 0 89 33t40 78l17 59z" />
<glyph unicode="z" horiz-adv-x="817" d="M55 0v264l359 537h-338v270h684v-254l-361 -547h365v-270h-709z" />
<glyph unicode="{" horiz-adv-x="577" d="M0 477v225q47 0 75.5 33t28.5 135v304q0 70 13.5 129t43 103t76 68.5t113.5 24.5h131v-203h-59q-53 0 -71.5 -44t-18.5 -103v-324q0 -61 -13.5 -104t-32 -70.5t-41 -41t-40.5 -17.5v-4q18 -4 40.5 -17.5t41 -41t32 -70.5t13.5 -105v-323q0 -59 18.5 -103.5t71.5 -44.5h59 v-202h-131q-68 0 -114 24.5t-75.5 68.5t-43 103.5t-13.5 128.5v303q0 102 -28.5 135t-75.5 33z" />
<glyph unicode="|" horiz-adv-x="493" d="M113 1536h268v-2048h-266z" />
<glyph unicode="}" horiz-adv-x="577" d="M94 -117h62q53 0 71.5 44t18.5 104v323q0 61 12 104.5t31.5 71t42 41t41.5 17.5v4q-18 4 -41 17.5t-42.5 41t-31.5 70.5t-12 104v324q0 59 -18.5 103t-71.5 44h-62v203h133q68 0 114 -24.5t75.5 -68.5t43 -103.5t13.5 -128.5v-304q0 -102 28.5 -135t76.5 -33v-225 q-47 0 -76 -32.5t-29 -135.5v-303q0 -70 -13.5 -129t-43 -103t-75.5 -68.5t-114 -24.5h-133v202z" />
<glyph unicode="~" horiz-adv-x="1363" d="M174 604q47 92 115.5 147.5t165.5 55.5q66 0 125 -19.5t120 -56.5q70 -41 119 -61.5t84 -20.5q57 0 99 45t79 101l133 -207v-4q-23 -39 -50 -76t-61 -65.5t-77 -46t-96 -17.5q-66 0 -116 18.5t-114 59.5q-61 39 -111 58.5t-108 19.5q-59 0 -100 -40t-72 -104z" />
<glyph unicode="&#xa1;" horiz-adv-x="671" d="M164 932q0 78 48 131t124 53q78 0 126 -53t48 -131q0 -76 -48 -131.5t-126 -55.5q-76 0 -124 55.5t-48 131.5zM178 -352v956h318v-956h-318z" />
<glyph unicode="&#xa2;" horiz-adv-x="1075" d="M190 537q0 109 23 201.5t68 164.5t109.5 118t148.5 62v111h131v-109q70 -10 121 -37.5t81 -62.5l-129 -246q-18 29 -44.5 45.5t-59.5 16.5q-59 0 -99 -68.5t-40 -195.5q0 -125 39 -194t106 -69q35 0 60.5 17.5t42.5 46.5l129 -244q-35 -41 -88.5 -69.5t-118.5 -38.5v-115 h-131v117q-86 14 -149.5 59t-108.5 117t-68 167t-23 206z" />
<glyph unicode="&#xa3;" horiz-adv-x="1083" d="M106 0v287h156v346h-149v239h149v129q0 82 22.5 169t75 158t135.5 117t203 46q104 0 182 -30.5t121 -69.5l-149 -244q-16 18 -46 30.5t-71 12.5q-45 0 -74.5 -18.5t-47 -49t-24.5 -69.5t-7 -80v-101h231v-239h-231v-346h358v-287h-834z" />
<glyph unicode="&#xa4;" horiz-adv-x="1075" d="M49 154l144 174q-29 55 -44.5 125.5t-15.5 138.5q0 152 53 258l-135 166l135 164l138 -164q47 33 101 53.5t114 20.5q57 0 114.5 -19.5t102.5 -50.5l131 160l139 -164l-135 -164q31 -59 44 -122.5t13 -137.5q0 -68 -15 -142.5t-44 -127.5l135 -166l-135 -170l-139 170 q-86 -66 -211 -66q-51 0 -108.5 19.5t-102.5 50.5l-142 -174zM385 592q0 -104 39 -179t115 -75q78 0 117.5 74.5t39.5 179.5q0 104 -39.5 178t-117.5 74q-76 0 -115 -74t-39 -178z" />
<glyph unicode="&#xa5;" horiz-adv-x="1083" d="M25 1450h333l183 -547l180 547h328l-244 -573h160v-215h-273v-156h273v-215h-273v-291h-321v291h-265v215h265v156h-265v215h166z" />
<glyph unicode="&#xa6;" horiz-adv-x="493" d="M113 -358v741h268v-741h-268zM113 641v741h268v-741h-268z" />
<glyph unicode="&#xa7;" horiz-adv-x="1056" d="M63 -133l173 207q47 -57 111.5 -90t135.5 -33q51 0 92 26.5t41 85.5q0 29 -10 50.5t-31.5 40t-56.5 36t-84 37.5l-78 31q-129 51 -192.5 128t-63.5 216q0 53 14.5 98t38 79t51 58.5t54.5 39.5q-51 39 -76.5 93t-25.5 138q0 78 29.5 146.5t83 120.5t128 83t166.5 31 q145 0 234.5 -47t144.5 -123l-188 -176q-29 43 -77 67.5t-104 24.5q-51 0 -91 -26.5t-40 -92.5q0 -29 11.5 -48t33 -35.5t55 -32t81.5 -35.5l63 -29q129 -59 199.5 -139t70.5 -219q0 -98 -47 -165t-112 -96q51 -35 80.5 -95t29.5 -132q0 -111 -39 -185.5t-99 -120.5 t-135 -66.5t-147 -20.5q-123 0 -236.5 42t-187.5 128zM358 639q0 -61 42 -91t102 -56l106 -50q33 8 58.5 36t25.5 75q0 59 -42 91t-101 61l-109 49q-29 -10 -55.5 -38t-26.5 -77z" />
<glyph unicode="&#xa8;" horiz-adv-x="561" d="M-59 1364q0 70 42 119t109 49q66 0 109 -49t43 -119q0 -72 -43 -120t-109 -48q-68 0 -109.5 48t-41.5 120zM317 1364q0 70 42 119t110 49q66 0 109 -49t43 -119q0 -72 -43 -120t-109 -48q-68 0 -110 48t-42 120z" />
<glyph unicode="&#xa9;" horiz-adv-x="1310" d="M74 727q0 176 42 318.5t118.5 241.5t184 153.5t236.5 54.5t235.5 -54.5t183.5 -153.5t120 -241.5t43 -318.5t-43 -318.5t-120 -242.5t-183.5 -153.5t-235.5 -53.5t-236.5 53.5t-184 153.5t-118.5 242.5t-42 318.5zM180 727q0 -147 33 -271t94.5 -214t149.5 -141.5 t198 -51.5q111 0 199 51.5t149.5 141.5t94 214t32.5 271t-32.5 271t-94 214.5t-149.5 141.5t-199 51t-198.5 -51t-149 -141.5t-94.5 -214.5t-33 -271zM350 731q0 106 23.5 194.5t66.5 151t104.5 96t135.5 33.5q76 0 135 -32.5t94 -88.5l-112 -161q-35 68 -103 67 q-57 0 -91 -73.5t-34 -186.5q0 -111 34 -184.5t91 -73.5q37 0 59.5 20.5t39.5 51.5l118 -158q-37 -57 -92 -93t-133 -36t-139.5 34t-105.5 96.5t-67.5 149.5t-23.5 193z" />
<glyph unicode="&#xaa;" horiz-adv-x="655" d="M72 987q0 66 22.5 110t59 69.5t85 36.5t99.5 11h33v15q0 47 -20.5 61.5t-55.5 14.5q-27 0 -58.5 -14.5t-54.5 -35.5l-86 131q43 43 102.5 67t116.5 24q131 0 184.5 -81t53.5 -222v-363h-158v72h-4q-12 -37 -49 -63.5t-96 -26.5q-31 0 -62.5 11t-56.5 34.5t-40 60.5 t-15 88zM244 997q0 -33 16 -50t39 -17q41 0 57.5 37t16.5 82v34h-31q-41 0 -69.5 -17t-28.5 -69z" />
<glyph unicode="&#xab;" horiz-adv-x="851" d="M74 537l223 473l164 -86l-180 -387l180 -387l-164 -87zM391 537l223 473l164 -86l-180 -387l180 -387l-164 -87z" />
<glyph unicode="&#xac;" horiz-adv-x="1363" d="M104 672v252h1137v-627h-266v375h-871z" />
<glyph unicode="&#xad;" horiz-adv-x="507" d="M57 444v244h394v-244h-394z" />
<glyph unicode="&#xae;" horiz-adv-x="983" d="M143 1022q0 106 26 191t72 144.5t109.5 92.5t141.5 33t141 -33t109 -92.5t72 -144.5t26 -191t-26 -191.5t-72 -145.5t-109 -92t-141 -32t-141.5 32t-109.5 92t-72 145t-26 192zM207 1022q0 -88 19.5 -163t56 -129t90 -85t119.5 -31t119 31t89.5 85t56 129t19.5 163 t-19.5 163t-56 129t-89.5 85t-119 31t-119.5 -31t-90 -85t-56 -129t-19.5 -163zM324 760v545h184q33 0 64.5 -8.5t57 -29t41 -54t15.5 -85.5q0 -53 -15.5 -94t-52.5 -57l91 -217h-154l-68 190h-18v-190h-145zM469 1061h33q18 0 30.5 18.5t12.5 46.5q0 23 -13.5 35.5 t-29.5 12.5h-33v-113z" />
<glyph unicode="&#xaf;" horiz-adv-x="561" d="M-20 1255v158h602v-158h-602z" />
<glyph unicode="&#xb0;" horiz-adv-x="655" d="M66 1147q0 68 17 130t51 110.5t83 77t111 28.5q61 0 110 -28.5t83 -77t51.5 -110.5t17.5 -130t-17.5 -131.5t-51.5 -112.5t-83 -78.5t-110 -29.5t-110.5 29.5t-83.5 78.5t-51 112.5t-17 131.5zM207 1147q0 -92 31.5 -152.5t89.5 -60.5q55 0 88 60.5t33 152.5 q0 88 -33 147.5t-88 59.5q-57 0 -89 -59.5t-32 -147.5z" />
<glyph unicode="&#xb1;" horiz-adv-x="1363" d="M125 63v261h1137v-261h-1137zM125 678v260h436v270h266v-270h435v-260h-435v-270h-266v270h-436z" />
<glyph unicode="&#xb2;" horiz-adv-x="665" d="M51 1190q16 141 96 210.5t201 69.5q131 0 205 -72.5t74 -199.5q0 -88 -43 -153.5t-97 -124.5l-172 -191h301v-182h-548v190l278 316q33 39 52.5 72.5t19.5 70.5t-17.5 63.5t-58.5 26.5q-35 0 -60.5 -28.5t-29.5 -86.5z" />
<glyph unicode="&#xb3;" horiz-adv-x="665" d="M35 762l190 47q10 -41 37 -70.5t70 -29.5q47 0 70.5 32.5t23.5 77.5q0 59 -34 87t-91 28h-49v160h55q49 0 77 28.5t28 81.5q0 33 -19.5 61.5t-62.5 28.5q-33 0 -55.5 -23.5t-32.5 -58.5l-185 48q16 59 47 100t69 67.5t82 38t87 11.5q51 0 99 -15.5t86 -46.5t60.5 -77 t22.5 -107q0 -80 -35.5 -134.5t-93.5 -72.5v-2q68 -20 107 -77.5t39 -131.5q0 -70 -22.5 -123t-61.5 -90t-91.5 -55.5t-113.5 -18.5q-117 0 -197 58.5t-106 177.5z" />
<glyph unicode="&#xb4;" horiz-adv-x="561" d="M111 1186l184 295h266l-229 -295h-221z" />
<glyph unicode="&#xb5;" horiz-adv-x="1363" d="M182 -463v1483h332v-508q0 -35 5 -79t22.5 -83t48.5 -65.5t82 -26.5t87 18.5t57.5 49t31.5 71.5t10 88v535h332v-1020h-318v117h-2q-31 -53 -83 -92t-144 -39q-37 0 -71.5 10t-57.5 31v-490h-332z" />
<glyph unicode="&#xb6;" horiz-adv-x="1265" d="M49 1061q0 111 39 185.5t106.5 119.5t158.5 64.5t196 19.5h588v-1714h-238v1509h-174v-1509h-238v950q-100 2 -181 29.5t-138 77t-88 117t-31 151.5z" />
<glyph unicode="&#xb7;" horiz-adv-x="552" d="M102 551q0 76 48.5 131t125.5 55q76 0 125.5 -55t49.5 -131q0 -78 -49.5 -131t-125.5 -53q-78 0 -126 53t-48 131z" />
<glyph unicode="&#xb8;" horiz-adv-x="561" d="M23 -438l49 127q35 -16 79 -25.5t78 -9.5q35 0 67 13.5t32 51.5q0 33 -29 44.5t-57 11.5q-20 0 -46 -5.5t-44 -13.5l-64 58l133 186h172l-96 -125q12 4 23.5 4h23.5q31 0 62.5 -7t58.5 -25.5t44 -50.5t17 -81q0 -59 -27.5 -98t-69.5 -61.5t-91 -30.5t-90 -8 q-53 0 -115.5 11t-109.5 34z" />
<glyph unicode="&#xb9;" horiz-adv-x="665" d="M59 1264l246 186h201v-907h-217v655l-137 -100z" />
<glyph unicode="&#xba;" horiz-adv-x="655" d="M59 1130q0 76 18.5 139.5t53.5 109.5t84 72t113 26q63 0 112 -26t83 -72t52.5 -109.5t18.5 -139.5q0 -74 -18.5 -137t-52.5 -109t-83 -72t-112 -26q-61 0 -111.5 26t-85.5 72t-53.5 109.5t-18.5 136.5zM252 1133q0 -68 17.5 -116t58.5 -48t58 48t17 116t-17 115.5 t-58 47.5t-58.5 -48t-17.5 -115z" />
<glyph unicode="&#xbb;" horiz-adv-x="851" d="M74 150l180 387l-180 387l164 86l223 -473l-223 -474zM391 150l180 387l-180 387l164 86l223 -473l-223 -474z" />
<glyph unicode="&#xbc;" horiz-adv-x="1536" d="M59 1264l246 186h201v-907h-217v655l-137 -100zM420 10l553 1499l162 -53l-555 -1495zM844 180v180l268 549h270v-553h91v-176h-91v-180h-190v180h-348zM1030 356h166v357h-2z" />
<glyph unicode="&#xbd;" horiz-adv-x="1536" d="M59 1264l246 186h201v-907h-217v655l-137 -100zM420 10l553 1499l162 -53l-555 -1495zM913 643q16 141 96.5 211t200.5 70q131 0 205 -73t74 -200q0 -88 -43 -153.5t-96 -124.5l-172 -191h301v-182h-549v190l278 316q33 39 52.5 72.5t19.5 70.5t-17.5 63.5t-58.5 26.5 q-35 0 -60.5 -28.5t-29.5 -85.5z" />
<glyph unicode="&#xbe;" horiz-adv-x="1536" d="M35 762l190 47q10 -41 37 -70.5t70 -29.5q47 0 70.5 32.5t23.5 77.5q0 59 -34 87t-91 28h-49v160h55q49 0 77 28.5t28 81.5q0 33 -19.5 61.5t-62.5 28.5q-33 0 -55.5 -23.5t-32.5 -58.5l-185 48q16 59 47 100t69 67.5t82 38t87 11.5q51 0 99 -15.5t86 -46.5t60.5 -77 t22.5 -107q0 -80 -35.5 -134.5t-93.5 -72.5v-2q68 -20 107 -77.5t39 -131.5q0 -70 -22.5 -123t-61.5 -90t-91.5 -55.5t-113.5 -18.5q-117 0 -197 58.5t-106 177.5zM420 10l553 1499l162 -53l-555 -1495zM844 180v180l268 549h270v-553h91v-176h-91v-180h-190v180h-348z M1030 356h166v357h-2z" />
<glyph unicode="&#xbf;" horiz-adv-x="876" d="M25 10q0 66 14 117t38.5 94t59.5 81t78 75q53 47 70.5 87t17.5 89v57h270v-86q0 -109 -36.5 -179.5t-104.5 -133.5l-35 -37q-29 -31 -50 -64.5t-21 -76.5q0 -66 26.5 -104t85.5 -38q35 0 59.5 16.5t40 41t23.5 53.5t12 53l269 -47q-10 -80 -40 -151.5t-82 -127t-126 -88 t-174 -32.5q-180 0 -287.5 104.5t-107.5 296.5zM250 932q0 78 48 131t126 53t126 -53t48 -131q0 -76 -48 -131.5t-126 -55.5t-126 55.5t-48 131.5z" />
<glyph unicode="&#xc0;" horiz-adv-x="1112" d="M0 0l352 1450h412l350 -1450h-342l-59 264h-326l-59 -264h-328zM283 1860h266l184 -295h-221zM424 518h248l-117 617h-8z" />
<glyph unicode="&#xc1;" horiz-adv-x="1112" d="M0 0l352 1450h412l350 -1450h-342l-59 264h-326l-59 -264h-328zM381 1565l184 295h266l-229 -295h-221zM424 518h248l-117 617h-8z" />
<glyph unicode="&#xc2;" horiz-adv-x="1112" d="M0 0l352 1450h412l350 -1450h-342l-59 264h-326l-59 -264h-328zM201 1565l235 295h244l233 -295h-221l-137 174l-135 -174h-219zM424 518h248l-117 617h-8z" />
<glyph unicode="&#xc3;" horiz-adv-x="1112" d="M0 0l352 1450h412l350 -1450h-342l-59 264h-326l-59 -264h-328zM248 1579q6 113 53 185.5t129 72.5q39 0 70.5 -12.5t72.5 -36.5q45 -27 68 -36t49 -9q31 0 45.5 21.5t20.5 70.5h116q-4 -119 -52 -188.5t-130 -69.5q-66 0 -141 47q-45 29 -66.5 37t-48.5 8q-57 0 -67 -90 h-119zM424 518h248l-117 617h-8z" />
<glyph unicode="&#xc4;" horiz-adv-x="1112" d="M0 0l352 1450h412l350 -1450h-342l-59 264h-326l-59 -264h-328zM217 1743q0 70 42 119t110 49q66 0 108.5 -49t42.5 -119q0 -72 -43 -120t-108 -48q-68 0 -110 48t-42 120zM424 518h248l-117 617h-8zM594 1743q0 70 42 119t109 49q66 0 109 -49t43 -119q0 -72 -43 -120 t-109 -48q-68 0 -109.5 48t-41.5 120z" />
<glyph unicode="&#xc5;" horiz-adv-x="1112" d="M0 0l352 1450h412l350 -1450h-342l-59 264h-326l-59 -264h-328zM346 1751q0 96 55.5 159.5t149.5 63.5t151.5 -63.5t57.5 -159.5t-57.5 -159.5t-151.5 -63.5t-149.5 63.5t-55.5 159.5zM424 518h248l-117 617h-8zM444 1751q0 -53 27 -93t80 -40t82 40t29 93t-29 93t-82 40 t-80 -40t-27 -93z" />
<glyph unicode="&#xc6;" horiz-adv-x="1474" d="M-6 0l504 1450h893v-289h-379v-284h346v-271h-346v-313h401v-293h-702v268h-293l-88 -268h-336zM494 526h217v643h-11z" />
<glyph unicode="&#xc7;" horiz-adv-x="1048" d="M70 725q0 170 41 311.5t114.5 241.5t177 155.5t230.5 55.5q145 0 242.5 -52.5t156.5 -129.5l-176 -238q-37 49 -83 78t-116 29q-66 0 -113.5 -35t-81.5 -95.5t-50.5 -143.5t-16.5 -177t16.5 -176t50.5 -143.5t83 -96.5t114 -35q66 0 115 33t78 78l182 -227 q-55 -78 -140 -131.5t-216 -63.5l-68 -88q12 4 23.5 4h23.5q31 0 63 -7t58.5 -25.5t44 -50.5t17.5 -81q0 -59 -28 -98t-70 -61.5t-91 -30.5t-90 -8q-53 0 -115.5 11t-109.5 34l49 127q35 -16 79 -25.5t79 -9.5t66.5 13.5t31.5 51.5q0 33 -28.5 44.5t-57.5 11.5 q-20 0 -46 -5.5t-44 -13.5l-64 58l115 161q-102 25 -184 89.5t-140.5 162t-90 224.5t-31.5 274z" />
<glyph unicode="&#xc8;" horiz-adv-x="917" d="M129 0v1450h700v-289h-387v-284h357v-271h-357v-313h412v-293h-725zM156 1860h266l184 -295h-221z" />
<glyph unicode="&#xc9;" horiz-adv-x="917" d="M129 0v1450h700v-289h-387v-284h357v-271h-357v-313h412v-293h-725zM336 1565l184 295h266l-229 -295h-221z" />
<glyph unicode="&#xca;" horiz-adv-x="917" d="M125 1565l235 295h244l234 -295h-222l-137 174l-135 -174h-219zM129 0v1450h700v-289h-387v-284h357v-271h-357v-313h412v-293h-725z" />
<glyph unicode="&#xcb;" horiz-adv-x="917" d="M129 0v1450h700v-289h-387v-284h357v-271h-357v-313h412v-293h-725zM141 1743q0 70 42 119t110 49q66 0 108.5 -49t42.5 -119q0 -72 -43 -120t-108 -48q-68 0 -110 48t-42 120zM518 1743q0 70 42 119t110 49q66 0 108.5 -49t42.5 -119q0 -72 -43 -120t-108 -48 q-68 0 -110 48t-42 120z" />
<glyph unicode="&#xcc;" horiz-adv-x="587" d="M6 1860h266l185 -295h-221zM129 0v1450h330v-1450h-330z" />
<glyph unicode="&#xcd;" horiz-adv-x="587" d="M129 0v1450h330v-1450h-330zM133 1565l184 295h267l-230 -295h-221z" />
<glyph unicode="&#xce;" horiz-adv-x="587" d="M-61 1565l235 295h244l233 -295h-221l-137 174l-135 -174h-219zM129 0v1450h330v-1450h-330z" />
<glyph unicode="&#xcf;" horiz-adv-x="587" d="M-47 1743q0 70 42 119t109 49q66 0 109 -49t43 -119q0 -72 -43 -120t-109 -48q-68 0 -109.5 48t-41.5 120zM129 0v1450h330v-1450h-330zM330 1743q0 70 42 119t109 49q66 0 109 -49t43 -119q0 -72 -43 -120t-109 -48q-68 0 -109.5 48t-41.5 120z" />
<glyph unicode="&#xd0;" horiz-adv-x="1218" d="M29 631v215h100v604h408q156 0 269.5 -51t187 -146.5t109.5 -229.5t36 -302q0 -164 -36 -297t-109.5 -227.5t-187.5 -145.5t-269 -51h-408v631h-100zM461 287h80q119 0 193.5 111.5t74.5 322.5q0 219 -75 330.5t-193 111.5h-80v-317h194v-215h-194v-344z" />
<glyph unicode="&#xd1;" horiz-adv-x="1234" d="M129 0v1450h360l334 -895h6l-6 895h283v-1450h-350l-336 883h-6l8 -883h-293zM313 1579q6 113 53.5 185.5t129.5 72.5q39 0 70.5 -12.5t72.5 -36.5q45 -27 67.5 -36t49.5 -9q31 0 45 21.5t20 70.5h117q-4 -119 -52 -188.5t-130 -69.5q-66 0 -142 47q-45 29 -66.5 37 t-47.5 8q-57 0 -68 -90h-119z" />
<glyph unicode="&#xd2;" horiz-adv-x="1253" d="M70 729q0 172 37.5 312.5t109.5 239.5t175.5 153.5t234.5 54.5q129 0 232.5 -54.5t175 -153.5t110.5 -239.5t39 -312.5t-39 -314.5t-110.5 -242.5t-175 -155.5t-232.5 -55.5t-232.5 55.5t-175.5 155.5t-110.5 242.5t-38.5 314.5zM309 1860h266l185 -295h-221zM406 729 q0 -94 13 -176t40.5 -141.5t69.5 -94t98 -34.5q55 0 96 34.5t68.5 94t42 141.5t14.5 176t-14.5 175t-42 140.5t-68.5 93t-96 33.5t-97.5 -33.5t-70 -93t-40.5 -140.5t-13 -175z" />
<glyph unicode="&#xd3;" horiz-adv-x="1253" d="M70 729q0 172 37.5 312.5t109.5 239.5t175.5 153.5t234.5 54.5q129 0 232.5 -54.5t175 -153.5t110.5 -239.5t39 -312.5t-39 -314.5t-110.5 -242.5t-175 -155.5t-232.5 -55.5t-232.5 55.5t-175.5 155.5t-110.5 242.5t-38.5 314.5zM406 729q0 -94 13 -176t40.5 -141.5 t69.5 -94t98 -34.5q55 0 96 34.5t68.5 94t42 141.5t14.5 176t-14.5 175t-42 140.5t-68.5 93t-96 33.5t-97.5 -33.5t-70 -93t-40.5 -140.5t-13 -175zM473 1565l184 295h267l-230 -295h-221z" />
<glyph unicode="&#xd4;" horiz-adv-x="1253" d="M70 729q0 172 37.5 312.5t109.5 239.5t175.5 153.5t234.5 54.5q129 0 232.5 -54.5t175 -153.5t110.5 -239.5t39 -312.5t-39 -314.5t-110.5 -242.5t-175 -155.5t-232.5 -55.5t-232.5 55.5t-175.5 155.5t-110.5 242.5t-38.5 314.5zM270 1565l236 295h244l233 -295h-221 l-137 174l-136 -174h-219zM406 729q0 -94 13 -176t40.5 -141.5t69.5 -94t98 -34.5q55 0 96 34.5t68.5 94t42 141.5t14.5 176t-14.5 175t-42 140.5t-68.5 93t-96 33.5t-97.5 -33.5t-70 -93t-40.5 -140.5t-13 -175z" />
<glyph unicode="&#xd5;" horiz-adv-x="1253" d="M70 729q0 172 37.5 312.5t109.5 239.5t175.5 153.5t234.5 54.5q129 0 232.5 -54.5t175 -153.5t110.5 -239.5t39 -312.5t-39 -314.5t-110.5 -242.5t-175 -155.5t-232.5 -55.5t-232.5 55.5t-175.5 155.5t-110.5 242.5t-38.5 314.5zM315 1579q6 113 53.5 185.5t129.5 72.5 q39 0 70.5 -12.5t72.5 -36.5q45 -27 67.5 -36t49.5 -9q31 0 45 21.5t20 70.5h117q-4 -119 -52 -188.5t-130 -69.5q-66 0 -142 47q-45 29 -66.5 37t-47.5 8q-57 0 -68 -90h-119zM406 729q0 -94 13 -176t40.5 -141.5t69.5 -94t98 -34.5q55 0 96 34.5t68.5 94t42 141.5 t14.5 176t-14.5 175t-42 140.5t-68.5 93t-96 33.5t-97.5 -33.5t-70 -93t-40.5 -140.5t-13 -175z" />
<glyph unicode="&#xd6;" horiz-adv-x="1253" d="M70 729q0 172 37.5 312.5t109.5 239.5t175.5 153.5t234.5 54.5q129 0 232.5 -54.5t175 -153.5t110.5 -239.5t39 -312.5t-39 -314.5t-110.5 -242.5t-175 -155.5t-232.5 -55.5t-232.5 55.5t-175.5 155.5t-110.5 242.5t-38.5 314.5zM287 1743q0 70 42 119t109 49 q66 0 109 -49t43 -119q0 -72 -43 -120t-109 -48q-68 0 -109.5 48t-41.5 120zM406 729q0 -94 13 -176t40.5 -141.5t69.5 -94t98 -34.5q55 0 96 34.5t68.5 94t42 141.5t14.5 176t-14.5 175t-42 140.5t-68.5 93t-96 33.5t-97.5 -33.5t-70 -93t-40.5 -140.5t-13 -175zM664 1743 q0 70 42 119t109 49q66 0 109 -49t43 -119q0 -72 -43 -120t-109 -48q-68 0 -109.5 48t-41.5 120z" />
<glyph unicode="&#xd7;" horiz-adv-x="1363" d="M129 973l193 186l362 -354l356 352l187 -178l-357 -354l367 -359l-193 -190l-362 354l-360 -354l-191 182l363 358z" />
<glyph unicode="&#xd8;" horiz-adv-x="1259" d="M70 729q0 172 37.5 312.5t109.5 239.5t175.5 153.5t234.5 54.5q78 0 144.5 -20.5t125.5 -57.5l70 148l157 -72l-98 -195q76 -100 117 -242.5t41 -320.5q0 -172 -39 -314.5t-110.5 -242.5t-175 -155.5t-232.5 -55.5q-80 0 -149.5 21.5t-129.5 60.5l-65 -141l-160 73 l98 193q-74 102 -112.5 243.5t-38.5 317.5zM393 729q0 -63 5 -120.5t18 -108.5l325 645q-49 49 -114 49q-59 0 -103.5 -36t-73 -98.5t-43 -147.5t-14.5 -183zM502 315q55 -55 125 -55q57 0 101 36t73.5 99.5t44 149.5t14.5 184q0 66 -6 124t-20 112z" />
<glyph unicode="&#xd9;" horiz-adv-x="1189" d="M104 537v913h330v-885q0 -61 7.5 -114.5t25.5 -91t49 -60.5t80 -23t80 23t49 60.5t25.5 91t7.5 114.5v885h327v-913q0 -121 -27.5 -225.5t-87 -182.5t-153.5 -123t-227 -45t-225.5 45t-150.5 123t-84 182.5t-26 225.5zM303 1860h266l185 -295h-222z" />
<glyph unicode="&#xda;" horiz-adv-x="1189" d="M104 537v913h330v-885q0 -61 7.5 -114.5t25.5 -91t49 -60.5t80 -23t80 23t49 60.5t25.5 91t7.5 114.5v885h327v-913q0 -121 -27.5 -225.5t-87 -182.5t-153.5 -123t-227 -45t-225.5 45t-150.5 123t-84 182.5t-26 225.5zM457 1565l184 295h266l-229 -295h-221z" />
<glyph unicode="&#xdb;" horiz-adv-x="1189" d="M104 537v913h330v-885q0 -61 7.5 -114.5t25.5 -91t49 -60.5t80 -23t80 23t49 60.5t25.5 91t7.5 114.5v885h327v-913q0 -121 -27.5 -225.5t-87 -182.5t-153.5 -123t-227 -45t-225.5 45t-150.5 123t-84 182.5t-26 225.5zM242 1565l235 295h244l233 -295h-221l-137 174 l-135 -174h-219z" />
<glyph unicode="&#xdc;" horiz-adv-x="1189" d="M104 537v913h330v-885q0 -61 7.5 -114.5t25.5 -91t49 -60.5t80 -23t80 23t49 60.5t25.5 91t7.5 114.5v885h327v-913q0 -121 -27.5 -225.5t-87 -182.5t-153.5 -123t-227 -45t-225.5 45t-150.5 123t-84 182.5t-26 225.5zM258 1743q0 70 42 119t110 49q66 0 108.5 -49 t42.5 -119q0 -72 -43 -120t-108 -48q-68 0 -110 48t-42 120zM635 1743q0 70 42 119t109 49q66 0 109 -49t43 -119q0 -72 -43 -120t-109 -48q-68 0 -109.5 48t-41.5 120z" />
<glyph unicode="&#xdd;" horiz-adv-x="1007" d="M-25 1450h355l174 -600h4l176 600h348l-368 -928v-522h-322v522zM367 1565l184 295h266l-229 -295h-221z" />
<glyph unicode="&#xde;" horiz-adv-x="1114" d="M129 0v1450h322v-248h135q100 0 185 -23.5t147.5 -75.5t97.5 -137t35 -210q0 -127 -38 -214t-102.5 -140.5t-150.5 -78t-180 -24.5h-129v-299h-322zM451 567h90q41 0 76.5 10.5t62.5 32t42 57.5t15 87q0 53 -15 88t-41 54t-60.5 27.5t-73.5 8.5h-96v-365z" />
<glyph unicode="&#xdf;" horiz-adv-x="1081" d="M121 0v1038q0 113 24.5 211.5t77.5 170t139.5 112.5t208.5 41q100 0 175 -31t126.5 -84t77 -127t25.5 -162q0 -66 -16.5 -118t-44 -91.5t-63.5 -67.5t-75 -40v-2q51 -12 99.5 -43t83 -81t56 -119.5t21.5 -155.5q0 -96 -21.5 -182.5t-68.5 -151t-125 -101t-188 -36.5 q-37 0 -72 6t-57 10v256q16 -6 32.5 -8t32.5 -2q88 0 128 61.5t40 165.5q0 119 -53 178.5t-135 59.5h-37v256h35q61 0 102 48t41 134q0 66 -28.5 115t-94.5 49q-43 0 -68.5 -21.5t-41 -58.5t-20.5 -84t-5 -98v-1047h-311z" />
<glyph unicode="&#xe0;" horiz-adv-x="952" d="M53 299q0 111 40 182.5t104.5 114.5t146.5 60.5t166 17.5h41v16q0 78 -36 113t-95 35t-107.5 -27t-83.5 -68l-141 197q66 78 163 121t193 43q109 0 185 -33t123 -96.5t67.5 -154.5t20.5 -210v-610h-265v133h-4q-20 -72 -80.5 -116t-156.5 -44q-47 0 -96.5 16.5 t-90.5 54.5t-67.5 100.5t-26.5 154.5zM184 1481h267l184 -295h-221zM326 322q0 -63 27.5 -93t66.5 -30q37 0 64.5 18.5t44 48t24.5 67.5t8 75v59h-57q-35 0 -68 -6t-57.5 -23.5t-38.5 -45t-14 -70.5z" />
<glyph unicode="&#xe1;" horiz-adv-x="952" d="M53 299q0 111 40 182.5t104.5 114.5t146.5 60.5t166 17.5h41v16q0 78 -36 113t-95 35t-107.5 -27t-83.5 -68l-141 197q66 78 163 121t193 43q109 0 185 -33t123 -96.5t67.5 -154.5t20.5 -210v-610h-265v133h-4q-20 -72 -80.5 -116t-156.5 -44q-47 0 -96.5 16.5 t-90.5 54.5t-67.5 100.5t-26.5 154.5zM326 322q0 -63 27.5 -93t66.5 -30q37 0 64.5 18.5t44 48t24.5 67.5t8 75v59h-57q-35 0 -68 -6t-57.5 -23.5t-38.5 -45t-14 -70.5zM332 1184l184 295h266l-229 -295h-221z" />
<glyph unicode="&#xe2;" horiz-adv-x="952" d="M53 299q0 111 40 182.5t104.5 114.5t146.5 60.5t166 17.5h41v16q0 78 -36 113t-95 35t-107.5 -27t-83.5 -68l-141 197q66 78 163 121t193 43q109 0 185 -33t123 -96.5t67.5 -154.5t20.5 -210v-610h-265v133h-4q-20 -72 -80.5 -116t-156.5 -44q-47 0 -96.5 16.5 t-90.5 54.5t-67.5 100.5t-26.5 154.5zM106 1186l236 295h244l233 -295h-221l-137 174l-135 -174h-220zM326 322q0 -63 27.5 -93t66.5 -30q37 0 64.5 18.5t44 48t24.5 67.5t8 75v59h-57q-35 0 -68 -6t-57.5 -23.5t-38.5 -45t-14 -70.5z" />
<glyph unicode="&#xe3;" horiz-adv-x="952" d="M53 299q0 111 40 182.5t104.5 114.5t146.5 60.5t166 17.5h41v16q0 78 -36 113t-95 35t-107.5 -27t-83.5 -68l-141 197q66 78 163 121t193 43q109 0 185 -33t123 -96.5t67.5 -154.5t20.5 -210v-610h-265v133h-4q-20 -72 -80.5 -116t-156.5 -44q-47 0 -96.5 16.5 t-90.5 54.5t-67.5 100.5t-26.5 154.5zM154 1200q6 115 53 184q47 74 129 74q39 0 70.5 -12t72.5 -37q45 -27 67.5 -36t49.5 -9q31 0 45 21.5t21 70.5h116q-4 -119 -52 -188.5t-130 -69.5q-66 0 -141 47q-45 29 -66.5 37t-48.5 8q-57 0 -68 -90h-118zM326 322q0 -63 27.5 -93 t66.5 -30q37 0 64.5 18.5t44 48t24.5 67.5t8 75v59h-57q-35 0 -68 -6t-57.5 -23.5t-38.5 -45t-14 -70.5z" />
<glyph unicode="&#xe4;" horiz-adv-x="952" d="M53 299q0 111 40 182.5t104.5 114.5t146.5 60.5t166 17.5h41v16q0 78 -36 113t-95 35t-107.5 -27t-83.5 -68l-141 197q66 78 163 121t193 43q109 0 185 -33t123 -96.5t67.5 -154.5t20.5 -210v-610h-265v133h-4q-20 -72 -80.5 -116t-156.5 -44q-47 0 -96.5 16.5 t-90.5 54.5t-67.5 100.5t-26.5 154.5zM123 1364q0 70 42 119t109 49q66 0 109 -49t43 -119q0 -72 -43 -120t-109 -48q-68 0 -109.5 48t-41.5 120zM326 322q0 -63 27.5 -93t66.5 -30q37 0 64.5 18.5t44 48t24.5 67.5t8 75v59h-57q-35 0 -68 -6t-57.5 -23.5t-38.5 -45 t-14 -70.5zM500 1364q0 70 42 119t109 49q66 0 109 -49t43 -119q0 -72 -43 -120t-109 -48q-68 0 -109.5 48t-41.5 120z" />
<glyph unicode="&#xe5;" horiz-adv-x="952" d="M53 299q0 111 40 182.5t104.5 114.5t146.5 60.5t166 17.5h41v16q0 78 -36 113t-95 35t-107.5 -27t-83.5 -68l-141 197q66 78 163 121t193 43q109 0 185 -33t123 -96.5t67.5 -154.5t20.5 -210v-610h-265v133h-4q-20 -72 -80.5 -116t-156.5 -44q-47 0 -96.5 16.5 t-90.5 54.5t-67.5 100.5t-26.5 154.5zM256 1372q0 96 55.5 159.5t149.5 63.5t151.5 -63.5t57.5 -159.5t-57.5 -159.5t-151.5 -63.5t-149.5 63.5t-55.5 159.5zM326 322q0 -63 27.5 -93t66.5 -30q37 0 64.5 18.5t44 48t24.5 67.5t8 75v59h-57q-35 0 -68 -6t-57.5 -23.5 t-38.5 -45t-14 -70.5zM354 1372q0 -53 27 -93t80 -40t81.5 40t28.5 93t-28.5 93t-81.5 40t-80 -40t-27 -93z" />
<glyph unicode="&#xe6;" horiz-adv-x="1437" d="M53 295q0 111 40 181.5t104.5 112.5t146.5 58.5t166 16.5h41v32q0 78 -36 113t-95 35t-107.5 -26.5t-83.5 -67.5l-141 196q66 78 163 121t193 43t165 -35t108 -112q88 147 270 147q104 0 178 -46t122 -123t69.5 -180.5t21.5 -215.5v-90h-536q0 -45 11 -85t29.5 -70 t45 -47t59.5 -17q53 0 86 34.5t51 81.5l236 -133q-53 -119 -147.5 -188.5t-231.5 -69.5q-94 0 -172 45t-115 123q-31 -72 -107.5 -120t-199.5 -48q-68 0 -128 17.5t-106.5 57.5t-73 103.5t-26.5 155.5zM326 322q0 -63 27.5 -93t66.5 -30q37 0 64.5 17t44 46t24.5 67t8 79v47 h-57q-35 0 -68 -5.5t-57.5 -18.5t-38.5 -39.5t-14 -69.5zM840 664h243q0 86 -26.5 143t-87.5 57q-33 0 -56.5 -19.5t-40 -49t-24.5 -65.5t-8 -66z" />
<glyph unicode="&#xe7;" horiz-adv-x="739" d="M61 537q0 125 29 228t82 179t132 118t181 42q90 0 156 -33t102 -74l-129 -249q-18 29 -44.5 45t-59.5 16q-59 0 -99 -71.5t-40 -200.5t39 -200t106 -71q35 0 60.5 17.5t41.5 46.5l130 -248q-68 -80 -181 -105l-78 -102q12 4 23.5 4h24.5q31 0 62.5 -7t58 -25.5t44 -50.5 t17.5 -81q0 -59 -27.5 -98t-69.5 -61.5t-91.5 -30.5t-90.5 -8q-53 0 -115.5 11t-109.5 34l49 127q35 -16 79 -25.5t79 -9.5t66.5 13.5t31.5 51.5q0 33 -28.5 44.5t-57.5 11.5q-20 0 -46 -5.5t-44 -13.5l-63 58l114 163q-80 16 -142.5 63.5t-105.5 121.5t-64.5 169t-21.5 206 z" />
<glyph unicode="&#xe8;" horiz-adv-x="968" d="M61 532q0 131 32 239t90.5 182.5t138 115.5t176.5 41q111 0 188.5 -43t127.5 -118t72.5 -178t22.5 -226v-90h-536q0 -45 11 -85t29.5 -70t45 -47t59.5 -17q53 0 86 34.5t51 81.5l236 -133q-53 -119 -148.5 -188.5t-236.5 -69.5q-94 0 -175 37t-141.5 109.5t-94.5 179 t-34 245.5zM186 1481h267l184 -295h-221zM371 664h243q0 86 -26.5 143t-87.5 57q-33 0 -56.5 -19.5t-40 -49t-24.5 -65.5t-8 -66z" />
<glyph unicode="&#xe9;" horiz-adv-x="968" d="M61 532q0 131 32 239t90.5 182.5t138 115.5t176.5 41q111 0 188.5 -43t127.5 -118t72.5 -178t22.5 -226v-90h-536q0 -45 11 -85t29.5 -70t45 -47t59.5 -17q53 0 86 34.5t51 81.5l236 -133q-53 -119 -148.5 -188.5t-236.5 -69.5q-94 0 -175 37t-141.5 109.5t-94.5 179 t-34 245.5zM360 1186l185 295h266l-229 -295h-222zM371 664h243q0 86 -26.5 143t-87.5 57q-33 0 -56.5 -19.5t-40 -49t-24.5 -65.5t-8 -66z" />
<glyph unicode="&#xea;" horiz-adv-x="968" d="M61 532q0 131 32 239t90.5 182.5t138 115.5t176.5 41q111 0 188.5 -43t127.5 -118t72.5 -178t22.5 -226v-90h-536q0 -45 11 -85t29.5 -70t45 -47t59.5 -17q53 0 86 34.5t51 81.5l236 -133q-53 -119 -148.5 -188.5t-236.5 -69.5q-94 0 -175 37t-141.5 109.5t-94.5 179 t-34 245.5zM168 1186l235 295h244l234 -295h-222l-137 174l-135 -174h-219zM371 664h243q0 86 -26.5 143t-87.5 57q-33 0 -56.5 -19.5t-40 -49t-24.5 -65.5t-8 -66z" />
<glyph unicode="&#xeb;" horiz-adv-x="968" d="M61 532q0 131 32 239t90.5 182.5t138 115.5t176.5 41q111 0 188.5 -43t127.5 -118t72.5 -178t22.5 -226v-90h-536q0 -45 11 -85t29.5 -70t45 -47t59.5 -17q53 0 86 34.5t51 81.5l236 -133q-53 -119 -148.5 -188.5t-236.5 -69.5q-94 0 -175 37t-141.5 109.5t-94.5 179 t-34 245.5zM172 1364q0 70 42 119t110 49q66 0 108.5 -49t42.5 -119q0 -72 -43 -120t-108 -48q-68 0 -110 48t-42 120zM371 664h243q0 86 -26.5 143t-87.5 57q-33 0 -56.5 -19.5t-40 -49t-24.5 -65.5t-8 -66zM549 1364q0 70 42 119t109 49q66 0 109 -49t43 -119 q0 -72 -43 -120t-109 -48q-68 0 -109.5 48t-41.5 120z" />
<glyph unicode="&#xec;" horiz-adv-x="565" d="M-12 1481h266l184 -295h-221zM123 0v1071h319v-1071h-319z" />
<glyph unicode="&#xed;" horiz-adv-x="565" d="M123 0v1071h319v-1071h-319zM127 1186l184 295h267l-230 -295h-221z" />
<glyph unicode="&#xee;" horiz-adv-x="565" d="M-72 1186l236 295h244l233 -295h-221l-137 174l-136 -174h-219zM123 0v1071h319v-1071h-319z" />
<glyph unicode="&#xef;" horiz-adv-x="565" d="M-53 1364q0 70 42 119t109 49q66 0 109 -49t43 -119q0 -72 -43 -120t-109 -48q-68 0 -109.5 48t-41.5 120zM123 0v1071h319v-1071h-319zM324 1364q0 70 42 119t109 49q66 0 109 -49t43 -119q0 -72 -43 -120t-109 -48q-68 0 -109.5 48t-41.5 120z" />
<glyph unicode="&#xf0;" horiz-adv-x="1001" d="M61 535q0 119 31 218t85 169.5t130 109.5t166 39q31 0 50.5 -7t35.5 -17l6 2q-25 51 -61.5 104t-71.5 92l-205 -100l-129 137l211 98q-25 27 -67.5 60t-89.5 67l258 117q45 -39 83.5 -72.5t69.5 -68.5l185 88l141 -135l-217 -99q119 -154 192.5 -359.5t73.5 -447.5 q0 -131 -33 -236.5t-91 -179t-139 -113.5t-175 -40q-96 0 -177 40t-139.5 113.5t-90.5 180t-32 240.5zM358 535q0 -59 8.5 -110.5t26 -90.5t44 -61.5t63.5 -22.5t64.5 22.5t45 61.5t26.5 90.5t9 110.5t-9 111t-27.5 90t-45 60.5t-63.5 22.5t-63.5 -22.5t-44 -60.5t-26 -90 t-8.5 -111z" />
<glyph unicode="&#xf1;" horiz-adv-x="1105" d="M127 0v1071h313v-151h4q27 78 94.5 134t168.5 56q92 0 147 -38t86 -101.5t41 -145.5t10 -170v-655h-321v657q0 68 -19.5 119t-77.5 51q-59 0 -91.5 -54t-32.5 -142v-631h-322zM242 1184q6 113 53 185.5t129 72.5q39 0 70.5 -12.5t72.5 -36.5q45 -27 67.5 -36t49.5 -9 q31 0 45 21.5t21 70.5h116q-4 -119 -52 -188.5t-130 -69.5q-66 0 -141 47q-45 29 -66.5 37t-48.5 8q-57 0 -68 -90h-118z" />
<glyph unicode="&#xf2;" horiz-adv-x="1013" d="M61 535q0 125 31 231t88.5 182t140 119t187.5 43q104 0 187 -43t139.5 -119t87 -182t30.5 -231t-30.5 -230.5t-87 -181.5t-139.5 -119t-187 -43t-186 43t-140.5 119t-89.5 181.5t-31 230.5zM209 1481h266l184 -295h-221zM373 537q0 -61 8 -113.5t24.5 -92.5t42 -62.5 t60.5 -22.5q37 0 62.5 22.5t42 62.5t24.5 92.5t8 113.5t-8 113t-24.5 92t-42 62.5t-62.5 22.5q-35 0 -60.5 -22.5t-42 -62.5t-24.5 -92t-8 -113z" />
<glyph unicode="&#xf3;" horiz-adv-x="1013" d="M61 535q0 125 31 231t88.5 182t140 119t187.5 43q104 0 187 -43t139.5 -119t87 -182t30.5 -231t-30.5 -230.5t-87 -181.5t-139.5 -119t-187 -43t-186 43t-140.5 119t-89.5 181.5t-31 230.5zM360 1186l185 295h266l-229 -295h-222zM373 537q0 -61 8 -113.5t24.5 -92.5 t42 -62.5t60.5 -22.5q37 0 62.5 22.5t42 62.5t24.5 92.5t8 113.5t-8 113t-24.5 92t-42 62.5t-62.5 22.5q-35 0 -60.5 -22.5t-42 -62.5t-24.5 -92t-8 -113z" />
<glyph unicode="&#xf4;" horiz-adv-x="1013" d="M61 535q0 125 31 231t88.5 182t140 119t187.5 43q104 0 187 -43t139.5 -119t87 -182t30.5 -231t-30.5 -230.5t-87 -181.5t-139.5 -119t-187 -43t-186 43t-140.5 119t-89.5 181.5t-31 230.5zM152 1186l235 295h244l233 -295h-221l-137 174l-135 -174h-219zM373 537 q0 -61 8 -113.5t24.5 -92.5t42 -62.5t60.5 -22.5q37 0 62.5 22.5t42 62.5t24.5 92.5t8 113.5t-8 113t-24.5 92t-42 62.5t-62.5 22.5q-35 0 -60.5 -22.5t-42 -62.5t-24.5 -92t-8 -113z" />
<glyph unicode="&#xf5;" horiz-adv-x="1013" d="M61 535q0 125 31 231t88.5 182t140 119t187.5 43q104 0 187 -43t139.5 -119t87 -182t30.5 -231t-30.5 -230.5t-87 -181.5t-139.5 -119t-187 -43t-186 43t-140.5 119t-89.5 181.5t-31 230.5zM197 1200q6 115 53 184q47 74 129 74q39 0 70.5 -12t72.5 -37q45 -27 67.5 -36 t49.5 -9q31 0 45 21.5t21 70.5h116q-4 -119 -52 -188.5t-130 -69.5q-66 0 -141 47q-45 29 -66.5 37t-48.5 8q-57 0 -68 -90h-118zM373 537q0 -61 8 -113.5t24.5 -92.5t42 -62.5t60.5 -22.5q37 0 62.5 22.5t42 62.5t24.5 92.5t8 113.5t-8 113t-24.5 92t-42 62.5t-62.5 22.5 q-35 0 -60.5 -22.5t-42 -62.5t-24.5 -92t-8 -113z" />
<glyph unicode="&#xf6;" horiz-adv-x="1013" d="M61 535q0 125 31 231t88.5 182t140 119t187.5 43q104 0 187 -43t139.5 -119t87 -182t30.5 -231t-30.5 -230.5t-87 -181.5t-139.5 -119t-187 -43t-186 43t-140.5 119t-89.5 181.5t-31 230.5zM168 1364q0 70 42 119t109 49q66 0 109 -49t43 -119q0 -72 -43 -120t-109 -48 q-68 0 -109.5 48t-41.5 120zM373 537q0 -61 8 -113.5t24.5 -92.5t42 -62.5t60.5 -22.5q37 0 62.5 22.5t42 62.5t24.5 92.5t8 113.5t-8 113t-24.5 92t-42 62.5t-62.5 22.5q-35 0 -60.5 -22.5t-42 -62.5t-24.5 -92t-8 -113zM545 1364q0 70 42 119t109 49q66 0 109 -49t43 -119 q0 -72 -43 -120t-109 -48q-68 0 -109.5 48t-41.5 120z" />
<glyph unicode="&#xf7;" horiz-adv-x="1363" d="M162 492v260h1038v-260h-1038zM504 240q0 35 14 66.5t39 55t56.5 37t68.5 13.5t68.5 -13.5t55 -37t38 -55.5t14.5 -66q0 -35 -14.5 -67t-38 -55.5t-55 -37.5t-68.5 -14t-68.5 14t-56.5 37.5t-39 55.5t-14 67zM504 1001q0 35 14 67t39 55.5t56.5 37t68.5 13.5t68.5 -13.5 t55 -37t38 -55.5t14.5 -67q0 -37 -14.5 -68.5t-38 -55t-55 -37t-68.5 -13.5t-68.5 13.5t-56.5 37t-39 55t-14 68.5z" />
<glyph unicode="&#xf8;" horiz-adv-x="1013" d="M61 535q0 125 31 231t88.5 182t140 119t187.5 43q111 0 194 -47l58 117l135 -64l-76 -149q66 -78 99.5 -187.5t33.5 -244.5q0 -125 -30.5 -230.5t-87 -181.5t-139.5 -119t-187 -43q-117 0 -207 53l-53 -116l-137 65l75 152q-59 78 -92 184.5t-33 235.5zM352 537 q0 -35 2 -65t6 -58l215 428q-29 23 -67 22q-41 0 -70.5 -25.5t-48 -69.5t-28 -104t-9.5 -128zM430 240q31 -31 78 -31q43 0 72.5 25.5t49 69.5t29 104.5t9.5 128.5q0 78 -13 145z" />
<glyph unicode="&#xf9;" horiz-adv-x="1105" d="M115 416v655h321v-655q0 -35 4 -66t14.5 -53.5t30 -36.5t47.5 -14q59 0 92 54t33 142v629h322v-1071h-313v152h-4q-27 -78 -94.5 -134.5t-168.5 -56.5q-92 0 -147 38t-86 101.5t-41 145.5t-10 170zM254 1481h266l185 -295h-222z" />
<glyph unicode="&#xfa;" horiz-adv-x="1105" d="M115 416v655h321v-655q0 -35 4 -66t14.5 -53.5t30 -36.5t47.5 -14q59 0 92 54t33 142v629h322v-1071h-313v152h-4q-27 -78 -94.5 -134.5t-168.5 -56.5q-92 0 -147 38t-86 101.5t-41 145.5t-10 170zM401 1186l185 295h266l-229 -295h-222z" />
<glyph unicode="&#xfb;" horiz-adv-x="1105" d="M115 416v655h321v-655q0 -35 4 -66t14.5 -53.5t30 -36.5t47.5 -14q59 0 92 54t33 142v629h322v-1071h-313v152h-4q-27 -78 -94.5 -134.5t-168.5 -56.5q-92 0 -147 38t-86 101.5t-41 145.5t-10 170zM193 1186l235 295h244l233 -295h-221l-137 174l-135 -174h-219z" />
<glyph unicode="&#xfc;" horiz-adv-x="1105" d="M115 416v655h321v-655q0 -35 4 -66t14.5 -53.5t30 -36.5t47.5 -14q59 0 92 54t33 142v629h322v-1071h-313v152h-4q-27 -78 -94.5 -134.5t-168.5 -56.5q-92 0 -147 38t-86 101.5t-41 145.5t-10 170zM209 1364q0 70 42 119t109 49q66 0 109 -49t43 -119q0 -72 -43 -120 t-109 -48q-68 0 -109.5 48t-41.5 120zM586 1364q0 70 42 119t109 49q66 0 109 -49t43 -119q0 -72 -43 -120t-109 -48q-68 0 -109.5 48t-41.5 120z" />
<glyph unicode="&#xfd;" horiz-adv-x="974" d="M6 1071h338l154 -715h4l141 715h326l-303 -1108q-25 -92 -56.5 -174t-81 -144.5t-121 -99.5t-176.5 -37q-47 0 -95 6.5t-85 14.5l43 291q18 -8 43 -12.5t43 -4.5q61 0 89 33t40 78l17 59zM350 1186l185 295h266l-230 -295h-221z" />
<glyph unicode="&#xfe;" horiz-adv-x="1081" d="M127 -492v2053h309v-617h6q29 70 81 115t143 45q86 0 152.5 -43t110.5 -118t67.5 -176t23.5 -220q0 -121 -23.5 -227.5t-67.5 -184.5t-110.5 -123t-152.5 -45q-92 0 -145.5 45t-74.5 103h-4v-607h-315zM430 537q0 -59 8 -112.5t25.5 -93.5t43 -62.5t60.5 -22.5 q37 0 62.5 22.5t43 62.5t25 93t7.5 113q0 61 -7.5 113t-25 92t-43 62.5t-62.5 22.5q-35 0 -60.5 -22.5t-43 -62.5t-25.5 -92t-8 -113z" />
<glyph unicode="&#xff;" horiz-adv-x="974" d="M6 1071h338l154 -715h4l141 715h326l-303 -1108q-25 -92 -56.5 -174t-81 -144.5t-121 -99.5t-176.5 -37q-47 0 -95 6.5t-85 14.5l43 291q18 -8 43 -12.5t43 -4.5q61 0 89 33t40 78l17 59zM160 1364q0 70 42 119t109 49q66 0 109 -49t43 -119q0 -72 -43 -120t-109 -48 q-68 0 -109.5 48t-41.5 120zM537 1364q0 70 42 119t109 49q66 0 109 -49t43 -119q0 -72 -43 -120t-109 -48q-68 0 -109.5 48t-41.5 120z" />
<glyph unicode="&#x130;" horiz-adv-x="587" d="M121 1741q0 39 13 72.5t36 59t55.5 41t71.5 15.5t71.5 -15.5t55 -41t36 -59t13.5 -72.5q0 -78 -49 -132.5t-127 -54.5t-127 54.5t-49 132.5zM129 0v1450h330v-1450h-330z" />
<glyph unicode="&#x152;" horiz-adv-x="1486" d="M70 729q0 164 35.5 297t109.5 227.5t187.5 145.5t269.5 51h729v-289h-379v-284h346v-271h-346v-313h401v-293h-751q-156 0 -269.5 51t-187.5 146.5t-109.5 229.5t-35.5 302zM399 729q0 -219 75 -330.5t194 -111.5h47v876h-47q-119 0 -194 -111.5t-75 -322.5z" />
<glyph unicode="&#x153;" horiz-adv-x="1529" d="M57 535q0 125 31 231t88 182t140 119t188 43q96 0 174 -42t115 -128q37 78 107.5 124t174.5 46q111 0 186.5 -46t123 -123t69 -180.5t21.5 -215.5v-90h-537q0 -45 11.5 -85t29.5 -70t45 -47t59 -17q53 0 86 34.5t52 81.5l235 -133q-53 -119 -148.5 -188.5t-236.5 -69.5 q-90 0 -165 44t-115 124q-39 -82 -117 -125t-170 -43q-104 0 -186 43t-140.5 119t-89.5 181.5t-31 230.5zM371 537q0 -61 8 -113.5t24.5 -92.5t42 -62.5t60.5 -22.5q37 0 62.5 22.5t42 62.5t24.5 92.5t8 113.5t-8 113t-24.5 92t-42 62.5t-62.5 22.5q-35 0 -60.5 -22.5 t-42 -62.5t-24.5 -92t-8 -113zM936 664h244q0 86 -27 143t-88 57q-33 0 -56.5 -19.5t-40 -49t-24.5 -65.5t-8 -66z" />
<glyph unicode="&#x178;" horiz-adv-x="1007" d="M-25 1450h355l174 -600h4l176 600h348l-368 -928v-522h-322v522zM168 1743q0 70 42 119t109 49q66 0 109 -49t43 -119q0 -72 -43 -120t-109 -48q-68 0 -109.5 48t-41.5 120zM545 1743q0 70 42 119t109 49q66 0 109 -49t43 -119q0 -72 -43 -120t-109 -48q-68 0 -109.5 48 t-41.5 120z" />
<glyph unicode="&#x2c6;" horiz-adv-x="561" d="M-76 1186l236 295h243l234 -295h-221l-137 174l-136 -174h-219z" />
<glyph unicode="&#x2dc;" horiz-adv-x="561" d="M-31 1200q6 115 54 184q47 74 129 74q39 0 70.5 -12t72.5 -37q45 -27 67.5 -36t49.5 -9q31 0 45 21.5t20 70.5h117q-4 -119 -52 -188.5t-130 -69.5q-66 0 -142 47q-45 29 -66.5 37t-47.5 8q-57 0 -68 -90h-119z" />
<glyph unicode="&#x2000;" horiz-adv-x="987" />
<glyph unicode="&#x2001;" horiz-adv-x="1974" />
<glyph unicode="&#x2002;" horiz-adv-x="987" />
<glyph unicode="&#x2003;" horiz-adv-x="1974" />
<glyph unicode="&#x2004;" horiz-adv-x="658" />
<glyph unicode="&#x2005;" horiz-adv-x="493" />
<glyph unicode="&#x2006;" horiz-adv-x="329" />
<glyph unicode="&#x2007;" horiz-adv-x="329" />
<glyph unicode="&#x2008;" horiz-adv-x="246" />
<glyph unicode="&#x2009;" horiz-adv-x="394" />
<glyph unicode="&#x200a;" horiz-adv-x="109" />
<glyph unicode="&#x2010;" horiz-adv-x="507" d="M57 444v244h394v-244h-394z" />
<glyph unicode="&#x2011;" horiz-adv-x="507" d="M57 444v244h394v-244h-394z" />
<glyph unicode="&#x2012;" horiz-adv-x="507" d="M57 444v244h394v-244h-394z" />
<glyph unicode="&#x2013;" horiz-adv-x="737" d="M49 463v209h639v-209h-639z" />
<glyph unicode="&#x2014;" horiz-adv-x="942" d="M49 463v209h844v-209h-844z" />
<glyph unicode="&#x2018;" horiz-adv-x="468" d="M63 922l130 528h213l-103 -528h-240z" />
<glyph unicode="&#x2019;" horiz-adv-x="468" d="M63 922l103 528h240l-130 -528h-213z" />
<glyph unicode="&#x201a;" horiz-adv-x="468" d="M63 -236l103 529h240l-127 -529h-216z" />
<glyph unicode="&#x201c;" horiz-adv-x="815" d="M63 922l130 528h213l-103 -528h-240zM410 922l127 528h215l-103 -528h-239z" />
<glyph unicode="&#x201d;" horiz-adv-x="813" d="M63 922l103 528h240l-127 -528h-216zM410 922l102 528h240l-129 -528h-213z" />
<glyph unicode="&#x201e;" horiz-adv-x="813" d="M63 -236l103 529h240l-127 -529h-216zM410 -236l102 529h240l-129 -529h-213z" />
<glyph unicode="&#x2022;" horiz-adv-x="1024" d="M150 725q0 76 28.5 141.5t77.5 114.5t114.5 77.5t141.5 28.5t141.5 -28.5t114.5 -77.5t77.5 -114.5t28.5 -141.5t-28.5 -141.5t-77.5 -114.5t-114.5 -78t-141.5 -29t-141.5 29t-114.5 78t-77.5 114.5t-28.5 141.5z" />
<glyph unicode="&#x2026;" horiz-adv-x="1843" d="M133 166q0 76 48 131t126 55q76 0 125 -55t49 -131q0 -78 -49 -131t-125 -53q-78 0 -126 53t-48 131zM748 166q0 76 48 131t126 55q76 0 125 -55t49 -131q0 -78 -49.5 -131t-124.5 -53q-78 0 -126 53t-48 131zM1362 166q0 76 48 131t126 55q76 0 125 -55t49 -131 q0 -78 -49 -131t-125 -53q-78 0 -126 53t-48 131z" />
<glyph unicode="&#x202f;" horiz-adv-x="394" />
<glyph unicode="&#x2030;" horiz-adv-x="1978" d="M59 1104q0 80 19.5 147.5t55.5 117.5t88 78t118 28t118 -28t89 -78t56.5 -117.5t19.5 -147.5t-19.5 -146.5t-56.5 -115.5t-89 -77t-118 -28t-118 28t-88 77t-55.5 115.5t-19.5 146.5zM250 1106q0 -78 21.5 -134.5t68.5 -56.5t70.5 56.5t23.5 134.5q0 82 -23.5 136 t-70.5 54t-68.5 -54t-21.5 -136zM297 12l618 1499l150 -59l-619 -1495zM729 342q0 80 19.5 147.5t55.5 117.5t88 78t118 28t118 -28t88.5 -78t56 -117.5t19.5 -147.5t-19.5 -146.5t-56 -115.5t-89 -77t-117.5 -28q-66 0 -118 28t-88 77t-55.5 115.5t-19.5 146.5zM920 344 q0 -78 21.5 -134t68.5 -56t70.5 56t23.5 134q0 82 -23.5 136.5t-70.5 54.5t-68.5 -54.5t-21.5 -136.5zM1360 342q0 80 19.5 147.5t55 117.5t88 78t117.5 28q66 0 118 -28t89 -78t56.5 -117.5t19.5 -147.5t-19.5 -146.5t-56.5 -115.5t-89 -77t-118 -28t-118 28t-87.5 77 t-55 115.5t-19.5 146.5zM1550 344q0 -78 21.5 -134t68.5 -56t71 56t24 134q0 82 -23.5 136.5t-71.5 54.5q-47 0 -68.5 -54.5t-21.5 -136.5z" />
<glyph unicode="&#x2039;" horiz-adv-x="534" d="M74 537l223 473l164 -86l-180 -387l180 -387l-164 -87z" />
<glyph unicode="&#x203a;" horiz-adv-x="534" d="M74 150l180 387l-180 387l164 86l223 -473l-223 -474z" />
<glyph unicode="&#x2044;" horiz-adv-x="204" d="M-246 10l553 1499l162 -53l-555 -1495z" />
<glyph unicode="&#x205f;" horiz-adv-x="493" />
<glyph unicode="&#x20ac;" horiz-adv-x="1083" d="M47 457l49 202h92q-2 16 -2 34v34v32.5t2 37.5h-137l49 202h111q57 246 207.5 368t369.5 122q66 0 136.5 -13.5t115.5 -31.5l-67 -256q-33 14 -80 22.5t-92 8.5q-94 0 -161 -55.5t-93 -164.5h397l-53 -202h-389q-4 -18 -4 -36v-34v-33.5t2 -34.5h370l-47 -202h-291 q23 -102 92.5 -157.5t161.5 -55.5q57 0 106.5 13t80.5 30l37 -273q-31 -16 -98.5 -34.5t-163.5 -18.5q-109 0 -199 35t-158.5 99.5t-116 155.5t-67.5 206h-160z" />
<glyph unicode="&#x2122;" horiz-adv-x="1556" d="M72 1251v199h528v-199h-160v-645h-207v645h-161zM676 606v844h276l125 -549l117 549h279v-844h-191v535h-4l-129 -535h-160l-125 535h-4v-535h-184z" />
<glyph unicode="&#x25fc;" horiz-adv-x="1075" d="M0 0v1075h1075v-1075h-1075z" />
<glyph unicode="&#xf8ff;" horiz-adv-x="1794" d="M213 653q0 180 111 326q119 156 299 156q86 0 145 -25q129 -53 160 -53q55 0 116 24q135 53 185 54q119 0 184 -48q31 -25 123 -131q-86 -39 -137 -121.5t-51 -177.5q0 -113 41 -172q39 -59 91 -105t89 -56q-10 -29 -18.5 -51.5t-16.5 -39.5q-47 -102 -98 -159 q-82 -90 -119 -117q-53 -35 -123 -35q-59 0 -141 35q-78 33 -121 33q-39 0 -154 -45q-61 -23 -98 -23q-100 0 -211 119q-45 47 -90 115q-84 123 -125 236.5t-41 260.5zM891 1128q0 63 29 125q16 35 71 107q49 59 112.5 89t106.5 30q0 -137 -94 -244q-94 -106 -225 -107z" />
<glyph horiz-adv-x="948" d="M123 0v1194h319v-176h86q68 0 137.5 -20.5t126 -66.5t92.5 -121t36 -185q0 -102 -33 -176t-86 -122t-122 -72t-140 -24h-97v-231h-319zM442 492h68q41 0 73.5 30.5t32.5 95.5q0 68 -31.5 99t-74.5 31h-68v-256z" />
<glyph d="M150 537q0 109 22.5 201.5t67.5 164.5t109.5 118t148.5 62v111h131v-109q70 -10 121 -37.5t81 -62.5l-129 -246q-18 29 -44.5 45.5t-59.5 16.5q-59 0 -99 -68.5t-40 -195.5q0 -125 39 -194t106 -69q35 0 60.5 17.5t42.5 46.5l129 -244q-35 -41 -88.5 -69.5t-118.5 -38.5 v-115h-131v117q-86 14 -149.5 59t-108.5 117t-67.5 167t-22.5 206z" />
<glyph horiz-adv-x="655" d="M14 809l191 668h252l188 -668h-209l-28 115h-162l-29 -115h-203zM274 1065h103l-47 231h-4z" />
<glyph horiz-adv-x="794" d="M41 328q0 55 12.5 99t34 80t52 66.5t67.5 61.5q41 35 53 59.5t12 59.5v22h271v-45q0 -98 -36 -157.5t-81 -98.5q-37 -35 -61.5 -64.5t-24.5 -64.5q0 -45 20.5 -67.5t53.5 -22.5q41 0 63.5 37t26.5 96l270 -45q-8 -74 -34.5 -140.5t-72.5 -115.5t-114 -77.5t-156 -28.5 q-160 0 -258 91t-98 255zM217 1051q0 76 51 126t127 50q78 0 128 -50.5t50 -125.5q0 -74 -50 -126.5t-128 -52.5q-76 0 -127 52.5t-51 126.5z" />
<glyph horiz-adv-x="1089" d="M49 332q0 117 50.5 199.5t140.5 134.5q-37 49 -59.5 111.5t-22.5 127.5q0 76 25.5 136.5t69.5 101.5t105.5 62.5t135.5 21.5q70 0 128 -20.5t101 -59.5t66.5 -97.5t23.5 -131.5q0 -55 -18.5 -102.5t-48 -86.5t-68.5 -69.5t-78 -55.5l74 -100l67 143h299l-188 -342 l238 -305h-361l-55 78q-47 -47 -107.5 -79t-152.5 -32q-168 0 -266.5 94.5t-98.5 270.5zM326 358q0 -66 29.5 -99.5t76.5 -33.5q27 0 50.5 13.5t35.5 37.5l-139 199q-23 -16 -38 -49t-15 -68zM426 907q0 -66 47 -131q35 18 62.5 54t27.5 77q0 39 -15 69t-50 30 q-33 0 -52.5 -29t-19.5 -70z" />
<glyph horiz-adv-x="1355" d="M63 895q0 70 17.5 129t51.5 104.5t83 71t115 25.5t116 -25.5t83.5 -71t51 -104.5t17.5 -129q0 -68 -17.5 -128t-51 -104.5t-83.5 -71t-116 -26.5t-115 26.5t-83 71t-51.5 104.5t-17.5 128zM281 897q0 -53 9 -93t40 -40q35 0 45 40t10 93t-10 93t-45 40q-31 0 -40 -40 t-9 -93zM326 18l532 1233l174 -65l-530 -1229zM758 299q0 68 17.5 128t51 105.5t84 71t113.5 25.5q66 0 116 -25.5t85 -71t52 -105.5t17 -128q0 -70 -17 -130t-52 -104.5t-85 -70t-116 -25.5q-63 0 -113.5 25.5t-84 70t-51 104.5t-17.5 130zM971 301q0 -53 10 -94t43 -41 q35 0 45 41t10 94t-10 92t-45 39q-33 0 -43 -39t-10 -92z" />
<glyph d="M92 141l160 228q53 -51 98 -73t88 -22q37 0 62.5 22.5t25.5 63.5q0 27 -12 47.5t-33.5 37t-51.5 30.5t-62 31q-41 18 -80 43.5t-70 63.5t-50.5 90.5t-19.5 123.5q0 78 23 139.5t59.5 106.5t86 74t102.5 41v137h153v-131q82 -8 153 -38t122 -87l-164 -225q-37 47 -74 64.5 t-76 17.5q-35 0 -61.5 -19.5t-26.5 -68.5q0 -39 28 -62.5t99 -58.5q39 -18 83 -45t82 -67t63.5 -96t25.5 -132q0 -152 -76.5 -246t-187.5 -125v-143h-153v137q-96 8 -176 46t-140 95z" />
<glyph horiz-adv-x="581" d="M113 158q0 74 50 126t128 52q76 0 127 -52t51 -126q0 -76 -51 -126t-127 -50q-78 0 -128 50t-50 126zM133 432v762h316v-762h-316z" />
<glyph d="M68 596q0 104 16 216t62.5 204t129 151.5t213.5 59.5q129 0 212 -59.5t129.5 -151.5t63.5 -204t17 -216q0 -102 -17 -214t-63.5 -204t-129.5 -151.5t-212 -59.5q-131 0 -213.5 59.5t-129 151.5t-62.5 204t-16 214zM377 596q0 -53 4 -112.5t15.5 -109.5t34 -83t58.5 -33 q35 0 56.5 33t34 83t16.5 109.5t4 112.5t-4 113.5t-16.5 111.5t-34 85t-56.5 34q-37 0 -59 -34t-33.5 -85t-15.5 -111.5t-4 -113.5z" />
<glyph d="M84 944l352 250h273v-1194h-318v819l-160 -114z" />
<glyph d="M86 817q18 205 123.5 307.5t290.5 102.5q186 0 284.5 -101.5t98.5 -275.5q0 -59 -16.5 -110.5t-44 -97.5t-61.5 -86t-67 -77l-196 -205h364v-274h-760v266l371 402q86 92 86 180q0 47 -19.5 70.5t-54.5 23.5t-61.5 -30.5t-34.5 -118.5z" />
<glyph d="M53 303l289 68q12 -61 43 -96t78 -35t72.5 35.5t25.5 86.5q0 61 -34.5 95.5t-100.5 34.5h-88v239h94q55 0 84 35t29 94q0 41 -20.5 67.5t-61.5 26.5q-35 0 -60.5 -26.5t-37.5 -85.5l-281 67q20 82 59 141.5t91.5 98.5t116 58.5t130.5 19.5q70 0 136.5 -19.5t118.5 -60.5 t84 -103.5t32 -146.5q0 -90 -36 -164t-114 -106v-9q49 -18 83 -46.5t54.5 -65.5t29 -78t8.5 -82q0 -92 -31 -162.5t-85 -119t-128 -73t-158 -24.5q-154 0 -269.5 82t-152.5 254z" />
<glyph d="M53 231v248l344 715h385v-700h121v-263h-121v-231h-290v231h-439zM338 494h158v348h-7z" />
<glyph d="M66 303l278 82q10 -72 42 -107.5t73 -35.5q43 0 70.5 35.5t27.5 105.5q0 78 -37 119t-112 41q-49 0 -119 -16.5t-148 -45.5l29 713h657v-276h-381l-6 -136q16 4 34 5t32 1q86 0 154.5 -29.5t114.5 -82.5t70.5 -126t24.5 -159q0 -106 -31.5 -186t-86 -132.5t-128 -79 t-157.5 -26.5q-80 0 -147.5 23.5t-120 67.5t-86 106.5t-47.5 138.5z" />
<glyph d="M68 408q0 109 31.5 198.5t74.5 167.5l232 420h356l-227 -383h2q12 2 17 2h9q88 0 151.5 -31.5t104.5 -87t61.5 -128t20.5 -154.5q0 -104 -30.5 -186.5t-86 -139.5t-131 -88t-166.5 -31q-92 0 -168.5 30t-132 87t-87 139t-31.5 185zM379 416q0 -80 32.5 -122t73.5 -42 t72 42t31 122t-31 121t-72 41t-73.5 -42t-32.5 -120z" />
<glyph d="M94 918v276h776v-225l-360 -969h-344l364 918h-436z" />
<glyph d="M72 330q0 61 16 111.5t43 87t59.5 61t65.5 39.5v4q-74 33 -117 99.5t-43 164.5q0 63 25.5 122.5t75 105.5t123 74t169.5 28q98 0 172 -28t123.5 -74t74 -105t24.5 -123q0 -98 -43 -164.5t-115 -99.5v-4q33 -16 64.5 -41t58 -62t43 -86t16.5 -110q0 -78 -29.5 -144.5 t-84 -114.5t-131 -76t-173.5 -28q-96 0 -172.5 28t-131 76t-84 114.5t-29.5 144.5zM383 362q0 -59 28.5 -98t77.5 -39q47 0 75 39t28 98q0 63 -27.5 103.5t-75.5 40.5q-47 0 -76.5 -40t-29.5 -104zM397 864q0 -49 24.5 -87t67.5 -38q41 0 66 38t25 87q0 53 -22.5 85 t-68.5 32q-47 0 -69.5 -31.5t-22.5 -85.5z" />
<glyph d="M68 795q0 98 30.5 177t86 136t131 88t165.5 31q92 0 169 -31t132.5 -87t87 -138t31.5 -185q0 -109 -31.5 -198.5t-74.5 -167.5l-232 -420h-356l227 399h-2q-12 -2 -17 -2h-9q-88 0 -152 32t-106 85t-61 126t-19 155zM381 795q0 -80 30.5 -121t71.5 -41t74 42t33 120 q0 80 -33 121.5t-74 41.5t-71.5 -42t-30.5 -121z" />
<glyph horiz-adv-x="1130" d="M78 600q0 137 32.5 253t95 199t153.5 129t206 46t206 -46t153.5 -129t95.5 -199t33 -253t-33 -253t-95.5 -201t-153.5 -132t-206 -47t-206 47t-153.5 132t-95 201t-32.5 253zM406 600q0 -154 43.5 -240t115.5 -86t116 86t44 240t-44 239t-116 85t-115.5 -85t-43.5 -239z " />
<glyph horiz-adv-x="903" d="M72 944l352 250h272v-1194h-317v819l-160 -114z" />
<glyph horiz-adv-x="1054" d="M86 899q51 147 162.5 237.5t275.5 90.5q94 0 173 -25.5t135.5 -75t87 -122t30.5 -166.5t-34.5 -170t-92 -141.5t-133.5 -125t-155 -116.5v-6h417v-279h-831v287q135 98 233.5 171.5t162 133t94 110t30.5 103.5q0 72 -36 107.5t-89 35.5q-45 0 -90 -31.5t-72 -105.5z" />
<glyph horiz-adv-x="997" d="M102 911v285h783v-307q-37 -33 -84 -72t-96.5 -78t-95.5 -74.5t-81 -60.5v-6q10 2 20.5 3t20.5 1q68 0 132.5 -25.5t114.5 -76.5t81 -128t31 -177q0 -141 -50.5 -240.5t-131 -162t-184 -91.5t-208.5 -29q-53 0 -120.5 5.5t-124.5 17.5l30 289q49 -12 97.5 -16.5 t89.5 -4.5q57 0 108 13.5t89 42t59.5 71.5t21.5 103q0 100 -67.5 148t-171.5 48q-41 0 -98.5 -8t-102.5 -25l-47 238q43 31 94 71t105.5 80.5t105.5 81.5t94 76v8h-414z" />
<glyph horiz-adv-x="1128" d="M70 8v303l430 916h323l-444 -944h256v411h295v-411h151v-275h-149v-336h-301v336h-561z" />
<glyph horiz-adv-x="989" d="M102 -309l23 286q43 -6 85 -11t85 -5q63 0 116.5 13.5t92.5 42t60.5 73.5t21.5 109q0 53 -19.5 92t-53.5 63.5t-79 36.5t-96 12q-49 0 -107.5 -8t-113.5 -24l51 825h723v-289h-447l-20 -264q16 4 36.5 6t37.5 2q88 0 163.5 -28.5t131 -84t86 -138.5t30.5 -191 q0 -150 -51 -252t-133 -165.5t-184.5 -91.5t-204.5 -28q-104 0 -234 19z" />
<glyph horiz-adv-x="1105" d="M78 485q0 147 48 287.5t127 271t179 248t207 221.5l283 -153q-49 -43 -101.5 -92t-101.5 -101.5t-92 -106.5t-74 -106l2 -2q10 6 43 10.5t51 4.5q96 0 167 -37t118 -100.5t70.5 -150.5t23.5 -187q0 -125 -35 -222.5t-98.5 -164t-149.5 -101.5t-188 -35q-104 0 -192.5 34 t-151.5 100.5t-99 162.5t-36 219zM393 496q0 -104 45 -172t115 -68q72 0 116 68t44 172q0 106 -42 172.5t-116 66.5q-70 0 -116 -67.5t-46 -171.5z" />
<glyph horiz-adv-x="983" d="M92 907v289h846v-258q-68 -166 -134.5 -339t-128 -338t-116.5 -316.5t-98 -276.5q-78 16 -157 33.5t-154 34.5q43 119 103 276.5t123.5 319.5t124 313.5t105.5 261.5h-514z" />
<glyph horiz-adv-x="1085" d="M70 408q0 74 19.5 132t51 103t72.5 73.5t84 45.5v4q-96 39 -147.5 120t-51.5 197q0 76 28 148t82 127t137 89t194 34t194.5 -34t140 -89t85 -127t28.5 -148q0 -117 -51 -197.5t-145 -119.5v-4q43 -16 83.5 -46t72.5 -74t50.5 -102t18.5 -132q0 -94 -34 -174t-95.5 -138.5 t-149.5 -92.5t-198 -34q-109 0 -196 34t-147.5 92.5t-93 138t-32.5 174.5zM391 426q0 -90 39 -148.5t109 -58.5q72 0 109.5 58.5t37.5 148.5q0 92 -41 150.5t-106 58.5q-66 0 -107 -58.5t-41 -150.5zM406 1061q0 -74 35.5 -131.5t97.5 -57.5q63 0 99 57.5t36 131.5 q0 80 -35 132t-100 52q-66 0 -99.5 -52t-33.5 -132z" />
<glyph horiz-adv-x="1105" d="M78 723q0 125 37 220t101.5 159.5t151.5 97.5t187 33t187 -34t150.5 -98.5t99.5 -159.5t36 -218q0 -150 -48 -292t-129 -275t-185 -254.5t-217 -225.5q-72 39 -141.5 76t-141.5 78q111 94 220.5 210t178.5 226l-2 2q-6 -4 -18.5 -6t-27.5 -4t-30.5 -3t-25.5 -1 q-96 0 -168 37t-120 99.5t-71.5 148.5t-23.5 184zM393 719q0 -106 42 -171t116 -65q70 0 116 65.5t46 170.5q0 104 -45 168.5t-115 64.5q-72 0 -116 -64.5t-44 -168.5z" />
<glyph d="M47 360l53 199h68q-2 16 -2 24.5v14.5v16.5t2 22.5h-119l53 203h91q51 193 182 290t317 97q55 0 122 -12.5t114 -34.5l-68 -252q-41 18 -83 26.5t-81 8.5q-61 0 -109 -31t-69 -92h334l-57 -203h-318q-2 -12 -2 -22.5v-16.5v-14.5t2 -24.5h314l-52 -199h-229 q16 -55 66.5 -86.5t109.5 -31.5q43 0 86 10t90 35l39 -269q-41 -23 -102.5 -37t-141.5 -14q-186 0 -307 106.5t-162 286.5h-141z" />
<glyph d="M102 0v279h129v221h-125v239h125v76q0 68 19.5 140.5t64.5 133t119 99.5t180 39q90 0 161 -26.5t124 -72.5l-154 -237q-27 27 -48 37t-50 10q-57 0 -79.5 -40t-22.5 -105v-54h190v-239h-190v-221h297v-279h-740z" />
<glyph d="M23 1194h331l131 -430h4l125 430h328l-201 -453h121v-213h-225v-88h225v-209h-225v-231h-318v231h-217v209h217v88h-217v213h125z" />
<glyph horiz-adv-x="794" d="M41 864q8 74 34.5 140.5t73 115.5t113 78t156.5 29q160 0 258 -91.5t98 -254.5q0 -55 -12 -99.5t-33.5 -80t-52.5 -66.5t-68 -62q-41 -35 -53 -59.5t-12 -58.5v-23h-271v45q0 98 36 157.5t81 98.5q37 35 61.5 64.5t24.5 64.5q0 45 -20.5 67.5t-53.5 22.5 q-41 0 -63.5 -36.5t-26.5 -96.5zM242 158q0 74 50 126t128 52q76 0 127 -52t51 -126q0 -76 -51 -126t-127 -50q-78 0 -128 50t-50 126z" />
<glyph horiz-adv-x="581" d="M113 1036q0 76 50 126t128 50q76 0 127 -50t51 -126q0 -74 -51 -126t-127 -52q-78 0 -128 52.5t-50 125.5zM133 0v762h316v-762h-316z" />
<glyph horiz-adv-x="972" d="M-4 0l303 1194h381l297 -1194h-320l-47 209h-258l-43 -209h-313zM399 457h160l-74 413h-4z" />
<glyph horiz-adv-x="1026" d="M123 0v1194h412q57 0 124.5 -13.5t125 -48t96.5 -98t39 -164.5q0 -90 -39 -150.5t-105 -94.5v-4q88 -29 132 -98.5t44 -172.5q0 -98 -33.5 -164.5t-88 -108.5t-122 -59.5t-135.5 -17.5h-450zM426 266h111q51 0 84.5 26.5t33.5 82.5q0 66 -38.5 92.5t-84.5 26.5h-106v-228 zM426 731h98q41 0 76 23.5t35 79.5q0 53 -34 73.5t-79 20.5h-96v-197z" />
<glyph horiz-adv-x="921" d="M68 596q0 137 34.5 253t99 200t154.5 131t201 47q127 0 214 -42t134 -102l-178 -231q-47 76 -149 76q-86 0 -138.5 -89t-52.5 -243q0 -150 52.5 -238t138.5 -88q100 0 145 90l186 -223q-57 -72 -138 -121t-214 -49q-111 0 -202 48t-154.5 132t-98 199t-34.5 250z" />
<glyph horiz-adv-x="1075" d="M123 0v1194h364q135 0 233.5 -43t162 -123t94.5 -190.5t31 -245.5q0 -133 -31 -241.5t-94.5 -186.5t-161.5 -121t-234 -43h-364zM451 276h38q39 0 75 18.5t62.5 57.5t43 98.5t16.5 141.5q0 86 -16.5 147.5t-43 101.5t-62.5 58.5t-75 18.5h-38v-642z" />
<glyph horiz-adv-x="851" d="M123 0v1194h631v-276h-320v-177h293v-262h-293v-196h340v-283h-651z" />
<glyph horiz-adv-x="823" d="M123 0v1194h635v-285h-309v-182h284v-270h-284v-457h-326z" />
<glyph horiz-adv-x="1024" d="M68 596q0 137 34.5 253t98 200t153.5 131t201 47q127 0 217 -44t148 -116l-179 -233q-41 53 -78.5 73.5t-87.5 20.5q-92 0 -140 -92.5t-48 -239.5q0 -74 11.5 -135.5t35 -105.5t57 -69.5t78.5 -25.5q47 0 72 12v174h-129v275h414v-647q-68 -51 -155 -79t-200 -28 q-121 0 -214 47t-157.5 132t-98 200t-33.5 250z" />
<glyph horiz-adv-x="1116" d="M123 0v1194h321v-434h228v434h321v-1194h-321v479h-228v-479h-321z" />
<glyph horiz-adv-x="571" d="M123 0v1194h326v-1194h-326z" />
<glyph horiz-adv-x="782" d="M-53 256l268 111q4 -45 23.5 -72t48.5 -27q45 0 56 35t11 100v791h322v-813q0 -94 -21.5 -170t-67.5 -130t-116 -84t-166 -30q-147 0 -237.5 79t-120.5 210z" />
<glyph horiz-adv-x="1036" d="M123 0v1194h317v-467h4l224 467h348l-303 -547l323 -647h-358l-234 528h-4v-528h-317z" />
<glyph horiz-adv-x="778" d="M123 0v1194h328v-903h317v-291h-645z" />
<glyph horiz-adv-x="1431" d="M123 0v1194h424l168 -723h4l145 723h445v-1194h-295l10 760h-6l-199 -760h-221l-192 760h-5l9 -760h-287z" />
<glyph horiz-adv-x="1114" d="M123 0v1194h330l266 -664h6l-8 664h274v-1194h-327l-256 668h-9l11 -668h-287z" />
<glyph horiz-adv-x="1110" d="M68 600q0 137 32.5 253t95 199t153.5 129t206 46t206 -46t153.5 -129t95 -199t32.5 -253t-32.5 -253t-95 -201t-153.5 -132t-206 -47t-206 47t-153.5 132t-95 201t-32.5 253zM395 600q0 -154 44 -240t116 -86t116 86t44 240t-44 239t-116 85t-116 -85t-44 -239z" />
<glyph horiz-adv-x="956" d="M123 0v1194h405q68 0 137.5 -20.5t126 -66.5t92.5 -121t36 -185q0 -102 -33 -176t-86 -122t-122 -71.5t-140 -23.5h-97v-408h-319zM442 668h68q41 0 73.5 30.5t32.5 96.5q0 68 -31.5 98.5t-74.5 30.5h-68v-256z" />
<glyph horiz-adv-x="1110" d="M68 602q0 137 33.5 252t96 198t151.5 129t202 46q115 0 205 -46t151.5 -127t94 -193.5t32.5 -246.5q0 -98 -28.5 -192t-73.5 -152l164 4v-274h-553q-113 0 -201 42t-149.5 121t-93 189.5t-31.5 249.5zM397 602q0 -150 43 -232.5t113 -82.5q74 0 117 85t43 230 q0 152 -45 235t-115 83t-113 -82t-43 -236z" />
<glyph horiz-adv-x="1007" d="M123 0v1194h409q184 0 295 -93t111 -276q0 -61 -15.5 -110t-38 -88t-52 -65.5t-56.5 -41.5l207 -520h-334l-155 457h-58v-457h-313zM436 690h76q47 0 86 27.5t39 93.5q0 37 -11.5 59.5t-28.5 35t-38.5 16.5t-42.5 4h-80v-236z" />
<glyph horiz-adv-x="819" d="M-4 119l168 237q53 -53 101 -75.5t93 -22.5q39 0 66 23.5t27 66.5q0 57 -48.5 87t-117.5 65q-43 18 -84 44.5t-74 66.5t-53.5 95.5t-20.5 131.5q0 102 36 175.5t92.5 121t126 70t138.5 22.5q102 0 190.5 -35t149.5 -102l-172 -236q-39 47 -77.5 66.5t-79.5 19.5 q-37 0 -64.5 -20.5t-27.5 -71.5q0 -41 29.5 -66.5t103.5 -60.5q41 -18 87 -47t86 -71t66.5 -100.5t26.5 -137.5q0 -98 -33 -173t-87 -124.5t-126 -75t-149 -25.5q-113 0 -209.5 43t-163.5 109z" />
<glyph horiz-adv-x="751" d="M-2 924v270h756v-270h-222v-924h-313v924h-221z" />
<glyph horiz-adv-x="1073" d="M106 449v745h326v-719q0 -102 24.5 -152.5t82.5 -50.5q59 0 83.5 50.5t24.5 152.5v719h320v-745q0 -98 -23.5 -185.5t-76 -153t-135.5 -104.5t-200 -39t-197.5 38t-130.5 104.5t-74 153.5t-24 186z" />
<glyph d="M-8 1194h348l158 -817h8l149 817h332l-291 -1194h-411z" />
<glyph horiz-adv-x="1531" d="M12 1194h355l114 -745h4l129 745h301l138 -745h4l110 745h353l-263 -1194h-352l-147 686h-4l-144 -686h-340z" />
<glyph horiz-adv-x="983" d="M-4 0l301 629l-268 565h340l129 -322l133 322h332l-269 -559l293 -635h-346l-149 367l-148 -367h-348z" />
<glyph horiz-adv-x="913" d="M-16 1194h350l125 -446h6l121 446h344l-316 -780v-414h-315v414z" />
<glyph horiz-adv-x="825" d="M45 0v242l350 676h-319v276h696v-238l-348 -671h348v-285h-727z" />
<glyph horiz-adv-x="972" d="M-4 0l303 1194h381l297 -1194h-320l-47 209h-258l-43 -209h-313zM360 1284l185 295h266l-229 -295h-222zM399 457h160l-74 413h-4z" />
<glyph horiz-adv-x="972" d="M-4 0l303 1194h381l297 -1194h-320l-47 209h-258l-43 -209h-313zM129 1284l236 295h243l234 -295h-221l-138 174l-135 -174h-219zM399 457h160l-74 413h-4z" />
<glyph horiz-adv-x="972" d="M-4 0l303 1194h381l297 -1194h-320l-47 209h-258l-43 -209h-313zM145 1462q0 70 42 119t110 49q66 0 109 -49t43 -119q0 -72 -43.5 -120t-108.5 -48q-68 0 -110 48.5t-42 119.5zM399 457h160l-74 413h-4zM522 1462q0 70 42 119t110 49q66 0 108.5 -49t42.5 -119 q0 -72 -43 -120t-108 -48q-68 0 -110 48.5t-42 119.5z" />
<glyph horiz-adv-x="972" d="M-4 0l303 1194h381l297 -1194h-320l-47 209h-258l-43 -209h-313zM279 1470q0 96 55 160t149 64t151.5 -64t57.5 -160t-57 -159.5t-152 -63.5q-94 0 -149 63.5t-55 159.5zM377 1470q0 -53 26.5 -93t79.5 -40t82 40t29 93t-28.5 93.5t-82.5 40.5q-53 0 -79.5 -40t-26.5 -94 zM399 457h160l-74 413h-4z" />
<glyph horiz-adv-x="1267" d="M-55 0l411 1194h815v-276h-311v-177h283v-262h-283v-196h330v-283h-633v213h-205l-65 -213h-342zM418 465h139v453h-6z" />
<glyph horiz-adv-x="972" d="M-4 0l303 1194h381l297 -1194h-320l-47 209h-258l-43 -209h-313zM170 1579h266l185 -295h-222zM399 457h160l-74 413h-4z" />
<glyph horiz-adv-x="972" d="M-4 0l303 1194h381l297 -1194h-320l-47 209h-258l-43 -209h-313zM172 1298q6 113 53 185.5t129 72.5q39 0 71 -12t73 -37q45 -27 67.5 -36t48.5 -9q31 0 45.5 21.5t20.5 70.5h117q-4 -119 -52.5 -188.5t-130.5 -69.5q-66 0 -141 47q-45 29 -66.5 37.5t-48.5 8.5 q-57 0 -67 -91h-119zM399 457h160l-74 413h-4z" />
<glyph horiz-adv-x="921" d="M68 596q0 137 34.5 253t99 200t154.5 131t201 47q127 0 214 -42t134 -102l-178 -231q-47 76 -149 76q-86 0 -138.5 -89t-52.5 -243q0 -150 52.5 -238t138.5 -88q100 0 145 90l186 -223q-51 -66 -120.5 -111.5t-178.5 -56.5l-71 -94q12 4 23 4h24q31 0 62.5 -7t58 -25.5 t44 -50.5t17.5 -81q0 -59 -27.5 -98t-69.5 -61.5t-91.5 -30.5t-90.5 -8q-53 0 -115.5 11t-109.5 34l49 127q35 -16 79 -25.5t79 -9.5t66.5 13.5t31.5 51.5q0 33 -28.5 44.5t-57.5 11.5q-20 0 -45.5 -5.5t-44.5 -13.5l-63 58l119 168q-88 20 -159 74.5t-120 135t-75.5 184 t-26.5 220.5z" />
<glyph horiz-adv-x="851" d="M121 1579h266l184 -295h-221zM123 0v1194h631v-276h-320v-177h293v-262h-293v-196h340v-283h-651z" />
<glyph horiz-adv-x="851" d="M82 1284l235 295h244l234 -295h-222l-137 174l-135 -174h-219zM123 0v1194h631v-276h-320v-177h293v-262h-293v-196h340v-283h-651z" />
<glyph horiz-adv-x="851" d="M106 1462q0 70 42 119t110 49q66 0 109 -49t43 -119q0 -72 -43 -120t-109 -48q-68 0 -110 48.5t-42 119.5zM123 0v1194h631v-276h-320v-177h293v-262h-293v-196h340v-283h-651zM483 1462q0 70 42 119t110 49q66 0 108.5 -49t42.5 -119q0 -72 -43 -120t-108 -48 q-68 0 -110 48.5t-42 119.5z" />
<glyph horiz-adv-x="851" d="M123 0v1194h631v-276h-320v-177h293v-262h-293v-196h340v-283h-651zM324 1284l184 295h266l-229 -295h-221z" />
<glyph horiz-adv-x="571" d="M123 0v1194h326v-1194h-326zM168 1284l184 295h266l-229 -295h-221z" />
<glyph horiz-adv-x="571" d="M104 1481q0 39 13.5 72.5t36 59t55.5 41t72 15.5t71.5 -15.5t55 -41t36 -59t13.5 -72.5q0 -78 -49.5 -132.5t-126.5 -54.5q-78 0 -127.5 54.5t-49.5 132.5zM123 0v1194h326v-1194h-326z" />
<glyph horiz-adv-x="571" d="M-70 1284l236 295h244l233 -295h-221l-137 174l-135 -174h-220zM123 0v1194h326v-1194h-326z" />
<glyph horiz-adv-x="571" d="M-53 1462q0 70 42 119t109 49q66 0 109 -49t43 -119q0 -72 -43 -120t-109 -48q-68 0 -109.5 48.5t-41.5 119.5zM123 0v1194h326v-1194h-326zM324 1462q0 70 42 119t109 49q66 0 109 -49t43 -119q0 -72 -43 -120t-109 -48q-68 0 -109.5 48.5t-41.5 119.5z" />
<glyph horiz-adv-x="571" d="M-45 1579h266l185 -295h-222zM123 0v1194h326v-1194h-326z" />
<glyph horiz-adv-x="1114" d="M123 0v1194h330l266 -664h6l-8 664h274v-1194h-327l-256 668h-9l11 -668h-287zM246 1298q6 113 53 185.5t129 72.5q39 0 70.5 -12t72.5 -37q45 -27 68 -36t49 -9q31 0 45.5 21.5t20.5 70.5h116q-4 -119 -52 -188.5t-130 -69.5q-66 0 -141 47q-45 29 -66.5 37.5t-48.5 8.5 q-57 0 -67 -91h-119z" />
<glyph horiz-adv-x="1110" d="M68 600q0 137 32.5 253t95 199t153.5 129t206 46t206 -46t153.5 -129t95 -199t32.5 -253t-32.5 -253t-95 -201t-153.5 -132t-206 -47t-206 47t-153.5 132t-95 201t-32.5 253zM244 1579h266l184 -295h-221zM395 600q0 -154 44 -240t116 -86t116 86t44 240t-44 239t-116 85 t-116 -85t-44 -239z" />
<glyph horiz-adv-x="1110" d="M68 600q0 137 32.5 253t95 199t153.5 129t206 46t206 -46t153.5 -129t95 -199t32.5 -253t-32.5 -253t-95 -201t-153.5 -132t-206 -47t-206 47t-153.5 132t-95 201t-32.5 253zM395 600q0 -154 44 -240t116 -86t116 86t44 240t-44 239t-116 85t-116 -85t-44 -239zM428 1284 l184 295h267l-230 -295h-221z" />
<glyph horiz-adv-x="1110" d="M68 600q0 137 32.5 253t95 199t153.5 129t206 46t206 -46t153.5 -129t95 -199t32.5 -253t-32.5 -253t-95 -201t-153.5 -132t-206 -47t-206 47t-153.5 132t-95 201t-32.5 253zM199 1284l235 295h244l233 -295h-221l-137 174l-135 -174h-219zM395 600q0 -154 44 -240 t116 -86t116 86t44 240t-44 239t-116 85t-116 -85t-44 -239z" />
<glyph horiz-adv-x="1110" d="M68 600q0 137 32.5 253t95 199t153.5 129t206 46q119 0 215 -51l66 137l145 -70l-84 -170q72 -86 108.5 -205.5t36.5 -267.5q0 -137 -32.5 -253t-95 -201t-153.5 -132t-206 -47q-61 0 -114.5 13.5t-100.5 37.5l-55 -124l-148 71l76 158q-72 86 -108.5 208t-36.5 269z M375 600q0 -88 16 -164l238 490q-35 25 -74 24q-82 0 -131 -92t-49 -258zM479 272q33 -24 76 -24q82 0 131 93t49 259q0 86 -16 158z" />
<glyph horiz-adv-x="1110" d="M68 600q0 137 32.5 253t95 199t153.5 129t206 46t206 -46t153.5 -129t95 -199t32.5 -253t-32.5 -253t-95 -201t-153.5 -132t-206 -47t-206 47t-153.5 132t-95 201t-32.5 253zM215 1462q0 70 42 119t110 49q66 0 108.5 -49t42.5 -119q0 -72 -43 -120t-108 -48 q-68 0 -110 48.5t-42 119.5zM395 600q0 -154 44 -240t116 -86t116 86t44 240t-44 239t-116 85t-116 -85t-44 -239zM592 1462q0 70 42 119t109 49q66 0 109 -49t43 -119q0 -72 -43 -120t-109 -48q-68 0 -109.5 48.5t-41.5 119.5z" />
<glyph horiz-adv-x="1110" d="M68 600q0 137 32.5 253t95 199t153.5 129t206 46t206 -46t153.5 -129t95 -199t32.5 -253t-32.5 -253t-95 -201t-153.5 -132t-206 -47t-206 47t-153.5 132t-95 201t-32.5 253zM242 1298q6 113 53 185.5t129 72.5q39 0 70.5 -12t72.5 -37q45 -27 67.5 -36t49.5 -9 q31 0 45 21.5t21 70.5h116q-4 -119 -52 -188.5t-130 -69.5q-66 0 -141 47q-45 29 -66.5 37.5t-48.5 8.5q-57 0 -68 -91h-118zM395 600q0 -154 44 -240t116 -86t116 86t44 240t-44 239t-116 85t-116 -85t-44 -239z" />
<glyph horiz-adv-x="1638" d="M-4 119l168 237q53 -53 101 -75.5t93 -22.5q39 0 66 23.5t27 66.5q0 57 -48.5 87t-117.5 65q-43 18 -84 44.5t-74 66.5t-53.5 95.5t-20.5 131.5q0 102 36 175.5t92.5 121t126 70t138.5 22.5q102 0 190.5 -35t149.5 -102l-172 -236q-39 47 -77.5 66.5t-79.5 19.5 q-37 0 -64.5 -20.5t-27.5 -71.5q0 -41 29.5 -66.5t103.5 -60.5q41 -18 87 -47t86 -71t66.5 -100.5t26.5 -137.5q0 -98 -33 -173t-87 -124.5t-126 -75t-149 -25.5q-113 0 -209.5 43t-163.5 109zM815 119l168 237q53 -53 101.5 -75.5t93.5 -22.5q39 0 65.5 23.5t26.5 66.5 q0 57 -48 87t-118 65q-43 18 -84 44.5t-74 66.5t-53.5 95.5t-20.5 131.5q0 102 36 175.5t92.5 121t126 70t139.5 22.5q102 0 190 -35t150 -102l-172 -236q-39 47 -78 66.5t-80 19.5q-37 0 -64.5 -20.5t-27.5 -71.5q0 -41 29.5 -66.5t103.5 -60.5q41 -18 87 -47t86 -71 t66.5 -100.5t26.5 -137.5q0 -98 -32.5 -173t-87 -124.5t-126 -75t-149.5 -25.5q-113 0 -209 43t-164 109z" />
<glyph horiz-adv-x="1073" d="M106 449v745h326v-719q0 -102 24.5 -152.5t82.5 -50.5q59 0 83.5 50.5t24.5 152.5v719h320v-745q0 -98 -23.5 -185.5t-76 -153t-135.5 -104.5t-200 -39t-197.5 38t-130.5 104.5t-74 153.5t-24 186zM422 1284l184 295h266l-229 -295h-221z" />
<glyph horiz-adv-x="1073" d="M106 449v745h326v-719q0 -102 24.5 -152.5t82.5 -50.5q59 0 83.5 50.5t24.5 152.5v719h320v-745q0 -98 -23.5 -185.5t-76 -153t-135.5 -104.5t-200 -39t-197.5 38t-130.5 104.5t-74 153.5t-24 186zM209 1579h266l184 -295h-221z" />
<glyph horiz-adv-x="1073" d="M106 449v745h326v-719q0 -102 24.5 -152.5t82.5 -50.5q59 0 83.5 50.5t24.5 152.5v719h320v-745q0 -98 -23.5 -185.5t-76 -153t-135.5 -104.5t-200 -39t-197.5 38t-130.5 104.5t-74 153.5t-24 186zM182 1284l236 295h244l233 -295h-221l-137 174l-136 -174h-219z" />
<glyph horiz-adv-x="1073" d="M106 449v745h326v-719q0 -102 24.5 -152.5t82.5 -50.5q59 0 83.5 50.5t24.5 152.5v719h320v-745q0 -98 -23.5 -185.5t-76 -153t-135.5 -104.5t-200 -39t-197.5 38t-130.5 104.5t-74 153.5t-24 186zM201 1462q0 70 42 119t109 49q66 0 109 -49t43 -119q0 -72 -43 -120 t-109 -48q-68 0 -109.5 48.5t-41.5 119.5zM578 1462q0 70 42 119t109 49q66 0 109 -49t43 -119q0 -72 -43 -120t-109 -48q-68 0 -109.5 48.5t-41.5 119.5z" />
<glyph horiz-adv-x="913" d="M-16 1194h350l125 -446h6l121 446h344l-316 -780v-414h-315v414zM338 1284l184 295h266l-229 -295h-221z" />
<glyph horiz-adv-x="913" d="M-16 1194h350l125 -446h6l121 446h344l-316 -780v-414h-315v414zM123 1462q0 70 42 119t109 49q66 0 109 -49t43 -119q0 -72 -43 -120t-109 -48q-68 0 -109.5 48.5t-41.5 119.5zM500 1462q0 70 42 119t109 49q66 0 109 -49t43 -119q0 -72 -43 -120t-109 -48 q-68 0 -109.5 48.5t-41.5 119.5z" />
<glyph horiz-adv-x="1312" d="M68 600q0 133 30.5 242.5t94 187.5t162 121t233.5 43h629v-276h-312v-177h285v-262h-285v-196h330v-283h-647q-135 0 -233.5 43t-162 122t-94 189.5t-30.5 245.5zM391 600q0 -170 58.5 -247t136.5 -77h12v642h-12q-78 0 -136.5 -77t-58.5 -241z" />
<glyph horiz-adv-x="1075" d="M29 512v205h94v477h364q135 0 233.5 -43t162 -123t94.5 -190.5t31 -245.5q0 -133 -31 -241.5t-94.5 -186.5t-161.5 -121t-234 -43h-364v512h-94zM451 276h38q39 0 75 18.5t62.5 57.5t43 98.5t16.5 141.5q0 86 -16.5 147.5t-43 101.5t-62.5 58.5t-75 18.5h-38v-201h147 v-205h-147v-236z" />
</font>
</defs>
</svg>
