<?xml version="1.0" encoding="UTF-8"?>
<svg width="60px" height="60px" viewBox="0 0 60 60" version="1.1" xmlns="http://www.w3.org/2000/svg" xmlns:xlink="http://www.w3.org/1999/xlink">
    <title>编组 2</title>
    <defs>
        <linearGradient x1="50%" y1="0%" x2="50%" y2="98.3375389%" id="linearGradient-1">
            <stop stop-color="#8787E3" offset="0%"></stop>
            <stop stop-color="#A95AF0" offset="100%"></stop>
        </linearGradient>
    </defs>
    <g id="PC端" stroke="none" stroke-width="1" fill="none" fill-rule="evenodd">
        <g id="行业_详情" transform="translate(-128.000000, -1493.000000)" fill="url(#linearGradient-1)">
            <g id="编组-5" transform="translate(128.000000, 1478.000000)">
                <g id="形状结合" transform="translate(0.000000, 15.000000)">
                    <path d="M50,0 C54.418278,0 58,3.581722 58,8 L58,52 C58,56.418278 54.418278,60 50,60 L10,60 C5.581722,60 2,56.418278 2,52 L2,8 C2,3.581722 5.581722,0 10,0 L50,0 Z M50,3 L10,3 C7.23857625,3 5,5.23857625 5,8 L5,52 C5,54.7614237 7.23857625,57 10,57 L50,57 C52.7614237,57 55,54.7614237 55,52 L55,8 C55,5.23857625 52.7614237,3 50,3 Z M19,32 C22.8659932,32 26,35.1340068 26,39 C26,42.8659932 22.8659932,46 19,46 C15.1340068,46 12,42.8659932 12,39 C12,35.1340068 15.1340068,32 19,32 Z M19,35 C16.790861,35 15,36.790861 15,39 C15,41.209139 16.790861,43 19,43 C21.209139,43 23,41.209139 23,39 C23,36.790861 21.209139,35 19,35 Z M49.5,37 C50.3284271,37 51,37.6715729 51,38.5 C51,39.3284271 50.3284271,40 49.5,40 L31,40 C30.1715729,40 29.5,39.3284271 29.5,38.5 C29.5,37.6715729 30.1715729,37 31,37 L49.5,37 Z M27.088929,15.968383 C27.6586753,16.5697819 27.6330159,17.5191827 27.031617,18.088929 L17.531617,27.088929 C16.9183984,27.6698729 15.9466305,27.6301273 15.3829023,27.0010459 L10.8829023,21.9793585 C10.33004,21.3624025 10.3819981,20.4140773 10.9989541,19.8612149 C11.6159101,19.3083526 12.5642353,19.3603107 13.1170977,19.9772667 L16.588,23.85 L24.968383,15.911071 C25.5697819,15.3413247 26.5191827,15.3669841 27.088929,15.968383 Z M49.5,20 C50.3284271,20 51,20.6715729 51,21.5 C51,22.3284271 50.3284271,23 49.5,23 L31,23 C30.1715729,23 29.5,22.3284271 29.5,21.5 C29.5,20.6715729 30.1715729,20 31,20 L49.5,20 Z"></path>
                </g>
            </g>
        </g>
    </g>
</svg>