<?xml version="1.0" encoding="UTF-8"?>
<svg width="60px" height="60px" viewBox="0 0 60 60" version="1.1" xmlns="http://www.w3.org/2000/svg" xmlns:xlink="http://www.w3.org/1999/xlink">
    <title>xitongzujian</title>
    <defs>
        <polygon id="path-1" points="0 0 60 0 60 60 0 60"></polygon>
        <linearGradient x1="50%" y1="0%" x2="50%" y2="98.3375389%" id="linearGradient-3">
            <stop stop-color="#8787E3" offset="0%"></stop>
            <stop stop-color="#A95AF0" offset="100%"></stop>
        </linearGradient>
        <linearGradient x1="50%" y1="0%" x2="50%" y2="98.3375389%" id="linearGradient-4">
            <stop stop-color="#8787E3" offset="0%"></stop>
            <stop stop-color="#A95AF0" offset="100%"></stop>
        </linearGradient>
    </defs>
    <g id="PC端" stroke="none" stroke-width="1" fill="none" fill-rule="evenodd">
        <g id="行业_详情" transform="translate(-128.000000, -795.000000)">
            <g id="编组-4" transform="translate(128.000000, 780.000000)">
                <g id="xitongzujian" transform="translate(0.000000, 15.000000)">
                    <mask id="mask-2" fill="white">
                        <use xlink:href="#path-1"></use>
                    </mask>
                    <g id="Clip-2"></g>
                    <path d="M38,4 L38,7 L8,7 C5.23857625,7 3,9.23857625 3,12 L3,48 C3,50.7614237 5.23857625,53 8,53 L52,53 C54.7614237,53 57,50.7614237 57,48 L57,12 C57,9.94988702 55.7661528,8.18795449 54.0005324,7.41627634 L54.0003581,4.25212715 C57.4506308,5.14033727 60,8.2724501 60,12 L60,48 C60,52.418278 56.418278,56 52,56 L8,56 C3.581722,56 0,52.418278 0,48 L0,12 C0,7.581722 3.581722,4 8,4 L38,4 Z M30.5,40 C31.3284271,40 32,40.6715729 32,41.5 C32,42.3284271 31.3284271,43 30.5,43 L9.5,43 C8.67157288,43 8,42.3284271 8,41.5 C8,40.6715729 8.67157288,40 9.5,40 L30.5,40 Z M40.5,34 C41.3284271,34 42,34.6715729 42,35.5 C42,36.3284271 41.3284271,37 40.5,37 L9.5,37 C8.67157288,37 8,36.3284271 8,35.5 C8,34.6715729 8.67157288,34 9.5,34 L40.5,34 Z M40.5,28 C41.3284271,28 42,28.6715729 42,29.5 C42,30.3284271 41.3284271,31 40.5,31 L9.5,31 C8.67157288,31 8,30.3284271 8,29.5 C8,28.6715729 8.67157288,28 9.5,28 L40.5,28 Z" id="形状结合" fill="url(#linearGradient-3)" mask="url(#mask-2)"></path>
                    <path d="M50,1 C51.1045695,1 52,1.8954305 52,3 L52,19.1112523 C52,20.2158218 51.1045695,21.1112523 50,21.1112523 C49.5828154,21.1112523 49.1760736,20.9807946 48.8367169,20.7381427 L45.0073328,18 L41.1616705,20.7440272 C40.2625275,21.3856 39.0135306,21.1767983 38.3719577,20.2776553 C38.1300353,19.9386092 38,19.5324927 38,19.1159849 L38,3 C38,1.8954305 38.8954305,1 40,1 L50,1 Z M49,4 L41,4 L41,17.173 L43.2648271,15.5579366 L45.0091594,14.3132887 L46.7522575,15.5596644 L49,17.166 L49,4 Z" id="矩形" fill="url(#linearGradient-4)" mask="url(#mask-2)"></path>
                </g>
            </g>
        </g>
    </g>
</svg>