<?xml version="1.0" encoding="UTF-8"?>
<svg width="60px" height="60px" viewBox="0 0 60 60" version="1.1" xmlns="http://www.w3.org/2000/svg" xmlns:xlink="http://www.w3.org/1999/xlink">
    <title>缩略图10</title>
    <defs>
        <linearGradient x1="50%" y1="0%" x2="50%" y2="98.3375389%" id="linearGradient-1">
            <stop stop-color="#8787E3" offset="0%"></stop>
            <stop stop-color="#A95AF0" offset="100%"></stop>
        </linearGradient>
    </defs>
    <g id="PC端" stroke="none" stroke-width="1" fill="none" fill-rule="evenodd">
        <g id="行业_详情" transform="translate(-418, -2084)">
            <g id="编组-3备份" transform="translate(418, 2069)">
                <g id="编组-7" transform="translate(0, 15)">
                    <g id="编组-8" transform="translate(0.994, 1.2624)">
                        <path d="M13.4388371,7.73826183 L42.6101423,7.81248445 C43.1983107,7.81398097 43.7560027,8.07430062 44.1348672,8.52419611 L57.5427951,24.4458914 C58.2080063,25.2358187 58.1624163,26.4023208 57.4375835,27.1379215 L29.0942084,55.9023589 C28.4775156,56.5282131 27.4702323,56.5356399 26.844378,55.9189472 L26.8146539,55.8888691 L26.7857396,55.8580116 C18.0313421,46.2628049 9.27694464,36.6675981 0.522547158,27.0723914 C-0.113478352,26.3752793 -0.175699389,25.3284477 0.373270572,24.5609025 L11.8070068,8.57476404 C12.1835463,8.04830341 12.7915813,7.73661498 13.4388371,7.73826183 Z M37.2337184,26.7692614 L19.709681,26.7692001 C20.0227523,27.6561347 20.5141332,29.0480573 21.3804479,31.5020452 L21.5024609,31.8476685 C24.1385317,39.3148001 24.4282197,40.1353922 27.7420297,49.5223389 C29.7515729,44.7061907 30.8250966,42.1326352 31.806603,39.7796722 L31.9608517,39.4098922 L32.1143094,39.0420083 C32.1398607,38.9807542 32.1654097,38.9195056 32.1909719,38.8582256 L32.3446245,38.4898746 L32.4217987,38.3048649 L32.6079577,37.8585864 C33.2957993,36.2096256 34.0499496,34.4017029 35.1497521,31.7651489 L35.2912051,31.4260439 C35.3352952,31.3203468 35.3785643,31.2166179 35.4210309,31.1148128 L35.6663482,30.5267143 C36.4354412,28.6829696 36.9118079,27.5409767 37.2337184,26.7692614 Z M53.3160367,26.7706384 L40.6768945,26.76929 C40.3471731,27.5597303 39.8146125,28.8364364 38.0844447,32.9841636 C36.9846422,35.6207176 36.2304918,37.4286403 35.5426503,39.0776011 L35.3564913,39.5238796 L35.2024054,39.8932693 C35.1511982,40.0160284 35.1001046,40.1385149 35.049002,40.261023 L34.8955443,40.6289069 L34.7412956,40.9986869 C33.8809987,43.0610746 32.9500083,45.2929356 31.3802746,49.0560543 L53.143277,26.9705893 C53.2059484,26.9069865 53.2635417,26.8401622 53.3160367,26.7706384 Z M16.3394011,26.7692691 L4.54866261,26.7709812 C4.56544314,26.790872 4.58266722,26.8105064 4.60033406,26.829871 L23.783697,47.8565398 C22.582353,44.4535227 21.8554788,42.3945244 21.1463859,40.3858947 L20.9482089,39.8245237 L20.7876021,39.3695769 C20.1688481,37.6168479 19.5059637,35.7391119 18.5042717,32.9016441 C17.0898674,28.8950962 16.6211773,27.5674495 16.3394011,26.7692691 Z M15.0727502,10.9133448 C14.425493,10.9116834 13.8174498,11.2233596 13.4408988,11.7498137 L4.967,23.5972553 L16.3797322,23.6003127 C16.3906947,23.5723938 16.4020358,23.5435106 16.4137719,23.5136216 C16.8713063,22.3483883 16.8713063,22.3483883 17.4953068,20.7592047 C17.8430037,19.8737021 18.0342369,19.3866756 18.2165025,18.9224878 L18.3383029,18.6122905 C18.5238666,18.1397032 18.7332395,17.6064794 19.1139174,16.6369817 C19.7005766,15.1428976 19.9939063,14.3958555 20.2627918,13.7110669 L20.3861362,13.3969375 C20.6126756,12.8199946 20.8513313,12.2121941 21.2650013,11.1586732 C21.2962572,11.0790718 21.3262642,11.0026511 21.3550846,10.9292523 L15.0727502,10.9133448 Z M24.2246996,12.3159217 C23.2469342,14.8060619 23.2469342,14.8060619 22.0736157,17.7942301 C21.2276647,19.9486695 21.2276647,19.9486695 20.4550051,21.9164531 C20.0984334,22.824558 19.9456169,23.2137459 19.7947533,23.5979603 L37.2875006,23.599939 C37.2494724,23.5030902 37.2069857,23.3948865 37.1589452,23.2725386 L36.9332685,22.6977925 C36.2061838,20.8460778 36.0923461,20.5561596 35.1431652,18.1388177 L35.0078613,17.7942301 C33.8345427,14.8060619 33.8345427,14.8060619 32.8567773,12.3159217 C32.6127,11.6943137 32.4447832,11.2666689 32.3233211,10.9573333 L24.7657782,10.9379209 C24.6437418,11.2487191 24.473924,11.6812054 24.2246996,12.3159217 Z M40.700069,23.596045 L52.675,23.5972553 L42.6499141,11.6919856 C42.2710597,11.242068 41.7133649,10.9817268 41.1251861,10.980217 L35.74,10.9662553 L35.8164756,11.1586732 C36.7566347,13.5530388 36.7927946,13.6451298 37.8372613,16.3051425 L38.0978578,16.9688209 C39.1423245,19.6288336 39.1784844,19.7209246 40.1186435,22.1152902 C40.4233804,22.8913839 40.5046436,23.0983422 40.6419943,23.4481423 L40.700069,23.596045 Z" id="形状结合" fill="url(#linearGradient-1)"></path>
                        <path d="M45.9306283,6.64306459 C45.9306283,6.64306459 47.6094735,6.29140387 50.9671638,5.58808243 C51.801872,1.86269414 52.2192261,0 52.2192261,0 C52.2192261,0 52.6846842,1.86269414 53.6156006,5.58808243 L59.0129889,6.64306459 C55.41473,7.33688028 53.6156006,7.68378813 53.6156006,7.68378813 C53.6156006,7.68378813 52.2192261,12.6864684 52.2192261,12.6864684 C52.2192261,12.6864684 51.801872,11.0189083 50.9671638,7.68378813 C47.6094735,6.98997244 45.9306283,6.64306459 45.9306283,6.64306459 Z" id="路径-5" fill="#8B83E5"></path>
                    </g>
                </g>
            </g>
        </g>
    </g>
</svg>