<?xml version="1.0" encoding="UTF-8"?>
<svg width="60px" height="60px" viewBox="0 0 60 60" version="1.1" xmlns="http://www.w3.org/2000/svg" xmlns:xlink="http://www.w3.org/1999/xlink">
    <title>缩略图10</title>
    <defs>
        <linearGradient x1="50%" y1="0%" x2="50%" y2="98.3375389%" id="linearGradient-1">
            <stop stop-color="#8787E3" offset="0%"></stop>
            <stop stop-color="#A95AF0" offset="100%"></stop>
        </linearGradient>
    </defs>
    <g id="PC端" stroke="none" stroke-width="1" fill="none" fill-rule="evenodd">
        <g id="行业_详情" transform="translate(-128.000000, -1144.000000)" fill="url(#linearGradient-1)">
            <g id="编组-3" transform="translate(128.000000, 1129.000000)">
                <g id="编组-7" transform="translate(0.000000, 15.000000)">
                    <path d="M12.3929336,20.5603392 L12.3739067,20.425588 C12.2996231,19.8868964 12.2391926,19.288281 12.2019301,18.6441247 C12.1866246,18.3795374 12.1755724,18.1148834 12.1690077,17.850494 C11.0610738,17.4184749 9.93032861,16.7005143 8.78836494,15.6972706 L10.1083713,14.194745 C10.8393186,14.8369005 11.5422549,15.3352737 12.2222801,15.689636 C12.2850447,14.8463672 12.402831,14.015712 12.5822798,13.2085682 C13.7126025,8.12448419 17.033441,5 23,5 C28.966559,5 32.2873975,8.12448419 33.4177202,13.2085682 C33.8045857,14.9486526 33.9048619,16.7980118 33.7980699,18.6441247 C33.7608074,19.288281 33.7003769,19.8868964 33.6260933,20.425588 C33.6131979,20.5191036 33.6006884,20.6053128 33.5887794,20.6838766 L33.6906049,20.7920712 C34.4921258,21.6570347 34.9416306,22.4743854 34.9946877,23.6014568 L35,23.8311065 C35,25.0691878 34.2705626,26.1231989 32.9166593,26.9960338 L32.796,27.0707081 L32.7919712,27.0838532 C30.9526861,32.2096301 27.745524,34.8975708 23.2516321,34.9971291 L22.9909421,35 L22.7368525,34.9970526 C18.2612818,34.8926581 15.0667149,32.221397 13.2267841,27.1359088 L13.2032,27.0707081 L13.0833407,26.9960338 C11.7909785,26.1628732 11.0676027,25.1646327 11.0045114,23.9987951 L11,23.8311065 C11,22.5935535 11.446897,21.7291995 12.2894161,20.8137802 L12.4112,20.6838894 C12.4052661,20.6445947 12.3991615,20.6034015 12.3929336,20.5603392 Z M23.5273681,12.8382545 L23.4695153,12.8556344 C22.5626636,13.1452277 21.7185562,13.7276741 20.9278663,14.6160136 L20.7313013,14.8444787 C18.9819897,17.0460239 17.0558484,18.2091554 15.0214998,18.3329675 C15.0252247,18.4525718 15.030947,18.5738357 15.0377069,18.695118 C15.0676409,19.2321739 15.1161071,19.7304462 15.175345,20.1762911 C15.2103998,20.440125 15.240663,20.6249737 15.2582777,20.7173352 L15.3315681,21.10163 L15.0724939,21.3806989 L15.0082099,21.4499176 L14.8725522,21.5939715 C14.274799,22.2323731 14,22.7313352 14,23.4408558 C14,24.029207 14.4362846,24.6194411 15.4267898,25.2081835 L15.6555465,25.3441532 L15.7422714,25.6071009 C17.1369056,29.8355959 19.4625606,31.9168079 22.7958818,31.9975437 L23,32 C26.4450082,32 28.8354241,29.9194916 30.2577286,25.6071009 L30.3444535,25.3441532 L30.5732102,25.2081835 C31.5637154,24.6194411 32,24.029207 32,23.4408558 C32,22.7313352 31.725201,22.2323731 31.1288437,21.5954581 L30.9883096,21.4461951 L30.9275061,21.3806989 L30.6684319,21.10163 L30.7417223,20.7173352 C30.759337,20.6249737 30.7896002,20.440125 30.824655,20.1762911 C30.8838929,19.7304462 30.9323591,19.2321739 30.9622931,18.695118 C30.9738899,18.487056 30.9824329,18.279048 30.9877769,18.0713745 L29.4650565,18.3529472 C29.0192556,15.943434 27.4677208,15.2262364 24.2170811,16.1301974 L22.5384639,16.5969992 L22.9821243,14.9121179 L23.5273681,12.8382545 Z M23,8 C18.5262275,8 16.1773452,10.2936538 15.3347065,14.2272316 C15.189913,14.9031518 15.0961553,15.6052724 15.0470992,16.3213718 C16.4873835,16.1763701 17.8435365,15.2641146 19.1796639,13.5827685 C20.7932327,11.6435117 22.7097671,10.6392545 24.878017,10.6392545 L26.1754227,10.6392545 L25.8450533,11.893893 L25.3273681,13.8572545 L25.494198,13.8353982 C28.1510116,13.5189923 30.039051,14.3929863 30.9594207,16.4335286 C30.9135414,15.6790117 30.8176829,14.938611 30.6652935,14.2272316 C29.8226548,10.2936538 27.4737725,8 23,8 Z M36.0305122,39.2207173 L44.7246845,42.6233928 C46.6813895,43.3102005 48,45.2285832 48,47.388491 L48,52.9844249 C48,54.649881 46.709942,56 45.1185749,56 L2.8814251,56 C1.29005796,56 0,54.649881 0,52.9844249 L0,47.3938803 C0,45.2313598 1.3217505,43.3112711 3.28174846,42.6265294 L13.0854053,39.20154 C21.5063701,36.2596056 27.6135265,36.2663371 36.0305122,39.2207173 Z M14.1604489,41.8283462 L4.80081736,44.7960372 C3.67808169,45.152027 2.92095007,46.1502602 2.92095007,47.2745309 L2.92095007,52.1186361 C2.92095007,52.5996652 3.33149304,52.9896164 3.83792346,52.9896164 L44.1620767,52.9896164 C44.6685071,52.9896164 45.0790501,52.5996652 45.0790501,52.1186361 L45.0790501,47.2698612 C45.0790501,46.1469487 44.3237171,45.1496025 43.2028677,44.7925387 L34.9024701,41.8441823 C27.2442788,39.4045476 21.8222606,39.3989889 14.1604489,41.8283462 Z M51.75,5 C56.3063492,5 60,8.78835981 60,13.4615385 L60,13.5065466 C60,18.1797253 56.3063492,21.9680851 51.75,21.9680851 L47.24625,21.9676923 L43.4892858,25 L42.0012873,25 L42.000645,21.6497607 C38.5375579,20.6454731 36,17.3799475 36,13.5065466 L36,13.4615385 C36,8.78835981 39.6936508,5 44.25,5 L51.75,5 Z M51.75,8 L44.25,8 C41.3677419,8 39,10.4284532 39,13.4615385 L39,13.5065466 C39,15.9845207 40.5976443,18.1192917 42.8362124,18.7684715 L45.0002129,19.3960269 L45,19.925 L45.3620523,19.6332118 L46.1867312,18.9675999 L47.2465116,18.9676923 L51.75,18.9680851 C54.6322581,18.9680851 57,16.5396319 57,13.5065466 L57,13.4615385 C57,10.4284532 54.6322581,8 51.75,8 Z" id="形状结合"></path>
                </g>
            </g>
        </g>
    </g>
</svg>