<svg height="100.067" width="47.953" xmlns="http://www.w3.org/2000/svg"><linearGradient id="a" x1="50%" x2="50%" y1="0%" y2="86.247%"><stop offset="0" stop-color="#78DEB1"/><stop offset="1" stop-color="#7A92ED"/></linearGradient><path d="M757.17 153.058c4.065 1.274 7.034 3.633 8.907 7.077 1.712 3.147 1.333 6.988.775 9.51 1.031-2.368 2.982-5.699 6.216-7.238 3.54-1.685 7.33-1.849 11.366-.49-3.448 9.744-9.572 13.218-18.372 10.422l-.154-.05c-8.763-2.91-11.676-9.32-8.738-19.231zm12.793-22.337c3.384 2.588 5.367 5.82 5.95 9.697.532 3.543-1.139 7.022-2.526 9.202 1.78-1.873 4.752-4.336 8.318-4.676 3.903-.373 7.519.77 10.848 3.426-6.573 7.978-13.516 9.148-20.829 3.511l-.128-.1c-7.24-5.732-7.783-12.752-1.633-21.06zM793.632 126c.189 5.034-.833 8.713-3.064 11.04-2.232 2.325-6.015 3.817-11.35 4.476-.232-5.369.971-9.254 3.607-11.656 2.637-2.4 6.239-3.688 10.807-3.86zm4.291 75.594c6.005 8.414 5.339 15.424-2 21.028l-.129.098c-7.41 5.51-14.332 4.218-20.765-3.874 3.375-2.598 7.01-3.677 10.906-3.236 3.56.402 6.489 2.917 8.235 4.82-1.349-2.203-2.958-5.711-2.364-9.244.65-3.866 2.69-7.063 6.117-9.592zm-11.282-13.127c4.452 9.329 2.578 16.116-5.621 20.36l-.144.075c-8.255 4.138-14.848 1.665-19.778-7.42 3.775-1.973 7.543-2.405 11.303-1.294 3.436 1.014 5.883 3.999 7.272 6.177-.945-2.404-1.921-6.139-.722-9.514 1.311-3.695 3.875-6.49 7.69-8.384zm-4.802-14.448c2.24 10.091-1.113 16.283-10.057 18.575l-.157.04c-8.975 2.175-14.841-1.718-17.601-11.68 4.122-1.073 7.89-.645 11.304 1.282 3.119 1.762 4.833 5.22 5.696 7.655-.38-2.555-.491-6.413 1.436-9.433 2.11-3.305 5.236-5.451 9.38-6.44z" fill="url(#a)" fill-rule="evenodd" transform="matrix(-1 0 0 1 801.977 -126)"/></svg>