<svg height="40" viewBox="0 0 41 40" width="41" xmlns="http://www.w3.org/2000/svg"><g fill="none"><path d="m0 0h40v40h-40z" fill="#000" opacity="0"/><path d="m38.4475052 13.8368271c.4172264.3832292.5524948.8523437.5524948 1.4073437v11.6947266c0 .5285677-.1779822 1.1712507-.5524948 1.5374616-.3745126.366211-.9257194.6903077-1.5254792.6903077h-.7040406c-.5997597 0-1.1082528-.3070785-1.5254791-.6903077-.4172264-.3832291-.6258396-1.0088939-.6258396-1.5374616v-11.6947266c0-.555026.2086132-1.0241406.6258395-1.4073437.4172264-.3832031.9257195-.5034938 1.5254792-.5034938h.7040406c.5997598 0 1.1082528.1202646 1.5254792.5034938zm-33.59214583-.5034938c.59975973 0 1.09521285.1202646 1.48635938.5034938s.59161458.8523437.59161458 1.4073437v11.6947266c0 .5285677-.20046805 1.1624722-.59161458 1.5457014s-.88659965.6820679-1.48635937.6820679h-.70407917c-.59975972 0-1.10821424-.2988387-1.52544063-.6820679s-.62583958-1.0171337-.62583958-1.5457014v-11.6947266c0-.555026.20861319-1.0241406.62583958-1.4073437s.92571945-.5034938 1.52547917-.5034938zm21.59127293-9.26857653c.4693861.21145833.9583257.50217448 1.4668187.87214844.5084931.36997396.9974198.80604167 1.4667803 1.30820312.4693604.50216146.8800604 1.05057292 1.2321 1.64523438.3520395.59466146.8312152 1.44895416.9876687 2.10965729h-22.2c.41722639-1.40072917 1.1337674-2.68107096 1.8259115-3.46374512.6921441-.78267415 1.7131385-1.82395905 2.6258052-2.3525528l-1.9948396-3.17148437c-.0521597-.05286458-.0586733-.15195313-.0195406-.29726563.0391326-.1453125.1760326-.29729166.4107-.4559375.2086132-.185.4041864-.27089843.5867198-.25769531.1825333.01320313.299867.04625.352001.09914063l2.0340365 3.25074218c.7301333-.34359375 1.4993864-.60789062 2.3077593-.79289062s1.6428129-.2775 2.5033198-.2775c1.7731993 0 3.4290521.37001302 4.9675584 1.11003906l2.0730791-3.29039062c.0521597-.05286459.1499399-.07929688.2933406-.07929688s.3585403.07929688.6454188.23789063c.2607472.13210937.4106743.25102864.4497812.35675781.039107.10572917.0325934.18502604-.0195406.23789062zm-10.9129958 3.40933594c.3390125 0 .6258524-.11893229.8605198-.35679688.2346673-.23786458.3520138-.52858073.3520395-.87214843.0000257-.34356771-.1173208-.63428386-.3520395-.87214844-.2347188-.23786458-.5215587-.35679688-.8605198-.35679688-.3389612 0-.6258011.1189323-.8605198.35679688-.2347188.23786458-.3520525.52858073-.3520011.87214844.0000514.3435677.1173851.63428385.3520011.87214843.2346159.23786459.5214559.35679688.8605198.35679688zm9.6222354-.15859373c.3389868 0 .6258267-.11891929.8605198-.35675783.234693-.23783855.3520267-.52856771.352001-.8721875-.0000257-.3436198-.1173594-.63433594-.352001-.87214844-.2346417-.2378125-.5214816-.35673177-.8605198-.35675782-.3390382-.00002604-.625891.11889324-.8605584.35675782-.2346673.23786458-.352001.52858073-.352001.87214844 0 .3435677.1173337.63429687.352001.8721875.2346674.23789062.5215202.35680989.8605584.35675783zm6.4441281 22.68450102c0 .5814062-.2965862 1.3554541-.6746799 1.7519124-.3780938.3964584-.7341858.7481397-1.2818115.7480876h-.5101753v5c0 .7301839-.2077636 1.3977051-.4792616 1.8089803-.2714979.4112752-.856762.6910197-1.404362.6910197h-1.4018527c-.5215458 0-.7262695-.2529907-1.1870633-.6910197-.4607937-.438029-.4608309-1.0440107-.4607937-1.8089803v-5h-7.4v5c0 .5285677-.18066 1.412548-.5587538 1.8089803-.3780937.3964323-.7275615.6910197-1.2751872.6910197h-1.4450114c-.5215201 0-.9324273-.3131104-1.2482883-.6910197s-.4061183-1.2804126-.4060926-1.8089803v-5h-.6693604c-.5476 0-.9624079-.3516553-1.34052733-.7480876-.37811944-.3964323-.45677897-1.1704801-.45677897-1.7519124v-17.5h22.2z" fill="#23c07d"/></g></svg>