<svg height="40" viewBox="0 0 40 40" width="40" xmlns="http://www.w3.org/2000/svg"><g fill="none" transform="translate(-2)"><path d="m0 0h40v40h-40z" fill="#000" opacity="0"/><path d="m17.5 1c3.5898509 0 6.5 2.91014913 6.5 6.5 0 .8861219-.1773166 1.73082928-.4984036 2.500576l6.4984036-.000576c1.1045695 0 2 .8954305 2 2l.0004259 6.4979858c.7694778-.320823 1.6138366-.4979858 2.4995741-.4979858 3.5898509 0 6.5 2.9101491 6.5 6.5s-2.9101491 6.5-6.5 6.5c-.8857375 0-1.7300963-.1771628-2.4995741-.4979858l-.0004259 6.4979858c0 1.1045695-.8954305 2-2 2h-25c-1.1045695 0-2-.8954305-2-2l.00047174-7.5994685c.74995233.3832805 1.59949359.5994685 2.49952826.5994685 3.03756612 0 5.5-2.4624339 5.5-5.5s-2.46243388-5.5-5.5-5.5c-.90003467 0-1.74957593.216188-2.49952826.5994685l-.00047174-7.5994685c0-1.1045695.8954305-2 2-2l6.4984036.000576c-.321087-.76974672-.4984036-1.6144541-.4984036-2.500576 0-3.58985087 2.9101491-6.5 6.5-6.5z" fill="#f1b752"/></g></svg>