<svg height="32" viewBox="0 0 32 32" width="32" xmlns="http://www.w3.org/2000/svg"><g fill="none" fill-rule="evenodd"><path d="m27.2712007 4.72879934c3.0361041 3.02267001 4.6078925 6.85138536 4.7287993 11.48614606-.1209068 4.4198153-1.6926952 8.1141898-4.7287993 11.1099916-3.0226701 2.9958019-6.8513854 4.5541562-11.4861461 4.675063-4.4198153-.1209068-8.11418979-1.6792611-11.10999165-4.675063-2.99580186-2.9958018-4.55415617-6.6901763-4.67506295-11.1099916.12090681-4.6213266 1.67926113-8.46347605 4.67506295-11.48614606 2.99580186-3.03610413 6.69017635-4.60789253 11.10999165-4.72879934 4.6347607.12090681 8.463476 1.69269525 11.4861461 4.72879934z" fill="#000" fill-opacity=".1" fill-rule="nonzero"/><g opacity=".5" transform="translate(10 8)"><path d="m5.98905314 12.3573166c.11999439 0 .23788361-.025262.34524701-.0694704.10946856-.0463136.2084113-.1115737.29051272-.1936752l4.17458833-4.17458829c.3515625-.3515625.3515625-.91995696 0-1.27151946-.3515625-.34945734-.91995696-.34945734-1.2694143 0l-2.64202844 2.64202844v-8.38487088c0-.49681886-.40208645-.89890532-.89890532-.89890532-.49681886 0-.89890531.40208646-.89890531.89890532v8.38487088l-2.64202844-2.64202844c-.3515625-.34945734-.91995696-.34945734-1.2694143 0-.17683383.17683383-.26314558.40629678-.26314558.63575973s.08631175.4589259.26314558.63575973l4.17458832 4.17458829c.08420659.0821015.18104416.1473616.29051273.1936752.10946856.0442084.22735778.0694704.345247.0694704z" fill="#000" fill-rule="nonzero"/><path d="m0 16h12" stroke="#000" stroke-linecap="round" stroke-width="2"/></g></g></svg>