<svg xmlns="http://www.w3.org/2000/svg" xmlns:xlink="http://www.w3.org/1999/xlink" fill="none" version="1.1" width="48" height="48" viewBox="0 0 48 48"><g><g><path d="M40.9235,18.6993C40.8478,19.0068,40.6641,19.457,40.4046,20.0001L40.4108,20.0001L40.3799,20.0496C38.8712,23.1945,34.928799999999995,29.3612,34.928799999999995,29.3612C34.928799999999995,29.3612,34.9226,29.3462,34.9072,29.3237L33.7552,31.2742L39.3082,31.2742L28.7025,45L31.1099,35.6629L26.7382,35.6629L28.2562,29.4887C27.0285,29.7768,25.5769,30.1744,23.8567,30.7116C23.8567,30.7116,21.531100000000002,32.0379,17.1547,28.1609C17.1547,28.1609,14.20523,25.6327,15.91623,24.9995C16.64357,24.7309,19.4479,24.3903,21.654600000000002,24.0992C24.6365,23.7091,26.4726,23.4991,26.4726,23.4991C26.4726,23.4991,17.276699999999998,23.6341,15.09625,23.2995C12.91425,22.9664,10.148530000000001,19.424,9.55864,16.3106C9.55864,16.3106,8.64754,14.6016,11.51981,15.4104C14.39208,16.220599999999997,26.278,18.5612,26.278,18.5612C26.278,18.5612,10.81873,13.949,9.79027,12.82365C8.76182,11.69834,6.763581,6.68096,7.0230119,3.597608C7.0230119,3.597608,7.135741,2.829396,7.946461,3.0349529C7.946461,3.0349529,19.3753,8.11835,27.1907,10.900120000000001C35.006,13.6819,41.8006,15.0983,40.9235,18.6993Z" fill="#3695FF" fill-opacity="1"/></g></g></svg>