<svg xmlns="http://www.w3.org/2000/svg" xmlns:xlink="http://www.w3.org/1999/xlink" fill="none" version="1.1" width="60" height="60" viewBox="0 0 60 60"><defs><clipPath id="master_svg0_946_32891"><rect x="0" y="0" width="60" height="60" rx="0"/></clipPath><linearGradient x1="0.8431110978126526" y1="0.1381511092185974" x2="0.13749593496322632" y2="0.8437662720680237" id="master_svg1_946_32846"><stop offset="0%" stop-color="#216BFF" stop-opacity="1"/><stop offset="100%" stop-color="#83ACFF" stop-opacity="1"/></linearGradient></defs><g clip-path="url(#master_svg0_946_32891)"><g><rect x="0" y="0" width="60" height="60" rx="30" fill="url(#master_svg1_946_32846)" fill-opacity="1"/></g><g><path d="M30,16C31.104599999999998,16,32,16.89543,32,18C32,18,32,37.1716,32,37.1716C32,37.1716,38.5858,30.5858,38.5858,30.5858C39.3668,29.8047,40.6332,29.8047,41.4142,30.5858C42.1952,31.366799999999998,42.1952,32.6332,41.4142,33.4142C41.4142,33.4142,31.4142,43.4142,31.4142,43.4142C30.633200000000002,44.1952,29.366799999999998,44.1952,28.5858,43.4142C28.5858,43.4142,18.58578,33.4142,18.58578,33.4142C17.80474,32.6332,17.80474,31.366799999999998,18.58578,30.5858C19.36684,29.8047,20.63316,29.8047,21.41422,30.5858C21.41422,30.5858,28,37.1716,28,37.1716C28,37.1716,28,18,28,18C28,16.89543,28.895400000000002,16,30,16Z" fill-rule="evenodd" fill="#FFFFFF" fill-opacity="1"/></g></g></svg>