<svg xmlns="http://www.w3.org/2000/svg" xmlns:xlink="http://www.w3.org/1999/xlink" fill="none" version="1.1" width="50" height="50" viewBox="0 0 50 50"><g><path d="M25,0C38.807,0,50,11.1929,50,25C50,38.807,38.807,50,25,50C11.1929,50,0,38.807,0,25C0,11.1929,11.1929,0,25,0ZM17.0564,33.3568C16.0701,32.1657,14.8433,31.7393,13.36,32.085L12.9839,32.1875L11.5121,34.7277C10.9476,35.7158,11.2803,36.9757,12.2682,37.5402C13.1737,38.0578,14.308,37.8215,14.9256,37.0175L15.0807,36.7842L17.0564,33.3568ZM28.0243,16.6532C26.8045,17.6613,25.5745,20.6452,27.2985,23.619L34.8993,36.7842C35.4738,37.7723,36.7238,38.1047,37.7118,37.5402C38.6172,37.0135,38.9722,35.9193,38.5902,34.9798L38.4678,34.7277L36.4618,31.25L39.4355,31.25C40.5745,31.25,41.492,30.3327,41.492,29.1935C41.492,28.142,40.7103,27.2795,39.694,27.153L39.4355,27.137L34.0827,27.137L28.6,17.6435L28.0243,16.6532ZM28.7197,9.04235C27.8143,8.52487,26.68,8.76127,26.0623,9.5652L25.9072,9.79838L24.99,11.3811L24.0928,9.79838C23.5182,8.81047,22.2682,8.47783,21.2803,9.04235C20.3748,9.56905,20.0198,10.6633,20.4015,11.603L20.5243,11.8548L22.621,15.494L15.9072,27.127L10.6653,27.127C9.5262,27.127,8.60888,28.0443,8.60888,29.1835C8.60888,30.235,9.3905,31.0975,10.4067,31.224L10.6653,31.24L29.365,31.24C30.2172,29.6405,29.2135,27.368,27.3393,27.1447L27.0362,27.127L20.6553,27.127L29.4757,11.8548C30.0402,10.8669,29.7077,9.60685,28.7197,9.04235Z" fill="#216BFF" fill-opacity="1" style="mix-blend-mode:passthrough"/></g></svg>