<svg height="40" viewBox="0 0 40 40" width="40" xmlns="http://www.w3.org/2000/svg"><g fill="none"><path d="m0 0h40v40h-40z" fill="#000" opacity="0"/><path d="m29.9304348 0h-27.86086958c-1.13898789 0-2.06956522.92363199-2.06956522 2.05411906v33.89176184c0 1.1304871.93057733 2.0541191 2.06956522 2.0541191h27.86086958c1.1389879 0 2.0695652-.923632 2.0695652-2.0541191v-33.89176184c0-1.13048707-.9305773-2.05411906-2.0695652-2.05411906zm-25.9304348 4h24v26h-24zm12 31.9969934c-1.1074919 0-2-.8990228-2-2 0-1.1074919.8990228-2 2-2 1.1074919 0 2 .8990228 2 2s-.8925081 2-2 2z" fill="#00bcfd" transform="translate(4 1)"/></g></svg>