<svg xmlns="http://www.w3.org/2000/svg" xmlns:xlink="http://www.w3.org/1999/xlink" fill="none" version="1.1" width="45.16349411010742" height="55.44284439086914" viewBox="0 0 45.16349411010742 55.44284439086914"><g><path d="M22.9335,15.93C20.7435,15.93,17.3534,13.44,13.7834,13.53C9.07345,13.59,4.75345,16.26,2.32345,20.49C-2.56655,28.9801,1.06345,41.5201,5.83345,48.4201C8.17345,51.7801,10.9334,55.5601,14.5934,55.4401C18.1034,55.2901,19.4235,53.1601,23.6835,53.1601C27.9135,53.1601,29.1135,55.4401,32.8335,55.3501C36.6135,55.2901,39.0135,51.9301,41.3235,48.5401C43.9935,44.6401,45.1035,40.8601,45.1635,40.6501C45.0735,40.6201,37.8135,37.8301,37.7235,29.4301C37.6635,22.41,43.4535,19.05,43.7235,18.9C40.4235,14.07,35.3535,13.53,33.5835,13.41C28.9635,13.05,25.0935,15.93,22.9335,15.93ZM30.7335,8.85001C32.6835,6.51001,33.9735,3.24001,33.6135,0C30.8235,0.12,27.4635,1.86001,25.4535,4.20001C23.6535,6.27001,22.0935,9.60001,22.5135,12.78C25.6035,13.02,28.7835,11.19,30.7335,8.85001Z" fill="#2C2F36" fill-opacity="1" style="mix-blend-mode:passthrough"/></g></svg>