<svg xmlns="http://www.w3.org/2000/svg" xmlns:xlink="http://www.w3.org/1999/xlink" fill="none" version="1.1" width="48" height="48" viewBox="0 0 48 48"><g><g><g><path d="M41,32.5L18.25,32.5L18.25,34.5L41.05,34.5Q43,34.5,43,32.55L43,15.45Q43,13.5,41.05,13.5L18.25,13.5L18.25,15.5L41,15.5L41,32.5Z" fill-rule="evenodd" fill="#0D8FEF" fill-opacity="1"/></g><g transform="matrix(1,0,0,-1,0,51.11427307128906)"><path d="M31.549999809265138,26.57518653564453L41.31839980926514,35.59213653564453L42.67499980926514,34.122556535644534L32.87259980926514,25.074269535644532Q32.31239980926514,24.55713653564453,31.549999809265138,24.55713653564453Q30.78759980926514,24.55713653564453,30.227399809265137,25.074269535644532L18.521719809265136,35.87943653564453L19.878279809265138,37.34903653564453L31.549999809265138,26.57518653564453Z" fill-rule="evenodd" fill="#0D8FEF" fill-opacity="1"/></g><g><path d="M23.871800000000388,5L26.455800000000387,5L26.442400000000386,43L23.76000000000039,43C17.19270000000039,41.7929,10.594120000000387,40.6664,4.000000000000388,39.4816L4.000000000000388,8.54518C10.625410000000388,7.356,17.25080000000039,6.20706,23.871800000000388,5ZM19.57560000000039,19.5744C20.988300000000386,22.8826,20.782600000000386,27.4247,17.98400000000039,29.9327C15.40450000000039,32.168,11.081440000000388,30.9073,9.91014000000039,27.6974C8.363320000000389,23.9958,9.114380000000388,18.3002,13.258610000000388,16.7847C15.695100000000387,15.8459,18.542800000000387,17.1647,19.57560000000039,19.5744ZM16.808300000000386,20.616C16.266600000000388,19.429299999999998,14.86650000000039,18.9053,13.678850000000388,19.444699999999997C12.047080000000388,20.2494,11.680490000000388,22.3908,11.702850000000389,24.0047C11.725200000000388,25.6186,12.239320000000387,27.6795,13.938140000000388,28.2249C15.315100000000388,28.7435,16.701000000000388,27.6616,17.103300000000388,26.3473C17.72650000000039,24.4673,17.62120000000039,22.422,16.808300000000386,20.616Z" fill-rule="evenodd" fill="#0D8FEF" fill-opacity="1"/></g></g></g></svg>