<svg xmlns="http://www.w3.org/2000/svg" xmlns:xlink="http://www.w3.org/1999/xlink" fill="none" version="1.1" width="60" height="60" viewBox="0 0 60 60"><defs><mask id="master_svg0_946_32929" style="mask-type:alpha" maskUnits="objectBoundingBox"><g><path d="M0 0C0 0 0 0 0 0L44 0C52.83655599729269 0 60 7.1634440027073065 60 16L60 60C60 60 60 60 60 60L0 60C0 60 0 60 0 60Z" fill="#FFFFFF" fill-opacity="1"/></g></mask><filter id="master_svg1_946_32911" filterUnits="objectBoundingBox" color-interpolation-filters="sRGB" x="-0.2222222222222222" y="-0.16666666666666666" width="1.4444444444444444" height="1.4444444444444444"><feFlood flood-opacity="0" result="BackgroundImageFix"/><feColorMatrix in="SourceAlpha" type="matrix" values="0 0 0 0 0 0 0 0 0 0 0 0 0 0 0 0 0 0 127 0"/><feOffset dy="2" dx="0"/><feGaussianBlur stdDeviation="2"/><feColorMatrix type="matrix" values="0 0 0 0 0 0 0 0 0 0 0 0 0 0 0 0 0 0 0.30000001192092896 0"/><feBlend mode="normal" in2="BackgroundImageFix" result="effect1_dropShadow"/><feBlend mode="normal" in="SourceGraphic" in2="effect1_dropShadow" result="shape"/></filter></defs><g><g mask="url(#master_svg0_946_32929)"><g><path d="M0,0L60,60L60,0L0,0Z" fill="#216BFF" fill-opacity="1"/></g></g><g filter="url(#master_svg1_946_32911)"><g><path d="M43.5,9.10689C43.5,8.219292,42.828469999999996,7.5,42.00002,7.5C41.17158,7.5,40.50001,8.219292,40.50001,9.10689L40.50002,20.9603L35.56067,15.66811C34.97487,15.040479999999999,34.02513,15.040479999999999,33.439336,15.66811C32.853555,16.295740000000002,32.853555,17.313319999999997,33.439336,17.941000000000003L40.93935,25.9767C41.52515,26.6043,42.47492,26.6043,43.0607,25.9767L50.5607,17.941000000000003C51.1464,17.313319999999997,51.1464,16.295740000000002,50.5607,15.66811C49.974900000000005,15.040479999999999,49.025099999999995,15.040479999999999,48.4394,15.66811L43.5,20.9603L43.5,9.10689ZM34.18421,27.6313Q34.12603,27.6313,34.06814,27.6371Q34.01024,27.6428,33.953182,27.6541Q33.896124,27.6655,33.840452,27.6823Q33.784781,27.6992,33.731033,27.7215Q33.677285,27.7438,33.625977,27.7712Q33.57467,27.7986,33.526298,27.8309Q33.477926,27.8632,33.432955,27.9002Q33.387984,27.9371,33.346847,27.9782Q33.30571,28.0193,33.268803,28.0643Q33.231897,28.1093,33.199575,28.1576Q33.167254,28.206,33.13983,28.2573Q33.112406,28.3086,33.0901426,28.3624Q33.0678795,28.4161,33.0509917,28.4718Q33.0341039,28.5275,33.0227543,28.5845Q33.0114046,28.6416,33.0057023,28.6995Q33,28.7574,33,28.8156Q33,28.8737,33.0057023,28.9316Q33.0114046,28.9895,33.0227543,29.0466Q33.0341039,29.1036,33.0509917,29.1593Q33.0678795,29.215,33.0901426,29.2687Q33.112406,29.3225,33.13983,29.3738Q33.167254,29.4251,33.199575,29.4735Q33.231897,29.5218,33.268803,29.5668Q33.30571,29.6118,33.346847,29.6529Q33.387984,29.6941,33.432955,29.731Q33.477926,29.7679,33.526298,29.8002Q33.57467,29.8325,33.625977,29.8599Q33.677285,29.8874,33.731033,29.9096Q33.784781,29.9319,33.840452,29.9488Q33.896124,29.9657,33.953182,29.977Q34.01024,29.9884,34.06814,29.9941Q34.12603,29.9998,34.18421,29.9998L49.815799999999996,29.9998Q49.873999999999995,29.9998,49.9319,29.9941Q49.9898,29.9884,50.046800000000005,29.977Q50.103899999999996,29.9657,50.1595,29.9488Q50.215199999999996,29.9319,50.269,29.9096Q50.3227,29.8874,50.373999999999995,29.8599Q50.4253,29.8325,50.4737,29.8002Q50.522099999999995,29.7679,50.567,29.731Q50.611999999999995,29.6941,50.6532,29.6529Q50.6943,29.6118,50.7312,29.5668Q50.768100000000004,29.5218,50.800399999999996,29.4735Q50.8327,29.4251,50.8602,29.3738Q50.8876,29.3225,50.9099,29.2687Q50.9321,29.215,50.949,29.1593Q50.965900000000005,29.1036,50.977199999999996,29.0466Q50.988600000000005,28.9895,50.994299999999996,28.9316Q51,28.8737,51,28.8156Q51,28.7574,50.994299999999996,28.6995Q50.988600000000005,28.6416,50.977199999999996,28.5845Q50.965900000000005,28.5275,50.949,28.4718Q50.9321,28.4161,50.9099,28.3624Q50.8876,28.3086,50.8602,28.2573Q50.8327,28.206,50.800399999999996,28.1576Q50.768100000000004,28.1093,50.7312,28.0643Q50.6943,28.0193,50.6532,27.9782Q50.611999999999995,27.9371,50.567,27.9002Q50.522099999999995,27.8632,50.4737,27.8309Q50.4253,27.7986,50.373999999999995,27.7712Q50.3227,27.7438,50.269,27.7215Q50.215199999999996,27.6992,50.1595,27.6823Q50.103899999999996,27.6655,50.046800000000005,27.6541Q49.9898,27.6428,49.9319,27.6371Q49.873999999999995,27.6313,49.815799999999996,27.6313L34.18421,27.6313Z" fill-rule="evenodd" fill="#FFFFFF" fill-opacity="1"/></g></g></g></svg>