<svg xmlns="http://www.w3.org/2000/svg" xmlns:xlink="http://www.w3.org/1999/xlink" fill="none" version="1.1" width="48" height="48" viewBox="0 0 48 48"><g><g><g><path d="M37.72774286565781,14.5399047996521C36.968842865657805,12.9763247996521,35.96854286565781,11.543284799652099,34.76434286565781,10.293574799652099C31.670242865657805,7.064674799652099,27.339542865657805,4.9846127996520995,22.567142865657807,4.4369757996520995C21.729842865657805,4.3404297996520995,20.887042865657808,4.2906664106521,20.043342865657806,4.2897047996521C19.266742865657807,4.2897047996521,18.452842865657807,4.335717899652099,17.627742865657808,4.427551799652099C12.839642865657806,4.949898799652099,8.483722865657807,7.024284799652099,5.367102865657807,10.2503947996521C4.158042865657807,11.4970747996521,3.1526028656578062,12.928044799652099,2.3878628656578065,14.4901047996521C1.3824258656578063,16.532804799652098,0.8586263056578064,18.7807047996521,0.8571428656578064,21.0595047996521C0.8571428656578064,23.9948047996521,1.7420418656578063,26.8823047996521,3.4144528656578066,29.419904799652098C4.2619828656578065,30.7056047996521,5.648042865657806,32.3233047996521,6.9240028656578065,33.4665047996521L6.347182865657806,38.0374047996521C6.324732865657807,38.0984047996521,6.301382865657806,38.1593047996521,6.2865928656578065,38.2259047996521C6.270712865657806,38.2878047996521,6.267882865657806,38.3488047996521,6.262292865657806,38.4105047996521C6.258552865657807,38.4566047996521,6.246402865657807,38.5026047996521,6.246402865657807,38.5484047996521C6.246402865657807,38.599104799652096,6.258552865657807,38.6489047996521,6.262292865657806,38.6985047996521C6.334262865657807,39.4569047996521,6.9666328656578065,40.0367047996521,7.724822865657806,40.0397047996521C7.991742865657806,40.0397047996521,8.238092865657807,39.9617047996521,8.452852865657807,39.8389047996521L8.475302865657806,39.8239047996521C8.505012865657807,39.8088047996521,8.538652865657806,39.7901047996521,8.568562865657807,39.7704047996521L9.945292865657807,39.0726047996521L14.044542865657807,36.9937047996521C15.216942865657806,37.3293047996521,16.415342865657806,37.5618047996521,17.626842865657807,37.6893047996521C19.267642865657805,37.8704047996521,20.924442865657806,37.8648047996521,22.564242865657807,37.6745047996521C24.215042865657807,37.4845047996521,25.838342865657808,37.1020047996521,27.400942865657807,36.5350047996521C26.216242865657808,36.1369047996521,25.462742865657805,34.9688047996521,25.584642865657806,33.7197047996521C24.468542865657806,34.078804799652104,23.320042865657808,34.3269047996521,22.155442865657808,34.4606047996521C20.780842865657807,34.620304799652104,19.392542865657806,34.6244047996521,18.016942865657807,34.472804799652096C17.879742865657807,34.457804799652095,17.738742865657805,34.4353047996521,17.598742865657805,34.4165047996521C16.681542865657807,34.2938047996521,15.774742865657807,34.1009047996521,14.886542865657807,33.8397047996521C14.704242865657806,33.7815047996521,14.513942865657807,33.7522047996521,14.322742865657807,33.752604799652104C14.017542865657806,33.752604799652104,13.725542865657806,33.832204799652104,13.426842865657806,33.986904799652095C13.386642865657807,34.0105047996521,13.350142865657807,34.0273047996521,13.310142865657806,34.0489047996521L9.943432865657806,36.0510047996521L9.795952865657807,36.139304799652095C9.724172865657806,36.185104799652095,9.681152865657806,36.2002047996521,9.642862865657806,36.2002047996521C9.517582865657806,36.1966047996521,9.418722865657806,36.092504799652104,9.420782865657806,35.9667047996521L9.550512865657806,35.4369047996521L9.696122865657806,34.8610047996521L9.943432865657806,33.9177047996521L10.214092865657806,32.8634047996521C10.400862865657807,32.2794047996521,10.195422865657806,31.6406047996521,9.705462865657806,31.2768047996521C9.212902865657806,30.9079047996521,8.743182865657808,30.5092047996521,8.298862865657807,30.0829047996521C7.546852865657806,29.3664047996521,6.8772928656578065,28.5674047996521,6.302292865657806,27.7010047996521C4.9770028656578065,25.6921047996521,4.278822865657807,23.412404799652098,4.278822865657807,21.1063047996521C4.278822865657807,19.317904799652098,4.683902865657807,17.5774047996521,5.482812865657807,15.9353047996521C6.097622865657806,14.6843047996521,6.9049528656578065,13.5386247996521,7.875082865657807,12.540424799652099C10.435212865657807,9.8856547996521,14.038042865657806,8.1815847996521,18.017842865657805,7.746454799652099C18.708542865657808,7.6696247996521,19.389942865657808,7.6320747996520995,20.041542865657807,7.6320747996520995C20.727542865657806,7.6320747996520995,21.437642865657807,7.6733747996521,22.156442865657805,7.753954799652099C26.119442865657806,8.2088447996521,29.700742865657805,9.9202247996521,32.2414428656578,12.5751347996521C33.207242865657804,13.5767547996521,34.00954286565781,14.725204799652099,34.61874286565781,15.9784047996521C35.39804286565781,17.5727047996521,35.804042865657806,19.3263047996521,35.806842865657806,21.104404799652098C35.806842865657806,21.2892047996521,35.79474286565781,21.4740047996521,35.78634286565781,21.657704799652098C36.83474286565781,21.0060047996521,38.191842865657804,21.165304799652098,39.062342865657804,22.0423047996521C39.10914286565781,22.0882047996521,39.143742865657806,22.1389047996521,39.183942865657805,22.186804799652098C39.214542865657805,21.808704799652098,39.23044286565781,21.433604799652098,39.23044286565781,21.0491047996521C39.229142865657806,18.7916047996521,38.71524286565781,16.5639047996521,37.72774286565781,14.5361047996521L37.72774286565781,14.5399047996521Z" fill-rule="evenodd" fill="#0182EF" fill-opacity="1"/></g><g><path d="M37.544738175716404,37.9652833934021C37.4396981757164,37.9406633934021,37.3329381757164,37.9228233934021,37.2256481757164,37.9117133934021C35.4646081757164,37.5815533934021,33.8600481757164,36.6802333934021,32.6577381757164,35.3458023934021C32.4867161757164,35.1766070934021,32.2352961757164,35.1185738934021,32.0079941757164,35.1961277934021C31.7806921757164,35.2736813934021,31.6163649757164,35.4735043934021,31.5834899157164,35.7126093934021C31.5485093757164,35.9511363934021,31.6494792757164,36.189473393402096,31.8448151757164,36.329583393402096L32.0268481757164,36.5134433934021C33.1775681757164,37.6726633934021,33.9609681757164,39.1483033934021,34.2779981757164,40.7540933934021C34.3460481757164,41.9102933934021,35.1446181757164,42.8921933934021,36.2586881757164,43.1897133934021C37.1776081757164,43.4344433934021,38.1567281757164,43.1681233934021,38.8272481757164,42.491003393402096C39.5134081757164,41.7976333934021,39.7728681757164,40.7856833934021,39.5057581757164,39.8454733934021C39.2397881757164,38.9058333934021,38.4877781757164,38.1850033934021,37.540998175716396,37.9624433934021L37.544738175716404,37.9652833934021Z" fill-rule="evenodd" fill="#FB6401" fill-opacity="1"/></g><g><path d="M46.37530198064804,31.09009672518921C45.64946198064804,30.35556982518921,44.56640198064804,30.108243725189208,43.59589198064804,30.45528872518921C42.62424198064804,30.803343725189208,41.93860198064804,31.68153472518921,41.83356198064804,32.71247472518921C41.50754198064804,34.48410472518921,40.61575198064804,36.10061472518921,39.29304598064804,37.31710472518921C39.11283128064804,37.48822472518921,39.04650688064804,37.74795472518921,39.12221048064804,37.98499472518921C39.19791398064804,38.22198472518921,39.40219898064804,38.39459472518921,39.64763698064804,38.42839472518921C39.89307498064804,38.46031472518921,40.13497198064804,38.347084725189205,40.26843198064804,38.137694725189206L40.44846198064804,37.95306472518921C41.59353198064804,36.79254472518921,43.05678198064804,36.00109472518921,44.65148198064804,35.67972472518921C45.80106198064804,35.60442472518921,46.77382198064804,34.79888472518921,47.066911980648044,33.67933472518921C47.31049198064804,32.75301472518921,47.047301980648044,31.76625472518921,46.37530198064804,31.086345725189208L46.37530198064804,31.09009672518921Z" fill-rule="evenodd" fill="#0087EC" fill-opacity="1"/></g><g><path d="M34.952097281185154,23.704924535369873C34.23883878118515,24.420499535369874,33.99967528118515,25.479119535369872,34.33674228118515,26.42958953536987C34.67197628118515,27.378929535369874,35.52522628118515,28.052869535369872,36.53068628118515,28.162339535369874C38.26050628118515,28.483589535369873,39.83651628118515,29.360189535369873,41.01761628118515,30.65800953536987C41.18534628118515,30.829279535369874,41.43678628118515,30.88989953536987,41.66494628118515,30.814449535369874C41.89310628118515,30.73879953536987,42.05768628118515,30.540159535369874,42.08891628118515,30.30297953536987C42.12159628118515,30.06611953536987,42.01635628118515,29.831329535369875,41.817396281185154,29.697159535369874C40.58743628118515,28.545529535369873,39.74980628118515,27.040279535369873,39.42157628118515,25.392159535369874C39.35527628118515,24.268319535369873,38.57237628118515,23.313127535369873,37.47906628118515,23.022378835369874C36.57536628118515,22.782996535369872,35.61188628118515,23.041746535369874,34.952097281185154,23.701229535369873L34.952097281185154,23.704924535369873Z" fill-rule="evenodd" fill="#2DBD03" fill-opacity="1"/></g><g><path d="M32.03808540899277,33.18413511154175L32.060045408992764,33.025545111541746C32.379935408992765,31.300565111541747,33.255185408992766,29.726505111541748,34.55332540899277,28.541935111541747C34.72985540899277,28.375673111541747,34.795075408992766,28.12321411154175,34.72103540899277,27.892643111541748C34.647175408992766,27.662072111541747,34.44703540899277,27.49421791154175,34.20635540899276,27.460965131541748C33.96530540899277,27.42953631154175,33.72790540899277,27.53967741154175,33.59684540899277,27.743730111541748C32.450835408992766,28.969965111541747,30.94740540899277,29.80671511154175,29.29882540899277,30.13554511154175C28.17149540899277,30.208785111541747,27.217414408992767,30.992355111541748,26.929998108992766,32.081415111541745C26.691149408992768,32.98242511154175,26.94923740899277,33.94230511154175,27.60820740899277,34.603625111541746C28.29997540899277,35.294775111541746,29.321915408992766,35.54138511154175,30.25436540899277,35.24215511154175C31.187375408992768,34.94218511154175,31.87455540899277,34.14818511154175,32.035315408992766,33.18413511154175L32.03808540899277,33.18413511154175Z" fill-rule="evenodd" fill="#FFD000" fill-opacity="1"/></g></g></g></svg>