<svg height="20" viewBox="0 0 21 20" width="21" xmlns="http://www.w3.org/2000/svg"><g fill="none" fill-rule="evenodd" transform="translate(3 3)"><path d="m12.294 13.443.0000495 1.557h1.1666666l-.0007161-1.557 1.54.0002049v.6234618c0 .5154657-.4178676.9333333-.9333333.9333333h-3.3444445l-.0002222-1.557zm1.7726667-5.443c.5154657 0 .9333333.41786757.9333333.93333333v3.34320497l-4.278-.0005383.0002222-1.1648889h-1.16666664v3.8888889h-.62222223c-.51546576 0-.93333333-.4178676-.93333333-.9333333v-5.13333337c0-.51546576.41786757-.93333333.93333333-.93333333h3.36066667l.0000495 2.6464519h1.1666666l-.0007161-2.6464519z" fill="#4f8bff" fill-rule="nonzero"/><g stroke="#4f8bff" stroke-width="2"><rect height="5" rx=".2" width="5"/><rect height="5" rx=".2" width="5" y="9"/><rect height="5" rx=".2" width="5" x="9"/></g></g></svg>