<svg xmlns="http://www.w3.org/2000/svg" xmlns:xlink="http://www.w3.org/1999/xlink" fill="none" version="1.1" width="16" height="16" viewBox="0 0 16 16"><g><g><rect x="0" y="0" width="16" height="15.999999046325684" rx="2.4000000953674316" fill="#FCEE89" fill-opacity="1"/></g><g><path d="M4.056000135421753,4.644000129699707L5.832000135421753,4.644000129699707Q5.244000135421754,3.468000129699707,4.6320001354217535,2.651999129699707L5.736000135421753,2.111999529699707Q6.444000135421753,3.144000129699707,7.0200001354217525,4.248000129699707L6.228000135421754,4.644000129699707L8.436000135421754,4.644000129699707Q9.204000135421753,3.420000129699707,9.780000135421753,2.064000129699707L11.040000135421753,2.508000129699707Q10.500000135421754,3.660000129699707,9.792000135421752,4.644000129699707L11.592000135421753,4.644000129699707L11.592000135421753,8.940000129699708L9.828000135421753,8.940000129699708L9.828000135421753,11.340000129699707Q9.828000135421753,11.904000129699707,10.200000135421753,11.904000129699707L11.724000135421752,11.904000129699707Q11.880000135421753,11.904000129699707,11.952000135421754,11.700000129699706Q12.048000135421752,11.484000129699707,12.060000135421753,10.452000129699707L13.248000135421753,10.836000129699707Q13.140000135421753,12.480000129699707,12.828000135421753,12.792000129699707Q12.528000135421753,13.092000129699708,11.952000135421754,13.092000129699708L9.816000135421753,13.092000129699708Q8.580000135421752,13.092000129699708,8.580000135421752,11.592000129699708L8.580000135421752,8.940000129699708L7.128000135421753,8.940000129699708Q6.816000135421753,11.976000129699708,3.216000135421753,13.344000129699706L2.508000135421753,12.192000129699707Q5.628000135421753,11.232000129699706,5.952000135421753,8.940000129699708L4.056000135421753,8.940000129699708L4.056000135421753,4.644000129699707ZM10.380000135421753,7.776000129699707L10.380000135421753,5.820000129699707L5.268000135421753,5.820000129699707L5.268000135421753,7.776000129699707L10.380000135421753,7.776000129699707Z" fill="#CE1500" fill-opacity="1"/></g></g></svg>