<svg xmlns="http://www.w3.org/2000/svg" fill="none" width="14" height="14"><path d="M6.998 14C3.133 14-.005 10.86 0 6.997.005 3.134 3.136-.002 6.99 0A6.999 6.999 0 0114 7.015C13.996 10.871 10.86 14 6.998 14zm.003-13a6 6 0 10-.002 12 6 6 0 00.002-12zm-.613 7.666l.163-.264 2.5-4.063a.495.495 0 01.414-.257.474.474 0 01.45.237.472.472 0 01.006.512c-.11.187-.226.37-.34.554L6.951 9.66a.497.497 0 01-.465.258.534.534 0 01-.333-.141c-.285-.242-.571-.48-.857-.72L4.194 8.13a.48.48 0 01-.183-.364.475.475 0 01.274-.468.471.471 0 01.542.061c.24.196.476.397.713.597l.82.688.028.022z" fill="#216BFF" style="mix-blend-mode:passthrough"/></svg>