<svg xmlns="http://www.w3.org/2000/svg" fill="none" width="24" height="24"><defs><linearGradient x1="0" y1="-.085" x2="1.104" y2="1.076" id="b"><stop offset="0%" stop-color="#20B58E"/><stop offset="40.527%" stop-color="#2C5DDF"/><stop offset="79.532%" stop-color="#945CE3"/><stop offset="98.289%" stop-color="#E35CBA"/></linearGradient><clipPath id="a"><rect width="24" height="24" rx="0"/></clipPath></defs><g clip-path="url(#a)"><path d="M12.125.548q2.273 0 4.276.867 2.003.867 3.491 2.354 1.488 1.488 2.355 3.491.867 2.004.867 4.276 0 2.296-.867 4.3-.867 2.003-2.355 3.49-1.488 1.488-3.49 2.355-2.004.867-4.277.867-2.272 0-4.276-.867-2.003-.867-3.49-2.355-1.488-1.487-2.355-3.49-.867-2.004-.867-4.3 0-2.272.867-4.276.867-2.003 2.354-3.49Q5.846 2.281 7.85 1.414 9.853.548 12.125.548zm3 14.034q.07-.094-.071-.234-.14-.14-.328-.317-.188-.175-.328-.363-.14-.187-.094-.351.117-.375.082-.55-.035-.177-.222-.235-.188-.059-.54-.047-.35.012-.843.012-.257 0-.421.023-.164.024-.305.035l-.305.024q-.164.011-.374-.012-.328-.023-.504-.117t-.328-.188q-.153-.093-.387-.164-.234-.07-.68-.093-.632-.024-.901-.059-.27-.035-.387-.07-.117-.035-.187-.047-.07-.012-.281-.012-.211.024-.645.211-.433.188-.878.434t-.773.503q-.328.258-.328.422 0 .469.058.75.059.281.164.433.106.153.223.246.117.094.234.211.117.117.316.164.2.047.434.059.234.011.433.058.2.047.316.164.235.281.492.235.258-.047.457-.153.2-.105.328-.082.13.024.153.445 0 .188.07.282.07.093.187.14l.281.14q.164.094.352.258.187.188.129.352-.059.164-.176.316-.117.152-.223.328-.105.176.012.34.164.258.352.375.187.117.363.199.175.082.316.187.14.106.188.34 0 .07.164.27.164.199.316.41.152.21.246.351.094.14-.047.117.281.047.597.047.317 0 .41-.117l.047-.047v-.023l.07-.024q.047-.023.13-.059.081-.035.222-.152.281-.187.539-.492.258-.304.445-.668.187-.363.316-.738.13-.374.176-.702.047-.305.152-.446l.188-.246q.082-.105.14-.28.059-.176-.011-.598-.07-.539.128-.785.2-.246.34-.41zm2.319 3.678q.328-.398.34-.656.011-.257-.551-.398-.586-.14-.832-.152-.246-.012-.457.246-.21.257-.304.527t.046.738q.07.21.118.34.046.128.117.164.07.035.21.023.141-.012.399-.082.281-.07.539-.328t.375-.422zm.632-6.841q.164-.164.55-.246.387-.082.786-.21.398-.13.703-.364.304-.234.328-.656.023-.422 0-.773-.024-.352-.14-.703-.118-.352-.317-.738-.2-.387-.504-.879-.328-.515-.597-.867-.27-.351-.528-.597-.257-.246-.538-.445-.282-.2-.633-.41-.375-.211-.738-.457-.363-.246-.785-.328-.422-.082-.914.105-.492.188-1.124.82l-.399.422q-.257.234-.538.445-.282.211-.54.363-.257.153-.468.153-.187 0-.586.047-.398.046-.808.234-.41.187-.703.527t-.246.902q.024.633.223.82.199.187.515.21.316.024.75.048.433.023.925.304.586.14 1.102.282.445.117.902.292.456.176.761.364.351.21.281.55-.07.34-.246.691-.176.352-.293.68-.117.328.14.515.352.258.516.328.164.07.352.035.187-.035.515-.105.328-.07 1.008-.07-.188 0-.07-.14.117-.142.363-.352.246-.211.527-.434.28-.222.468-.363z" fill="url(#b)"/></g></svg>