<svg xmlns="http://www.w3.org/2000/svg" xmlns:xlink="http://www.w3.org/1999/xlink" fill="none" version="1.1" width="32" height="32" viewBox="0 0 32 32"><g transform="matrix(1,0,0,-1,0,64)"><g><path d="M4.943596396026612,43.05739115551758Q4.897276396026611,43.011074155517576,4.846636396026611,42.96951915551758Q4.796006396026611,42.927965155517576,4.741546396026612,42.89157415551758Q4.687076396026612,42.85518315551758,4.629306396026611,42.82430515551758Q4.571546396026611,42.79342715551758,4.511026396026612,42.76836115551758Q4.450506396026611,42.74329405551758,4.387826396026611,42.72427965551758Q4.325146396026611,42.705265355517575,4.260906396026611,42.69248645551758Q4.1966563960266114,42.67970755551758,4.131476396026612,42.67328715551758Q4.066286396026611,42.66686678961758,4.000786396026611,42.66686678961758Q3.9352763960266115,42.66686678961758,3.8700963960266113,42.67328715551758Q3.8049063960266114,42.67970755551758,3.7406663960266116,42.69248645551758Q3.676416396026611,42.705265355517575,3.6137363960266113,42.72427965551758Q3.551054396026611,42.74329405551758,3.4905373960266113,42.76836115551758Q3.4300213960266115,42.79342715551758,3.3722533960266112,42.82430515551758Q3.3144853960266114,42.85518315551758,3.2600223960266113,42.89157415551758Q3.2055593960266116,42.927965155517576,3.1549243960266113,42.96951915551758Q3.1042903960266113,43.011074155517576,3.057973396026611,43.05739115551758Q2.9651153960266114,43.15024915551758,2.8921563960266115,43.25944015551758Q2.8191973960266115,43.36863015551758,2.768943396026611,43.48995515551758Q2.718688496026611,43.61128115551758,2.6930688960266114,43.74007815551758Q2.6674492340266114,43.86887815551758,2.667449242026611,44.00019815551758Q2.6674492510266115,44.131518155517576,2.6930688960266114,44.26031815551758Q2.718688496026611,44.38911815551758,2.768943396026611,44.51044815551758Q2.819198396026611,44.63176815551758,2.8921563960266115,44.740958155517575Q2.9651153960266114,44.85014815551758,3.057973396026611,44.943008155517575L14.22098639602661,56.10602815551758Q14.280186396026611,56.186228155517576,14.350686396026612,56.25672815551758Q14.444486396026612,56.35052815551758,14.554986396026612,56.424028155517576Q14.665386396026612,56.49742815551758,14.78808639602661,56.547728155517575Q14.910886396026612,56.59802815551758,15.04108639602661,56.62312815551758Q15.17138639602661,56.64822815551758,15.30398639602661,56.64722815551758Q15.43668639602661,56.64822815551758,15.56688639602661,56.62312815551758Q15.697186396026611,56.59802815551758,15.819886396026611,56.547728155517575Q15.942586396026611,56.49742815551758,16.05308639602661,56.424028155517576Q16.163486396026613,56.35052815551758,16.25728639602661,56.25672815551758Q16.32778639602661,56.186228155517576,16.38698639602661,56.10602815551758L27.54998639602661,44.943008155517575Q27.64288639602661,44.85014815551758,27.71588639602661,44.740958155517575Q27.788786396026612,44.63176815551758,27.839086396026612,44.51044815551758Q27.889286396026613,44.38911815551758,27.91498639602661,44.26031815551758Q27.94058639602661,44.131518155517576,27.94058639602661,44.00019815551758Q27.94058639602661,43.86887815551758,27.91498639602661,43.74007815551758Q27.889286396026613,43.61128115551758,27.839086396026612,43.48995515551758Q27.788786396026612,43.36863015551758,27.71588639602661,43.25944015551758Q27.64288639602661,43.15024915551758,27.54998639602661,43.05739115551758Q27.45718639602661,42.96453215551758,27.347986396026613,42.89157415551758Q27.23878639602661,42.81861515551758,27.11748639602661,42.76836115551758Q26.996186396026612,42.71810605551758,26.86738639602661,42.69248635551758Q26.738586396026612,42.66686678551758,26.607186396026613,42.66686678961758Q26.47588639602661,42.666866793817576,26.34708639602661,42.69248645551758Q26.21828639602661,42.71810605551758,26.09698639602661,42.76836115551758Q25.97568639602661,42.81861515551758,25.866486396026612,42.89157415551758Q25.75728639602661,42.96453215551758,25.66438639602661,43.05739115551758L15.30398639602661,53.417828155517576L4.943596396026612,43.05739115551758Z" fill-rule="evenodd" fill="#216BFF" fill-opacity="1"/></g></g></svg>