<svg xmlns="http://www.w3.org/2000/svg" xmlns:xlink="http://www.w3.org/1999/xlink" fill="none" version="1.1" width="32" height="32" viewBox="0 0 32 32"><g><g><path d="M4.943106396026611,11.057391155517578Q4.896786396026611,11.011074155517578,4.846156396026611,10.969519155517578Q4.795516396026612,10.927965155517578,4.741056396026611,10.891574155517578Q4.686586396026611,10.855183155517578,4.628826396026612,10.824305155517578Q4.571056396026611,10.793427155517579,4.510536396026612,10.768361155517578Q4.450026396026612,10.743294055517579,4.387336396026612,10.724279655517579Q4.324656396026612,10.705265355517579,4.260416396026612,10.692486455517578Q4.196166396026611,10.679707555517577,4.1309863960266116,10.673287155517578Q4.065796396026611,10.666866789617577,4.000296396026611,10.666866789617577Q3.934796396026611,10.666866789617577,3.8696063960266116,10.673287155517578Q3.8044163960266113,10.679707555517577,3.7401763960266114,10.692486455517578Q3.675926396026611,10.705265355517579,3.613248396026611,10.724279655517579Q3.5505663960266114,10.743294055517579,3.4900493960266115,10.768361155517578Q3.4295333960266112,10.793427155517579,3.3717653960266114,10.824305155517578Q3.313997396026611,10.855183155517578,3.2595333960266113,10.891574155517578Q3.2050703960266116,10.927965155517578,3.1544363960266115,10.969519155517578Q3.1038023960266115,11.011074155517578,3.0574853960266113,11.057391155517578Q2.9646263960266115,11.150249155517578,2.891668396026611,11.259440155517579Q2.818709396026611,11.368630155517579,2.7684543960266113,11.489955155517578Q2.7182001960266113,11.611281155517577,2.692580596026611,11.740078155517578Q2.6669609530266114,11.868878155517578,2.6669609650266115,12.000198155517579Q2.6669609780266113,12.131518155517579,2.692580596026611,12.260318155517577Q2.7182001960266113,12.389118155517579,2.7684553960266114,12.510448155517578Q2.818709396026611,12.631768155517578,2.891668396026611,12.740958155517578Q2.9646263960266115,12.850148155517578,3.0574853960266113,12.943008155517578L14.224286396026612,24.109828155517576Q14.282386396026611,24.18792815551758,14.35118639602661,24.256728155517578Q14.44498639602661,24.350428155517577,14.555286396026611,24.42392815551758Q14.665686396026612,24.49732815551758,14.788386396026612,24.54762815551758Q14.911086396026612,24.59792815551758,15.041286396026612,24.62302815551758Q15.17138639602661,24.64822815551758,15.30398639602661,24.647228155517578Q15.43658639602661,24.64822815551758,15.566786396026611,24.62302815551758Q15.696986396026611,24.59792815551758,15.819586396026612,24.54762815551758Q15.942286396026612,24.49732815551758,16.052686396026612,24.42392815551758Q16.16308639602661,24.350428155517577,16.256786396026612,24.256728155517578Q16.325586396026612,24.18792815551758,16.38368639602661,24.109828155517576L27.55048639602661,12.943008155517578Q27.64338639602661,12.850148155517578,27.71638639602661,12.740958155517578Q27.78928639602661,12.631768155517578,27.83958639602661,12.510448155517578Q27.88978639602661,12.389118155517579,27.915386396026612,12.260318155517577Q27.941086396026613,12.131518155517579,27.941086396026613,12.000198155517579Q27.941086396026613,11.868878155517578,27.915386396026612,11.740078155517578Q27.88978639602661,11.611281155517577,27.83958639602661,11.489955155517578Q27.78928639602661,11.368630155517579,27.71638639602661,11.259440155517579Q27.64338639602661,11.150249155517578,27.55048639602661,11.057391155517578Q27.457686396026613,10.964532155517578,27.348486396026612,10.891574155517578Q27.23928639602661,10.818615155517579,27.117986396026613,10.768361155517578Q26.99658639602661,10.718106055517579,26.867786396026613,10.692486355517579Q26.73908639602661,10.666866785517579,26.60768639602661,10.666866789617577Q26.476386396026612,10.666866793817578,26.34758639602661,10.692486455517578Q26.218786396026612,10.718106055517579,26.09748639602661,10.768361155517578Q25.976186396026613,10.818615155517579,25.86698639602661,10.891574155517578Q25.75778639602661,10.964532155517578,25.66488639602661,11.057391155517578L15.30398639602661,21.418328155517578L4.943106396026611,11.057391155517578Z" fill-rule="evenodd" fill="#3D3D3D" fill-opacity="1"/></g></g></svg>