<svg height="10" viewBox="0 0 6 10" width="6" xmlns="http://www.w3.org/2000/svg"><g fill="none" fill-rule="evenodd" transform="translate(-1268 -1117)"><path d="m0 340h1440v1486h-1440z" fill="#216bff" opacity=".02"/><path d="m.14644661.14644661c.17356635-.17356635.44299075-.1928515.63785889-.05785545l.06924789.05785545 4.14644661 4.14655339 4.14644661-4.14655339c.17356635-.17356635.44299075-.1928515.63785889-.05785545l.06924789.05785545c.17356631.17356635.19285151.44299075.05785545.63785889l-.05785545.06924789-4.42928932 4.42928932c-.20827962.20827962-.5315889.2314218-.76543067.06942654l-.08309747-.06942654-4.42928932-4.42928932c-.19526215-.19526214-.19526215-.51184463 0-.70710678z" fill="#4f8bff" fill-rule="nonzero" transform="matrix(0 1 1 0 1268.541422 1117)"/></g></svg>