<?xml version="1.0" encoding="UTF-8"?>
<svg width="48px" height="48px" viewBox="0 0 48 48" version="1.1" xmlns="http://www.w3.org/2000/svg" xmlns:xlink="http://www.w3.org/1999/xlink">
    <title>编组 16</title>
    <g id="PC端" stroke="none" stroke-width="1" fill="none" fill-rule="evenodd">
        <g id="按钮_kid" transform="translate(-1170, -1841)">
            <g id="编组-17备份-8" transform="translate(1150, 1565)">
                <g id="编组-16备份" transform="translate(20, 276)">
                    <rect id="矩形" x="0" y="0" width="48" height="48"></rect>
                    <rect id="矩形" stroke="#FFFFFF" fill="#FFFFFF" x="12.5" y="9.5" width="23" height="1" rx="0.5"></rect>
                    <path d="M13,23.6377941 L23.3935691,15.7108734 C23.7517185,15.4377217 24.2482815,15.4377217 24.6064309,15.7108734 C28.0709539,18.3531803 31.535477,20.9954872 35,23.6377941" id="路径" stroke="#FFFFFF" stroke-width="2" stroke-linecap="round"></path>
                    <path d="M23.6464466,15.6464466 C24.1380712,15.5 24.2630712,15.5559644 24.3535534,15.6464466 C24.4440356,15.7369288 24.5,15.8619288 24.5,16 L24.5,38 C24.5,38.1380712 24.4440356,38.2630712 24.3535534,38.3535534 C24.2630712,38.4440356 24.1380712,38.5 24,38.5 C23.8619288,38.5 23.7369288,38.4440356 23.6464466,38.3535534 C23.5559644,38.2630712 23.5,38.1380712 23.5,38 L23.5,16 C23.5,15.8619288 23.5559644,15.7369288 23.6464466,15.6464466 Z" id="矩形" stroke="#FFFFFF" fill="#FFFFFF"></path>
                </g>
            </g>
        </g>
    </g>
</svg>