<?xml version="1.0" encoding="UTF-8"?>
<svg width="48px" height="48px" viewBox="0 0 48 48" version="1.1" xmlns="http://www.w3.org/2000/svg" xmlns:xlink="http://www.w3.org/1999/xlink">
    <title>回到顶部</title>
    <defs>
        <linearGradient x1="50%" y1="0.580901033%" x2="50%" y2="100%" id="linearGradient-1">
            <stop stop-color="#9392E6" offset="0%"></stop>
            <stop stop-color="#B16CF2" offset="100%"></stop>
        </linearGradient>
    </defs>
    <g id="PC端" stroke="none" stroke-width="1" fill="none" fill-rule="evenodd">
        <g id="按钮_kid" transform="translate(-74, -1829)">
            <g id="编组-17" transform="translate(54, 1553)">
                <g id="回到顶部" transform="translate(20, 276)">
                    <rect id="矩形" fill="#D8D8D8" opacity="0" x="0" y="0" width="48" height="48"></rect>
                    <path d="M25.2128618,14.9157373 C26.4037916,15.8240302 27.0488786,16.3160223 27.6484786,16.7733226 L27.9740295,17.0216123 C28.5736296,17.4789126 29.2187166,17.9709046 30.4096464,18.8791976 C33.0080386,20.8609278 33.0080386,20.8609278 35.6064309,22.8426579 C36.0455725,23.1775805 36.1300587,23.8050834 35.7951362,24.244225 C35.4602136,24.6833666 34.8327107,24.7678528 34.3935691,24.4329303 C33.2026393,23.5246373 32.5575523,23.0326453 31.9579523,22.575345 L31.6324014,22.3270553 C31.0328013,21.869755 30.3877143,21.377763 29.1967845,20.46947 C28.0058548,19.561177 27.3607678,19.0691849 26.7611677,18.6118846 L26.4356168,18.363595 C26.0299533,18.0542053 25.6034692,17.7289363 25.0012143,17.2696112 L25,38 C25,38.5522847 24.5522847,39 24,39 C23.4477153,39 23,38.5522847 23,38 L22.9999472,17.269 L13.6064309,24.4329303 C13.1672893,24.7678528 12.5397864,24.6833666 12.2048638,24.244225 C11.8699413,23.8050834 11.9544275,23.1775805 12.3935691,22.8426579 L22.7871382,14.9157373 C23.5034369,14.3694338 24.4965631,14.3694338 25.2128618,14.9157373 Z M13,9 L35,9 C35.5522847,9 36,9.44771525 36,10 C36,10.5522847 35.5522847,11 35,11 L13,11 C12.4477153,11 12,10.5522847 12,10 C12,9.44771525 12.4477153,9 13,9 Z" id="形状结合" fill="url(#linearGradient-1)" fill-rule="nonzero"></path>
                </g>
            </g>
        </g>
    </g>
</svg>