<?xml version="1.0" encoding="UTF-8"?>
<svg width="16px" height="16px" viewBox="0 0 16 16" version="1.1" xmlns="http://www.w3.org/2000/svg" xmlns:xlink="http://www.w3.org/1999/xlink">
    <title>浅主图标/操作/浅主图标_图标_操作_关闭_默认_黑_16</title>
    <g id="确定版本" stroke="none" stroke-width="1" fill="none" fill-rule="evenodd" fill-opacity="0.5">
        <g id="云会议/下载页_mac_弹窗_1" transform="translate(-1032.000000, -148.000000)" fill="#000000" fill-rule="nonzero">
            <g id="默认窗口" transform="translate(380.000000, 138.000000)">
                <g id="浅主图标/操作/浅主图标_图标_操作_关闭_默认_黑_16" transform="translate(652.000000, 10.000000)">
                    <path d="M2.78424271,2.08854777 L2.85349943,2.14639266 L8.001,7.293 L13.1498586,2.14639266 L13.2191153,2.08854777 C13.414004,1.95358146 13.6834255,1.97290773 13.8569654,2.14650057 C14.0521977,2.34179251 14.0521494,2.658375 13.8568574,2.85360734 L13.8568574,2.85360734 L8.708,8 L13.8568574,13.1463927 C14.0521494,13.341625 14.0521977,13.6582075 13.8569654,13.8534994 C13.6834255,14.0270923 13.414004,14.0464185 13.2191153,13.9114522 L13.1498586,13.8536073 L8.001,8.706 L2.85349943,13.8536073 L2.78424271,13.9114522 C2.58935397,14.0464185 2.31993252,14.0270923 2.14639266,13.8534994 C1.95116031,13.6582075 1.95120863,13.341625 2.14650057,13.1463927 L2.14650057,13.1463927 L7.294,8 L2.14650057,2.85360734 C1.95120863,2.658375 1.95116031,2.34179251 2.14639266,2.14650057 C2.31993252,1.97290773 2.58935397,1.95358146 2.78424271,2.08854777 Z"></path>
                </g>
            </g>
        </g>
    </g>
</svg>