<svg height="23" viewBox="0 0 23 23" width="23" xmlns="http://www.w3.org/2000/svg"><path d="m23.25 21c.4142136 0 .75.3357864.75.75 0 .3681898-.2653127.6744126-.6151866.7379165l-.1348134.0120835h-21c-.41421356 0-.75-.3357864-.75-.75 0-.3681898.26531274-.6744126.61518655-.7379165l.13481345-.0120835zm-10.5-20.25c.3681898 0 .6744126.26531274.7379165.61518655l.0120835.13481345v13.335l5.5013858-4.89524554.1087396-.0806001c.3035759-.185165.7053484-.13280017.950128.14223934.275377.3094194.2477802.7834906-.0616392 1.0588676l-6.75 6.0073634-.112807.0830142c-.2763791.1660282-.6356843.1383569-.8844214-.0830142l-6.75-6.0073634-.09267292-.098653c-.2191387-.2800405-.21374586-.6851752.03103371-.9602146l.09865297-.09267295c.28004046-.2191387.68517516-.21374586.96021464.03103371l5.5013858 4.89624554v-13.336c0-.41421356.3357864-.75.75-.75z" fill="#fff" fill-opacity=".5" transform="translate(-1)"/></svg>