<svg height="12" viewBox="0 0 16 12" width="16" xmlns="http://www.w3.org/2000/svg"><path d="m8 2c2.129263 0 4.0731688 1.09656223 5.7991778 2.90476213.5945067.6228166 1.1209221 1.2883992 1.5748734 1.95419446.1591481.23341725.2981182.45060545.4162625.64624231l.0498261.08328306.098808.17209197c.0814029.14923875.0814029.32961339 0 .47885214-.0268544.04923306-.0766259.13613566-.1486341.25537503l-.1250623.20262352c-.0879708.1396087-.1851015.28800729-.2912002.44361879-.4539513.66579526-.9803667 1.33137789-1.5748734 1.95419449-1.726009 1.8081999-3.6699148 2.9047621-5.7991778 2.9047621-2.12926301 0-4.07316878-1.0965622-5.79917777-2.9047621-.59450676-.6228166-1.12092209-1.28839923-1.5748734-1.95419449-.15914812-.23341725-.2981182-.45060545-.41626253-.64624231l-.04982614-.08328306-.09880795-.17209197c-.08140295-.14923875-.08140295-.32961339 0-.47885214.0268544-.04923306.07662589-.13613566.14863409-.25537503l.12506225-.20262352c.0879708-.1396087.18510153-.28800729.29120028-.44361879.45395131-.66579526.98036664-1.33137786 1.5748734-1.95419446 1.72600899-1.8081999 3.66991476-2.90476213 5.79917777-2.90476213zm0 1c-1.80823699 0-3.52058122.96593777-5.07582223 2.59523787-.55393074.5803084-1.04704666 1.2037883-1.4720016 1.82705554-.14502165.21269843-.26373158.39750973-.3549363.54635066l-.01923987.03135593.17652667.2805847.1976495.29712189c.42495494.62326724.91807086 1.24674714 1.4720016 1.82705551 1.55524101 1.6293001 3.26758524 2.5952379 5.07582223 2.5952379s3.5205812-.9659378 5.0758222-2.5952379c.5539308-.58030837 1.0470467-1.20378827 1.4720016-1.82705551.1450217-.21269843.2637316-.39750973.3549363-.54635066l.0182399-.03235593-.1755267-.2795847-.1976495-.29712189c-.4249549-.62326724-.9180708-1.24674714-1.4720016-1.82705554-1.555241-1.6293001-3.26758521-2.59523787-5.0758222-2.59523787zm0 2c1.65685425 0 3 1.34314575 3 3s-1.34314575 3-3 3-3-1.34314575-3-3 1.34314575-3 3-3zm0 1c-1.1045695 0-2 .8954305-2 2s.8954305 2 2 2 2-.8954305 2-2-.8954305-2-2-2z" fill-opacity=".5" transform="translate(0 -2)"/></svg>