<svg height="2700" viewBox="0 0 1006 2700" width="1006" xmlns="http://www.w3.org/2000/svg" xmlns:xlink="http://www.w3.org/1999/xlink"><linearGradient id="a" x1="50%" x2="50%" y1="0%" y2="100%"><stop offset="0" stop-color="#6fa1ff"/><stop offset="1" stop-color="#7bceff"/></linearGradient><linearGradient id="b" x1="50%" x2="50%" y1="0%" y2="100%"><stop offset="0" stop-color="#68dbf9"/><stop offset="1" stop-color="#64fdd6"/></linearGradient><linearGradient id="c" x1="50%" x2="50%" y1="0%" y2="100%"><stop offset="0" stop-color="#64fd72"/><stop offset="1" stop-color="#d3fe28"/></linearGradient><linearGradient id="d" x1="50%" x2="50%" y1="0%" y2="100%"><stop offset="0" stop-color="#fec728"/><stop offset="1" stop-color="#ffa95c" stop-opacity="0"/></linearGradient><linearGradient id="e" x1="50%" x2="50%" y1="0%" y2="100%"><stop offset="0" stop-color="#7bceff"/><stop offset="1" stop-color="#68dbf9"/></linearGradient><linearGradient id="f" x1="50%" x2="50%" y1="0%" y2="100%"><stop offset="0" stop-color="#3d72ff" stop-opacity="0"/><stop offset="1" stop-color="#6fa1ff"/></linearGradient><linearGradient id="g" x1="50%" x2="50%" y1="0%" y2="100%"><stop offset="0" stop-color="#64fdd6"/><stop offset="1" stop-color="#64fd72"/></linearGradient><linearGradient id="h" x1="50%" x2="50%" y1="0%" y2="100%"><stop offset="0" stop-color="#d3fe28"/><stop offset="1" stop-color="#fec728"/></linearGradient><g fill="none" fill-rule="evenodd" stroke-dasharray="4" stroke-width="4" transform="translate(2.609375)"><path d="m180.390625 180h640c99.411255 0 179.999995 80.588745 179.999995 180s-80.58874 180-179.999995 180h-640" stroke="url(#a)"/><path d="m180.390625 900h640c99.411255 0 179.999995 80.588745 179.999995 180 0 99.41125-80.58874 180-179.999995 180h-640" stroke="url(#b)"/><path d="m180.390625 1620h640c99.411255 0 179.999995 80.58875 179.999995 180s-80.58874 180-179.999995 180h-640" stroke="url(#c)"/><path d="m180.390625 2340h640c99.411255 0 179.999995 80.58875 179.999995 180v180" stroke="url(#d)"/><path d="m.390625 540c99.411255 0 177.459961 80.588745 177.459961 180s-78.048706 180-177.459961 180" stroke="url(#e)" transform="matrix(-1 0 0 1 178.24121 0)"/><path d="m185.62793 0c0 98.4654707-87.1321137 178.486707-185.237305 180" stroke="url(#f)" transform="matrix(-1 0 0 1 186.018554 0)"/><path d="m.390625 1260c99.411255 0 177.361328 80.58875 177.361328 180s-77.950073 180-177.361328 180" stroke="url(#g)" transform="matrix(-1 0 0 1 178.142578 0)"/><path d="m.390625 1980c99.411255 0 177.344727 80.58875 177.344727 180s-77.933472 180-177.344727 180" stroke="url(#h)" transform="matrix(-1 0 0 1 178.125976 0)"/></g></svg>