<svg xmlns="http://www.w3.org/2000/svg" xmlns:xlink="http://www.w3.org/1999/xlink" fill="none" version="1.1" width="16" height="16" viewBox="0 0 16 16"><defs><clipPath id="master_svg0_735_9055"><rect x="0" y="0" width="16" height="16" rx="0"/></clipPath></defs><g clip-path="url(#master_svg0_735_9055)"><g><path d="M8.00191,1C10.1911,1.000325441,12.1312,2.43523,12.808,4.55457C14.7938,5.05871,16.1359,6.9433,15.989,9.02132C15.8422,11.0993,14.2489,12.769,12.2127,12.9786L12.2119,13L3.79194,13L3.79194,12.9786C1.75402,12.7715,0.158153,11.1015,0.0109942,9.02199C-0.136164,6.94248,1.20808,5.05687,3.19581,4.55457C3.87191,2.43511,5.8123,0.999999744552,8.00191,1Z" fill="#216BFF" fill-opacity="1" style="mix-blend-mode:passthrough"/></g><g><path d="M8.02001,5C8.30946,5.0000116315,8.55447,5.207676,8.59383,5.48636L8.59924,5.5629159999999995L8.59924,8.05926L9.01088,7.6592199999999995C9.21564,7.460179999999999,9.5402,7.4387,9.77083,7.60893L9.8303,7.6592199999999995C10.0351,7.85821,10.0572,8.17363,9.88204,8.39776L9.8303,8.45556L8.4108,9.83508C8.20604,10.03411,7.88148,10.055589999999999,7.65085,9.88536L7.59138,9.83508L6.171104,8.45556C5.954395,8.24643,5.9419849,7.90972,6.142743,7.68607C6.3435,7.46241,6.688449,7.42866,6.931055,7.60893L6.990523,7.6592199999999995L7.44078,8.09679L7.44078,5.5629159999999995C7.44078,5.252026,7.7001100000000005,5,8.02001,5Z" fill="#FFFFFF" fill-opacity="1" style="mix-blend-mode:passthrough"/></g><g><rect x="3" y="14" width="10" height="1" rx="0.5" fill="#216BFF" fill-opacity="1"/></g></g></svg>