<svg height="24" viewBox="0 0 24 24" width="24" xmlns="http://www.w3.org/2000/svg"><g fill="none" fill-rule="evenodd" transform="translate(2.998562 3)"><path d="m9.00077882.5c2.34740808 0 4.47258358.95139307 6.01090308 2.4896102 1.5382991 1.5381967 2.4897559 3.66320217 2.4897559 6.0104497 0 2.3471948-.9514622 4.4721741-2.4897667 6.0103557-1.538319 1.5381961-3.6634898 2.4895844-6.01089228 2.4895844-2.3474552 0-4.47265227-.9513829-6.01098629-2.4895736-1.53832555-1.5381822-2.48979253-3.663166-2.48979253-6.0103665 0-2.3472532.95146156-4.47226326 2.4897817-6.01046053 1.53833459-1.53821172 3.66353625-2.48959937 6.01099712-2.48959937z" stroke="#fff"/><path d="m9.08231859 3.8575351c1.18333011-1.14338013 3.09976701-1.14338013 4.28309711 0 1.1813628 1.14147931 1.1813628 2.99511698 0 4.13849711l-.8327387.8046249c-.1374575.14051641-.3246936.23676053-.5398694.25218365-.3581147.02762429-.6805921-.17445618-.8140844-.47770425.2156978.9407812-.0534559 1.96233969-.8102443 2.69499209l-2.19703042 2.1226027c-1.18319643 1.1430249-3.09944181 1.1430249-4.28261334 0-1.18319643-1.1431453-1.18319643-2.9942738 0-4.13729874l.83264461-.80441595c.13744201-.14047573.32465695-.23669198.53980847-.25208658.35729072-.02765174.67910389.17348376.81311352.47556544-.21557241-.94033462.05354962-1.96223814.81063824-2.69376699zm3.12369761 1.1145069c-.5438289-.52549289-1.4284378-.52549289-1.9722915 0l-2.19329438 2.11934362c-.41837392.40612612-.51798083 1.00859024-.29085217 1.5033572.04980345.09237029.08172747.19436499.09163835.30600817.03590829.43309854-.30086267.81225224-.74909376.84694825-.34259796.02499941-.65132958-.15593954-.79481333-.43499936-.00204194-.00384976-.00204194-.00582277-.00398428-.00769953-.00592661-.01154929-.00991088-.02312265-.015962-.03467194-.05565783-.11761592-.10290967-.2380293-.14174261-.36038449l.0020846.01258041c.01994403.25781144-.08966099.49835207-.27884294.65612266l.00592594.00582108-.81670931.78890113c-.5437674.5254369-.5437674 1.3798131 0 1.9051538.5437923.5253408 1.42830135.5253408 1.97209365 0l2.1911045-2.1206061c.41820218-.40610472.51779783-1.00839438.29079443-1.50289779-.04979783-.0923676-.08169334-.19440493-.09160311-.30594362-.03590423-.43297312.30072909-.81211325.74890952-.84677515.342634-.02499217.6513557.15587032.7948232.43494555.0019421.00384865.0019421.00572487.0039838.0076973.005926.01157.0099098.02301974.0158357.03458974.0569508.11984305.1051448.24259224.1445711.3673442l-.0022999-.01784027c-.0199463-.25791017.0896711-.49852047.2788744-.65633676l-.0059266-.00582277.8167767-.78922584c.5438537-.52549289.5438537-1.3801166 0-1.90560949z" fill="#fff"/></g></svg>