<svg xmlns="http://www.w3.org/2000/svg" xmlns:xlink="http://www.w3.org/1999/xlink" fill="none" version="1.1" width="14" height="14" viewBox="0 0 14 14"><g><path d="M6.99999,0C3.13289,0,0,3.13293,0,6.99998C0,10.8662,3.1329,14,6.99999,14C10.867,14,14,10.8662,14,6.99998C14,3.13293,10.867,1.99878e-7,6.99999,0ZM7.64862,11.5516L5.76341,11.5516L5.76341,9.80132L7.64862,9.80132L7.64862,11.5516ZM8.73739,6.88035C7.90759,7.45459,7.54094,8.18955,7.63664,9.08181L5.76678,9.08181C5.67108,8.06138,6.06677,7.05298,6.92819,6.31888C6.95986,6.28726,7.00772,6.23937,7.07184,6.17531C7.74175,5.60103,8.10069,5.26344,8.10069,4.82245C8.10069,4.23361,7.61443,3.94054,7.22649,3.90804C6.7334,3.90804,5.99505,4.12428,5.99584,5.30101L4.29947,5.30101C4.29947,4.21739,4.72338,3.31323,5.39341,2.86628C5.90363,2.48344,6.63168,2.31937,7.3017,2.31937C8.92883,2.41508,9.7741,3.3235,9.83809,4.82247C9.90139,5.46172,9.53471,6.14711,8.7374,6.88036L8.73739,6.88035Z" fill="#216BFF" fill-opacity="1" style="mix-blend-mode:passthrough"/></g></svg>