<svg xmlns="http://www.w3.org/2000/svg" xmlns:xlink="http://www.w3.org/1999/xlink" fill="none" version="1.1" width="48" height="48" viewBox="0 0 48 48"><defs><linearGradient x1="0.5437896847724915" y1="0.26876866817474365" x2="0.5005842695138053" y2="1.1543899902732442" id="master_svg0_2468_90003"><stop offset="0%" stop-color="#FFFFFF" stop-opacity="1"/><stop offset="100%" stop-color="#F1AB72" stop-opacity="1"/></linearGradient></defs><g><g style="opacity:0;"><rect x="0" y="0" width="48" height="48" rx="0" fill="#D8D8D8" fill-opacity="1"/></g><g><path d="M38.075562109375,12.821619046325683C38.839462109375,12.911679046325684,39.535362109375,13.278639046325683,40.038262109375,13.837499046325684C40.621162109375,14.485089046325683,40.880162109375,15.393379046325684,40.815362109375,16.299999046325684L40.815362109375,16.362499046325684L39.261162109375,24.974999046325685C39.131662109375,26.464499046325685,37.901162109375,27.566299046325682,36.411762109375005,27.695799046325682L12.972872109375,29.314799046325685L13.037632109375,30.286199046325684C13.102392109375,31.192799046325682,13.944252109375,31.969899046325683,14.980392109375,31.969899046325683L38.548962109375,31.970799046325684C39.067062109375,31.970799046325684,39.520362109375,32.423599046325684,39.520362109375,32.94169904632568C39.520362109375,33.45969904632568,39.067062109375,33.912499046325685,38.548962109375,33.912499046325685L14.915632109375,33.912699046325685C12.908112109375,33.912699046325685,11.159622109375,32.35849904632568,11.030112109375,30.415699046325685L9.864452109375,11.441359046325683C9.864452109375,11.117559046325685,9.670172109375,10.858529046325684,9.411132109375,10.729009046325684L7.533131109375,9.887149046325684C7.015060509375,9.628109046325683,6.820784109375,9.110039046325683,7.015060509375,8.591968046325684C7.274095109375,8.073897446325683,7.792166109375,7.879621046325684,8.310232109375,8.073897446325683L10.253002109375,8.915762046325684C11.159622109375,9.369079046325684,11.742452109375,10.210939046325684,11.807212109375001,11.247079046325684L11.936732109375,12.801289046325683L28.743962109375,12.800449046325683L29.547862109375,12.970099046325684C31.551262109375,13.392939046325683,33.406762109374995,14.655149046325683,34.749162109375,16.508159046325684L35.501962109375,17.547389046325684C36.053162109374995,18.308199046325683,37.073562109375004,18.031799046325684,37.165362109374996,17.096859046325683L37.290962109375,15.819699046325685C37.395862109375,14.751349046325684,37.663962109375,13.738259046325684,38.075562109375,12.821619046325683ZM34.728162109375,39.999999046325684C33.476362109375,39.999999046325684,32.461462109375,38.985099046325686,32.461462109375,37.73329904632568C32.461462109375,36.48149904632568,33.476362109375,35.46669904632569,34.728162109375,35.46669904632569C35.979962109374995,35.46669904632569,36.994762109375,36.48149904632568,36.994762109375,37.73329904632568C36.994762109375,38.985099046325686,35.979962109374995,39.999999046325684,34.728162109375,39.999999046325684ZM14.462322109375,39.999999046325684C13.210542109375,39.999999046325684,12.195762109375,38.98519904632568,12.195762109375,37.73339904632569C12.195762109375,36.48169904632569,13.210542109375,35.46689904632568,14.462322109375,35.46689904632568C15.714112109375,35.46689904632568,16.728882109375,36.48169904632569,16.728882109375,37.73339904632569C16.728882109375,38.98519904632568,15.714112109375,39.999999046325684,14.462322109375,39.999999046325684Z" fill-rule="evenodd" fill="#FFFFFF" fill-opacity="1"/></g><g transform="matrix(0.9652211666107178,-0.26143479347229004,0.26143479347229004,0.9652211666107178,-0.3746268285658516,7.183912758005135)"><path d="M27.258315594482422,10.19464C26.665415594482422,10.46001,26.665415594482422,11.32826,27.258315594482422,11.593630000000001L28.35504059448242,12.084399999999999C29.781060594482422,12.722570000000001,30.92384059448242,13.88908,31.55831059448242,15.3542L31.91417059448242,16.1759C32.17474059448242,16.7775,33.00166059448242,16.7775,33.26209059448242,16.1759L33.618090594482425,15.3542C34.252560594482425,13.88908,35.39534059448242,12.722570000000001,36.82134059448242,12.084399999999999L37.917940594482424,11.593630000000001C38.51094059448242,11.32826,38.51094059448242,10.46001,37.917940594482424,10.19464L36.88274059448242,9.731290000000001C35.42003059448242,9.07671,34.25675059448242,7.86702,33.63310059448242,6.35212L33.26757059448242,5.464147C33.012920594482424,4.845284,32.16348059448242,4.845284,31.908680594482423,5.464147L31.543160594482423,6.35212C30.919650594482423,7.86702,29.756370594482423,9.07671,28.29369059448242,9.731290000000001L27.258315594482422,10.19464Z" fill="url(#master_svg0_2468_90003)" fill-opacity="1" style="mix-blend-mode:passthrough"/></g></g></svg>