<svg xmlns="http://www.w3.org/2000/svg" xmlns:xlink="http://www.w3.org/1999/xlink" fill="none" version="1.1" width="40" height="38" viewBox="0 0 40 38"><g><g><path d="M28.6282,38L0,38L3.42496,11.02185Q3.57387,9.74757,4.46734,8.873787Q5.36081,8,6.66379,8L28.8888,8Q30.2662,8,31.2342,9.01942Q32.1276,10.03883,31.9787,11.60437L28.6282,38ZM4.02061,34.6869L25.3522,34.6869L28.2559,11.2767L7.11052,11.2767L4.02061,34.6869ZM22.7834,12.55097L22.2995,16.33738L25.8361,16.33738L25.5011,19.2864L21.9272,19.2864L20.5498,30.2087Q20.4381,31.4466,19.7494,32.1201Q19.0607,32.7937,17.9066,32.7937Q17.4971,32.7937,17.311,32.7573Q15.2634,32.5024,12.8436,31.7743L13.2159,28.6432Q15.6729,29.2621,16.6409,29.4078L16.827,29.4078Q17.2737,29.4078,17.3854,28.9345L18.5022,19.9782Q16.4547,23.1092,13.9232,25.8034Q11.0939,28.7524,8.26458,30.7184L5.58418,28.716Q8.74855,26.5316,11.0939,24.2743Q13.4393,22.017,15.4496,19.2864L7.89231,19.2864L8.22736,16.33738L18.9118,16.33738L19.3957,12.55097L22.7834,12.55097Z" fill="#A180EB" fill-opacity="1"/></g><g><rect x="24" y="0" width="16" height="16" rx="8" fill="#F35B67" fill-opacity="1"/></g></g></svg>