<?xml version="1.0" encoding="UTF-8"?>
<svg width="48px" height="48px" viewBox="0 0 48 48" version="1.1" xmlns="http://www.w3.org/2000/svg" xmlns:xlink="http://www.w3.org/1999/xlink">
    <title>立即注册</title>
    <defs>
        <linearGradient x1="50%" y1="0.580901033%" x2="50%" y2="100%" id="linearGradient-1">
            <stop stop-color="#9392E6" offset="0%"></stop>
            <stop stop-color="#B16CF2" offset="100%"></stop>
        </linearGradient>
    </defs>
    <g id="PC端" stroke="none" stroke-width="1" fill="none" fill-rule="evenodd">
        <g id="按钮_kid" transform="translate(-74, -1711)">
            <g id="编组-17" transform="translate(54, 1553)">
                <g id="立即注册" transform="translate(20, 158)">
                    <rect id="矩形" fill="#D8D8D8" opacity="0" x="0" y="0" width="48" height="48"></rect>
                    <path d="M22.4,24 C31.4666667,24 36.8,28.8 38.4,38.4 L6.4,38.4 C8,28.8 13.3333333,24 22.4,24 Z M22.4,26 C15.2056026,26 10.8309464,29.2398874 8.94674837,36.0901238 L8.864,36.4 L35.935,36.4 L35.8532516,36.0901238 C34.0015397,29.3579949 29.7445073,26.1127935 22.7696111,26.0028912 L22.4,26 Z M22.4,8 C26.3764502,8 29.6,11.2235498 29.6,15.2 C29.6,19.1764502 26.3764502,22.4 22.4,22.4 C18.4235498,22.4 15.2,19.1764502 15.2,15.2 C15.2,11.2235498 18.4235498,8 22.4,8 Z M22.4,10 C19.5281193,10 17.2,12.3281193 17.2,15.2 C17.2,18.0718807 19.5281193,20.4 22.4,20.4 C25.2718807,20.4 27.6,18.0718807 27.6,15.2 C27.6,12.3281193 25.2718807,10 22.4,10 Z M36.8,10.4 C37.2418278,10.4 37.6,10.7581722 37.6,11.2 L37.6,14.4 L40.8,14.4 C41.2418278,14.4 41.6,14.7581722 41.6,15.2 C41.6,15.6418278 41.2418278,16 40.8,16 L37.6,16 L37.6,19.2 C37.6,19.6418278 37.2418278,20 36.8,20 C36.3581722,20 36,19.6418278 36,19.2 L36,16 L32.8,16 C32.3581722,16 32,15.6418278 32,15.2 C32,14.7581722 32.3581722,14.4 32.8,14.4 L36,14.4 L36,11.2 C36,10.7581722 36.3581722,10.4 36.8,10.4 Z" id="椭圆形" fill="url(#linearGradient-1)" fill-rule="nonzero"></path>
                </g>
            </g>
        </g>
    </g>
</svg>