<svg xmlns="http://www.w3.org/2000/svg" xmlns:xlink="http://www.w3.org/1999/xlink" fill="none" version="1.1" width="48.64045715332031" height="48" viewBox="0 0 48.64045715332031 48"><defs><linearGradient x1="0.5" y1="0" x2="0.5" y2="1" id="master_svg0_3448_054946"><stop offset="0%" stop-color="#9392E6" stop-opacity="1"/><stop offset="100%" stop-color="#B16CF2" stop-opacity="1"/></linearGradient><linearGradient x1="0.5" y1="0" x2="0.5" y2="1" id="master_svg1_3448_054946"><stop offset="0%" stop-color="#9392E6" stop-opacity="1"/><stop offset="100%" stop-color="#B16CF2" stop-opacity="1"/></linearGradient><linearGradient x1="0.5" y1="0" x2="0.5" y2="1" id="master_svg2_3448_054946"><stop offset="0%" stop-color="#9392E6" stop-opacity="1"/><stop offset="100%" stop-color="#B16CF2" stop-opacity="1"/></linearGradient></defs><g><g><g><path d="M39.69831108398438,36.558620351562496L39.69831108398438,21.9068603515625L37.605204083984376,21.9068603515625L37.605204083984376,36.558620351562496Q37.605204083984376,37.859111351562504,36.685617083984376,38.7786983515625Q35.76603108398437,39.6982843515625,34.46553808398437,39.6982843515625L13.534454783984376,39.6982843515625Q12.233962983984375,39.6982843515625,11.314376383984374,38.7786983515625Q10.394790383984375,37.859111351562504,10.394790383984375,36.558620351562496L10.394790383984375,21.9068603515625L8.301681783984375,21.9068603515625L8.301681783984375,36.558620351562496Q8.301681683984375,38.7261063515625,9.834325343984375,40.258751351562495Q11.366968183984374,41.791393351562505,13.534454783984376,41.791393351562505L34.46553808398437,41.791393351562505Q36.63302808398437,41.791393351562505,38.165670083984374,40.258751351562495Q39.69831108398438,38.7261083515625,39.69831108398438,36.558620351562496Z" fill-rule="evenodd" fill="url(#master_svg0_3448_054946)" fill-opacity="1"/></g><g transform="matrix(-0.9652211666107178,-0.26143479347229004,-0.26143479347229004,0.9652211666107178,99.13893460352483,13.188523346751026)"><path d="M46.631824017851564,37.21398684453125C46.03892358785156,37.47936054453125,46.03892358785156,38.34760384453125,46.631824017851564,38.61297704453125L47.72854884785156,39.10374924453125C49.15456844785156,39.74191614453125,50.297345647851564,40.90843294453125,50.93182274785156,42.37357414453125L51.28767774785156,43.19527614453125C51.54825354785156,43.79683614453125,52.37516494785156,43.79683614453125,52.635597247851564,43.19527614453125L52.99159524785156,42.37357414453125C53.62607244785156,40.90843294453125,54.768849347851564,39.74191614453125,56.19486904785156,39.10374924453125L57.29145004785156,38.61297704453125C57.884493047851564,38.34760384453125,57.884493047851564,37.47936054453125,57.29145004785156,37.21398684453125L56.25622304785156,36.75063994453125C54.793535247851565,36.09605884453125,53.630257647851565,34.88637064453125,53.00661034785156,33.37146404453125L52.64108184785156,32.48349547453125C52.38642644785156,31.86463236453125,51.536991547851564,31.86463236453125,51.28219274785156,32.48349547453125L50.91666464785156,33.37146404453125C50.29316044785156,34.88637064453125,49.12988324785156,36.09605884453125,47.66719524785156,36.75063994453125L46.631824017851564,37.21398684453125Z" fill="#B16DF2" fill-opacity="1" style="mix-blend-mode:passthrough"/><path d="M44.187148547851564,37.91348214453125Q44.187148547851564,39.70997094453125,45.81476205785156,40.43846604453125L46.91163402785156,40.92930414453125Q48.41903404785156,41.60388944453125,49.09652094785156,43.16834914453125L49.45239044785156,43.99008514453125Q50.16987134785156,45.64644514453125,51.96169134785156,45.64644514453125Q53.753800347851566,45.64644514453125,54.47098064785156,43.98986414453125L54.826766047851564,43.16865114453125Q55.50438404785156,41.60388944453125,57.011826047851564,40.92928504453125L58.108454047851566,40.43849184453125Q59.73623204785156,39.710097744531254,59.73623204785156,37.91348214453125Q59.73623204785156,36.11686854453125,58.10835404785156,35.38842484453125L57.073276047851564,34.92514734453125Q55.52355954785156,34.23161884453125,54.856026647851564,32.61010795453125L54.49051574785156,31.72218316453125Q53.78981684785156,30.01934814453125,51.961690947851565,30.01934814453125Q50.13385244785156,30.01934814453125,49.43280814785156,31.72206491453125L49.06723094785156,32.61015296453125Q48.399871347851565,34.23161314453125,46.850233437851564,34.92510624453125L45.81486522785156,35.38845184453125L45.814761157851564,35.38849834453125Q44.18714884785156,36.11699484453125,44.187148547851564,37.91348214453125ZM47.51502634785156,39.00820014453125L46.631824017851564,38.61297704453125C46.03892358785156,38.34760384453125,46.03892358785156,37.47936054453125,46.631824017851564,37.21398684453125L47.51499904785156,36.81875034453125L47.51687284785156,36.81791164453125L47.66719524785156,36.75063994453125C49.10157204785156,36.10872844453125,50.24801634785156,34.93299104453125,50.87985464785156,33.45908484453125C50.88251064785156,33.45288894453125,50.88515804785156,33.44668794453125,50.887795947851565,33.44048154453125C50.89754344785156,33.41754714453125,50.907166447851566,33.39454104453125,50.91666464785156,33.37146404453125L51.28219274785156,32.48349547453125C51.536991547851564,31.86463236453125,52.38642644785156,31.86463236453125,52.64108184785156,32.48349547453125L53.00661034785156,33.37146404453125C53.01610614785156,33.39453044453125,53.02572724785156,33.41752604453125,53.03547234785156,33.44045004453125C53.038113547851566,33.44666364453125,53.040764347851564,33.45287194453125,53.04342414785156,33.45907484453125C53.67539644785156,34.93298574453125,54.82184314785157,36.10872694453125,56.25622304785156,36.75063994453125L56.406467047851564,36.81788634453125L56.408330047851564,36.81871984453125L57.29145004785156,37.21398684453125C57.884493047851564,37.47936054453125,57.884493047851564,38.34760384453125,57.29145004785156,38.61297704453125L56.40830504785156,39.008226444531246L56.40643904785156,39.00906184453125L56.19486904785156,39.10374924453125C54.81328584785156,39.72203014453125,53.69756744785156,40.83624644453125,53.052381947851565,42.23748514453125C53.05074594785156,42.24103714453125,53.049113747851564,42.24459314453125,53.04748394785156,42.248149144531254C53.02843904785156,42.28970814453125,53.009807547851565,42.33151814453125,52.99159524785156,42.37357414453125L52.635597247851564,43.19527614453125C52.37516494785156,43.79683614453125,51.54825354785156,43.79683614453125,51.28767774785156,43.19527614453125L50.93182274785156,42.37357414453125C50.91358854785156,42.331467144531246,50.894934647851564,42.289607144531246,50.875865947851565,42.24799914453125C50.874239447851565,42.24444914453125,50.87260964785156,42.24090314453125,50.87097694785156,42.23735714453125C50.22578234785156,40.83617874453125,49.110090047851564,39.72201154453125,47.72854884785156,39.10374924453125L47.51689924785156,39.00903844453125L47.51502634785156,39.00820014453125Z" fill-rule="evenodd" fill="#FFFFFF" fill-opacity="1"/></g><g><path d="M33.046555,29.9999995L33.046555,22L30.953446,22L30.953446,29.9999995Q30.953446,30.394930799999997,30.674189,30.6741886Q30.394932,30.9534454,30,30.9534454L18,30.9534454Q17.6050702,30.9534454,17.3258126,30.674187699999997Q17.0465544,30.3949289,17.0465546,29.9999981L17.0465543,22L14.9534457,22L14.9534458,29.9999981Q14.9534456,31.261923799999998,15.84576054,32.154239000000004Q16.73807466,33.046554,18,33.046554L30,33.046554Q31.261926000000003,33.046554,32.15424,32.15424Q33.046555,31.2619247,33.046555,29.9999995Z" fill-rule="evenodd" fill="url(#master_svg1_3448_054946)" fill-opacity="1"/></g><g><path d="M35.64004551757812,21.705535953125Q37.035392517578124,22.953440953125,38.98706851757812,22.953440953125Q41.145526517578126,22.953440953125,42.803173517578124,21.317091953125Q44.799930517578126,19.345986953125,43.68586351757813,17.073646553125002L39.909629517578125,8.127296923125Q39.09973151757813,6.208572653125,37.01708651757812,6.208572653125L10.982937817578126,6.208572553125Q8.900274017578125,6.208572653125,8.090389017578126,8.127314983125L4.296859857578125,17.114991153125Q3.232056217578125,19.731378953125002,5.228725687578125,21.543499953125Q6.7822574175781245,22.953440953125,9.012946117578124,22.953440953125Q10.964625817578124,22.953440953125,12.359972517578125,21.705535953125Q12.575971617578125,21.512360953125,12.759713617578125,21.306635953125Q12.943452317578124,21.512358953125002,13.159453417578124,21.705535953125Q14.554801017578125,22.953440953125,16.506477517578126,22.953440953125Q18.458156517578125,22.953440953125,19.853505517578125,21.705535953125Q20.069501517578125,21.512362953125,20.253245517578126,21.306636953125Q20.436986517578127,21.512362953125,20.652982517578124,21.705534953125Q22.048328517578124,22.953440953125,24.000009517578125,22.953440953125Q25.951684517578126,22.953440953125,27.347032517578125,21.705535953125Q27.563037517578124,21.512354953124998,27.746776517578127,21.306634953125Q27.930517517578124,21.512359953125,28.146516517578124,21.705535953125Q29.541862517578124,22.953440953125,31.493543517578125,22.953440953125Q33.44522051757812,22.953440953125,34.84056451757813,21.705534953125Q35.056566517578126,21.512357953125,35.240304517578124,21.306635953125Q35.42404351757813,21.512359953125,35.64004551757812,21.705535953125ZM34.19374651757812,18.556028953125L36.286855517578125,18.556028953125Q36.286855517578125,19.475931953125,37.035366517578126,20.145351953125Q37.83482751757813,20.860332953125003,38.98706851757812,20.860332953125003Q40.286453517578124,20.860332953125003,41.332725517578126,19.827501953125Q42.26301951757812,18.909159953125,41.797561517578124,17.977045953125L41.78265751757812,17.947202953125L37.98126951757813,8.941259753125Q37.71130351757812,8.301681253125,37.01708651757812,8.301681253125L10.982937817578126,8.301681153125Q10.288716817578125,8.301681153125,10.018754917578125,8.941262153125L6.235564817578125,17.903994953125Q5.722397687578125,19.164925953125,6.635413217578125,19.993552953125Q7.590467217578125,20.860332953125003,9.012946117578124,20.860332953125003Q10.165192117578126,20.860332953125003,10.964648217578125,20.145351953125Q11.713158617578124,19.475933953125,11.713158617578124,18.556028953125L13.806267717578125,18.556028953125Q13.806267717578125,19.475934953124998,14.554777117578125,20.145351953125Q15.354233517578125,20.860332953125003,16.506477517578126,20.860332953125003Q17.658724517578126,20.860332953125003,18.458181517578126,20.145351953125Q19.206691517578125,19.475934953124998,19.206691517578125,18.556028953125L21.299800517578124,18.556028953125Q21.299800517578124,19.475934953124998,22.048309517578126,20.145351953125Q22.847764517578124,20.860332953125003,24.000009517578125,20.860332953125003Q25.152252517578123,20.860332953125003,25.951709517578124,20.145351953125Q26.700221517578125,19.475931953125,26.700221517578125,18.556028953125L28.793331517578125,18.556028953125Q28.793331517578125,19.475934953124998,29.541839517578126,20.145351953125Q30.341295517578125,20.860332953125003,31.493543517578125,20.860332953125003Q32.64578451757812,20.860332953125003,33.445238517578126,20.145351953125Q34.19374651757812,19.475933953125,34.19374651757812,18.556028953125Z" fill-rule="evenodd" fill="url(#master_svg2_3448_054946)" fill-opacity="1"/></g></g></g></svg>