<svg xmlns="http://www.w3.org/2000/svg" xmlns:xlink="http://www.w3.org/1999/xlink" fill="none" version="1.1" width="16" height="16" viewBox="0 0 16 16"><defs><clipPath id="master_svg0_975_33509"><rect x="0" y="0" width="16" height="16" rx="0"/></clipPath></defs><g clip-path="url(#master_svg0_975_33509)"><g><path d="M3.60313,9.2640625C3.19531,9.2640625,2.99844,9.6156225,2.99844,10.3187525C2.99844,11.0218725,3.19531,11.3874625,3.60313,11.3874625C3.99688,11.3874625,4.19375,11.0359425,4.19375,10.3328125C4.19375,9.6171925,3.99687,9.2640625,3.60313,9.2640625ZM6.75469,9.2781225L6.2625,9.2781225L6.2625,10.1500025L6.75469,10.1500025C6.95156,10.1500025,7.07812,10.1078125,7.14844,10.0234425C7.21875,9.9390625,7.26094,9.8406225,7.26094,9.7281225C7.26094,9.6015625,7.21875,9.4890625,7.13438,9.4046825C7.05,9.3203125,6.92344,9.2781225,6.75469,9.2781225ZM13.0984,5.9312525L12.6484,5.9312525L8.35781,1.4718745C8.315629999999999,1.4296875,8.25938,1.3874999,8.21719,1.359375C8.14688,1.3171875,8.07656,1.2890625,7.99219,1.2890625C7.90781,1.2890625,7.8375,1.303125,7.76719,1.359375C7.71094,1.3875,7.66875,1.4296875,7.62656,1.4718745L3.33594,5.9312525L2.8859399999999997,5.9312525C1.84375,5.9312525,1,6.7765625,1,7.8156225L1,12.8249625C1,13.8656625,1.84375,14.7109625,2.8859399999999997,14.7109625L13.1141,14.7109625C14.1547,14.7109625,15,13.8671625,15,12.8249625L15,7.8156225C14.9844,6.7765625,14.1406,5.9312525,13.0984,5.9312525ZM4.62969,11.5156625C4.39062,11.8390625,4.03906,12.0078625,3.575,12.0078625C3.13906,12.0078625,2.7875,11.8390625,2.5484400000000003,11.5156625C2.30937,11.1781225,2.18281,10.7843725,2.18281,10.3203125C2.18281,9.8421925,2.30938,9.4484425,2.5484400000000003,9.1250025C2.7875,8.8015625,3.13906,8.6468725,3.58906,8.6468725C4.03906,8.6468725,4.39062,8.8156225,4.62969,9.1531225C4.86875,9.4906225,4.98125,9.8843725,4.98125,10.3203125C4.99531,10.7984425,4.86875,11.1921925,4.62969,11.5156625ZM7.95,10.1656225C7.87969,10.3203125,7.79531,10.4468725,7.68281,10.5312525C7.57031,10.6156225,7.45781,10.6718725,7.34531,10.7000025C7.23281,10.7281225,7.06406,10.7421825,6.825,10.7421825L6.29062,10.7421825L6.29062,11.9515625L5.51719,11.9515625L5.51719,8.6875025L6.81094,8.6875025C7.09219,8.6875025,7.31719,8.7156225,7.47187,8.785932500000001C7.62656,8.8421825,7.76719,8.9546825,7.87969,9.1093725C8.00625,9.2640625,8.0625,9.4609425,8.0625,9.6859425C8.03594,9.8562525,8.00781,10.0109425,7.95,10.1656225ZM10.80625,9.3062525L9.24375,9.3062525L9.24375,9.9828125L10.46719,9.9828125L10.46719,10.6015625L9.24375,10.6015625L9.24375,11.3187625L10.80625,11.3187625L10.80625,11.9656625L8.47031,11.9656625L8.47031,8.6875025L10.80625,8.6875025L10.80625,9.3062525ZM4.97031,5.9359325L7.99063,2.8062525000000003L11.0125,5.9359325L4.97031,5.9359325ZM13.7891,11.9656625L13.1281,11.9656625L11.8484,9.7562525L11.8484,9.8687525C11.8484,9.9250025,11.8625,9.9671925,11.8625,10.0093725L11.8625,11.9656625L11.2719,11.9656625L11.2719,8.6875025L12.1016,8.6875025L13.2125,10.6156225C13.1984,10.5171925,13.1984,10.4468725,13.1984,10.4046925L13.1984,8.6875025L13.7891,8.6875025L13.7891,11.9656625Z" fill="#216BFF" fill-opacity="1" style="mix-blend-mode:passthrough"/></g></g></svg>