<svg xmlns="http://www.w3.org/2000/svg" xmlns:xlink="http://www.w3.org/1999/xlink" fill="none" version="1.1" width="10" height="10" viewBox="0 0 10 10"><g><path d="M10,7.45555L10,9.42005C10,9.71172,9.7745,9.95372,9.48361,9.97428C9.24061,9.99144,9.04239,10,8.88889,10C3.97967,10,0,6.02033,0,1.11111C0,0.957617,0.00858333,0.759372,0.02575,0.516389C0.0463166,0.225489,0.2883,0,0.579922,0L2.5445,0C2.6871,0,2.80653,0.108011,2.82085,0.249889C2.83371,0.377261,2.84565,0.479522,2.8567,0.556678C2.96908,1.34151,3.19863,2.08853,3.52705,2.77946C3.57977,2.89036,3.54539,3.02311,3.44547,3.09448L2.24642,3.951C2.9764,5.65617,4.34383,7.02361,6.049,7.75361L6.90394,6.55661C6.97622,6.4555,7.11055,6.42072,7.22278,6.474C7.91367,6.80217,8.66061,7.03144,9.44533,7.14356C9.522,7.15455,9.62361,7.16639,9.75011,7.17917C9.892,7.1935,10,7.31294,10,7.45555Z" fill="#999999" fill-opacity="1"/></g></svg>