<svg xmlns="http://www.w3.org/2000/svg" xmlns:xlink="http://www.w3.org/1999/xlink" fill="none" version="1.1" width="16" height="16" viewBox="0 0 16 16"><defs><clipPath id="master_svg0_975_33504"><rect x="0" y="0" width="16" height="16" rx="0"/></clipPath></defs><g clip-path="url(#master_svg0_975_33504)"><g><path d="M1,8L4.5,14.5L11.5,14.5L8.5,8L1,8Z" fill="#216BFF" fill-opacity="1"/></g><g style="opacity:0.6000000238418579;"><path d="M8,8.5L12,14.5L16,8.5L12,2L8,8.5Z" fill="#216BFF" fill-opacity="1"/></g><g><path d="M15.9,7.9000244140625L12.3,1.3000244140625C12.3,1.2000244140625,12.2,1.2000244140625,12.1,1.1000244140625C12,1.1000244140625,12,1.0000244140625,11.9,1.0000244140625L4.4,0.9000244140625C4.2,0.9000244140625,4,1.0000244140625,3.9,1.2000244140625L0.1,7.6000244140625C0,7.7000244140625,0,7.8000244140625,0,7.9000244140625C0,8.0000244140625,0,8.0000244140625,0.1,8.1000244140625L3.7,14.7000244140625C3.8,14.9000244140625,3.9,15.0000244140625,4.1,15.0000244140625L11.6,15.1000244140625C11.7,15.1000244140625,11.8,15.1000244140625,11.8,15.0000244140625C11.9,15.0000244140625,11.9,14.9000244140625,12,14.8000244140625L15.9,8.4000244140625C16,8.2000244140625,16,8.0000244140625,15.9,7.9000244140625ZM4.6,1.9000244140625L11,2.1000244140625L7.8,7.6000244140625L1.4,7.4000244140625L4.6,1.9000244140625ZM1.4,8.4000244140625L7.8,8.6000244140625L10.8,14.1000244140625L4.5,14.0000244140625L1.4,8.4000244140625ZM11.7,13.6000244140625L8.7,8.1000244140625L11.9,2.6000244140625L15,8.1000244140625L11.7,13.6000244140625Z" fill="#216BFF" fill-opacity="1" style="mix-blend-mode:passthrough"/></g></g></svg>