<?xml version="1.0" encoding="UTF-8"?>
<svg width="48px" height="48px" viewBox="0 0 48 48" version="1.1" xmlns="http://www.w3.org/2000/svg" xmlns:xlink="http://www.w3.org/1999/xlink">
    <title>编组 16</title>
    <g id="PC端" stroke="none" stroke-width="1" fill="none" fill-rule="evenodd">
        <g id="按钮_kid" transform="translate(-1042, -1711)">
            <g id="编组-17备份-6" transform="translate(1022, 1565)">
                <g id="编组-16" transform="translate(20, 146)">
                    <rect id="矩形" x="0" y="0" width="48" height="48"></rect>
                    <circle id="椭圆形" stroke="#FFFFFF" stroke-width="2" cx="22.4" cy="15.2" r="6.2"></circle>
                    <path d="M36.587868,10.987868 C36.8828427,10.9 36.9578427,10.9335786 37.012132,10.987868 C37.0664214,11.0421573 37.1,11.1171573 37.1,11.2 L37.1,14.9 L40.8,14.9 C40.8828427,14.9 40.9578427,14.9335786 41.012132,14.987868 C41.0664214,15.0421573 41.1,15.1171573 41.1,15.2 C41.1,15.2828427 41.0664214,15.3578427 41.012132,15.412132 C40.9578427,15.4664214 40.8828427,15.5 40.8,15.5 L37.1,15.5 L37.1,19.2 C37.1,19.2828427 37.0664214,19.3578427 37.012132,19.412132 C36.9578427,19.4664214 36.8828427,19.5 36.8,19.5 C36.7171573,19.5 36.6421573,19.4664214 36.587868,19.412132 C36.5335786,19.3578427 36.5,19.2828427 36.5,19.2 L36.5,15.5 L32.8,15.5 C32.7171573,15.5 32.6421573,15.4664214 32.587868,15.412132 C32.5335786,15.3578427 32.5,15.2828427 32.5,15.2 C32.5,15.1171573 32.5335786,15.0421573 32.587868,14.987868 C32.6421573,14.9335786 32.7171573,14.9 32.8,14.9 L36.5,14.9 L36.5,11.2 C36.5,11.1171573 36.5335786,11.0421573 36.587868,10.987868 Z" id="形状结合" stroke="#FFFFFF" fill="#D8D8D8"></path>
                    <path d="M22.4,25 C26.642735,25 30.0295451,26.091953 32.5310353,28.3432941 C34.8324544,30.4145714 36.3704337,33.4439399 37.1956845,37.4 L7.60431554,37.4 C8.4295663,33.4439399 9.96754558,30.4145714 12.2689647,28.3432941 C14.7704549,26.091953 18.157265,25 22.4,25 Z" id="矩形" stroke="#FFFFFF" stroke-width="2"></path>
                </g>
            </g>
        </g>
    </g>
</svg>