<svg width="48" height="48" xmlns="http://www.w3.org/2000/svg">
    <g fill-rule="nonzero" stroke="#FFF" stroke-width="2" fill="none">
        <path
            d="M14.028 8.656c.747.483 1.936 2 3.568 4.553l.004-.003a5 5 0 01.075 5.263c-.568.944-.951 1.577-1.15 1.9-.465.76-.477 1.71-.057 2.826.157.422.354.814.586 1.182l.477.718c.189.278.417.6.651.914.602.808 1.194 1.511 1.747 2.066.548.552 1.249 1.143 2.054 1.74.473.35.954.682 1.311.909l.08.054c.402.284.91.557 1.442.756 1.066.402 1.989.41 2.727.004l.09-.055a40.64 40.64 0 002.11-1.378 4.553 4.553 0 014.778.093c2.74 1.763 4.358 3.034 4.855 3.814.551.87.74 1.671.555 2.37-.369 1.296-1.604 2.334-3.47 3.006-1.998.724-4.34.808-6.618.24a29.937 29.937 0 01-7.229-2.846 29.533 29.533 0 01-5.988-4.353l-.54-.523a29.304 29.304 0 01-4.867-6.521 29.965 29.965 0 01-2.847-7.227c-.568-2.268-.484-4.603.238-6.613.672-1.86 1.803-3.134 3.04-3.477.671-.186 1.48.012 2.378.588z" />
        <path stroke-linecap="round" d="M24 17v2M32 17v2M40 17v2M28 14v8M36 14v8" />
    </g>
</svg>