<svg xmlns="http://www.w3.org/2000/svg" xmlns:xlink="http://www.w3.org/1999/xlink" fill="none" version="1.1" width="15.9920072555542" height="15.989812850952148" viewBox="0 0 15.9920072555542 15.989812850952148"><g><path d="M7.32184,0.210123C7.73344,-0.078957,8.28468,-0.0689019,8.68545,0.234997L15.5426,5.12356C15.8799,5.36646,16.0481,5.78124,15.9752,6.19047C15.9255,6.4774,15.7638,6.72348,15.5257,6.88515L15.5177,6.89404L14.3211,7.68111L14.3211,11.4326L14.2962,11.5001C14.1283,12.0058,13.7427,12.4096,13.2453,12.6008L9.03102,15.6673C8.71655,15.8717,8.36032,15.9898,7.9881,15.9898C7.63277,15.9898,7.28453,15.8779,6.97983,15.6753L1.81854,12.1681C1.33356,11.8268,1.0452,11.2706,1.04568,10.6775L1.04568,10.475C1.03731,10.0611,1.25988,9.67687,1.62311,9.47824C1.97933,9.27392,2.42084,9.28991,2.76907,9.5191L8.26171,13.2519C8.45592,13.3966,8.50136,13.6687,8.36468,13.8686C8.22801,14.0685,7.95794,14.1249,7.75269,13.9964L2.26716,10.2618C2.20768,10.2244,2.13209,10.2244,2.07261,10.2618C2.00295,10.2973,1.96031,10.3702,1.96334,10.4483L1.96334,10.6775C1.96334,10.9751,2.10548,11.2549,2.35244,11.4326L7.48974,14.9309C7.64254,15.0322,7.81221,15.0837,7.98988,15.0837C8.16755,15.0837,8.3541,15.0242,8.50778,14.9149L12.8207,11.7791L12.8891,11.7551C13.13,11.6761,13.3247,11.4966,13.423,11.2629L13.423,8.25587L8.01475,11.8892L0.528662,6.8665C0.409673,6.78465,0.3067,6.68167,0.224848,6.56269C0.0331087,6.29638,-0.0404732,5.96285,0.0214166,5.64058C0.0818241,5.31722,0.259493,5.03029,0.531327,4.84374L7.32184,0.210123ZM7.16816,3.01374L7.16816,7.64824C7.16816,7.8348,7.37959,7.94406,7.53238,7.8348L10.7802,5.52243C10.9065,5.42942,10.9065,5.24057,10.7802,5.14755L7.53238,2.83607C7.37959,2.72681,7.16816,2.82719,7.16816,3.01374Z" fill="#216BFF" fill-opacity="1" style="mix-blend-mode:passthrough"/></g></svg>