<?xml version="1.0" encoding="UTF-8"?>
<svg width="48px" height="48px" viewBox="0 0 48 48" version="1.1" xmlns="http://www.w3.org/2000/svg" xmlns:xlink="http://www.w3.org/1999/xlink">
    <title>浅主图标/操作/iPad会前/浅主图标_操作_在线客服_黑_60</title>
    <defs>
        <linearGradient x1="50%" y1="0%" x2="50%" y2="100%" id="linearGradient-1">
            <stop stop-color="#8786E3" offset="0%"></stop>
            <stop stop-color="#A85BF0" offset="100%"></stop>
        </linearGradient>
        <linearGradient x1="50%" y1="0%" x2="50%" y2="100%" id="linearGradient-2">
            <stop stop-color="#ABAAFA" offset="0%"></stop>
            <stop stop-color="#9D65E6" offset="100%"></stop>
        </linearGradient>
        <linearGradient x1="50%" y1="0%" x2="50%" y2="100%" id="linearGradient-3">
            <stop stop-color="#8786E3" offset="0%"></stop>
            <stop stop-color="#A85BF0" offset="100%"></stop>
        </linearGradient>
        <linearGradient x1="50%" y1="0%" x2="50%" y2="100%" id="linearGradient-4">
            <stop stop-color="#8786E3" offset="0%"></stop>
            <stop stop-color="#A85BF0" offset="100%"></stop>
        </linearGradient>
        <linearGradient x1="50%" y1="0%" x2="50%" y2="100%" id="linearGradient-5">
            <stop stop-color="#8786E3" offset="0%"></stop>
            <stop stop-color="#A85BF0" offset="100%"></stop>
        </linearGradient>
    </defs>
    <g id="PC端" stroke="none" stroke-width="1" fill="none" fill-rule="evenodd" opacity="0.9">
        <g id="按钮_kid" transform="translate(-74, -1593)" stroke-width="2">
            <g id="编组-17" transform="translate(54, 1553)">
                <g id="浅主图标/操作/iPad会前/浅主图标_操作_在线客服_黑_60" transform="translate(20, 40)">
                    <g transform="translate(7.2, 8)">
                        <path d="M4.8,23.2 L4.8,12 C4.8,5.372583 10.172583,0 16.8,0 C23.427417,0 28.8,5.372583 28.8,12 L28.8,19.6 C28.8,24.972085 25.2699547,29.5196836 20.4029497,31.0497104" id="Path" stroke="url(#linearGradient-1)" stroke-linecap="round"></path>
                        <path d="M4.8,23.2 L3.64,23.2 C1.62968351,23.2 0,21.8031284 0,20.08 L0,16.72 C0,14.9968716 1.62968351,13.6 3.64,13.6 L4.8,13.6" id="Path" stroke="url(#linearGradient-2)"></path>
                        <path d="M33.6,23.2 L32.44,23.2 C30.4296835,23.2 28.8,21.8031284 28.8,20.08 L28.8,16.72 C28.8,14.9968716 30.4296835,13.6 32.44,13.6 L33.6,13.6" id="Path" stroke="url(#linearGradient-2)" transform="translate(31.2, 18.4) scale(-1, 1) translate(-31.2, -18.4)"></path>
                        <rect id="Rectangle" stroke="url(#linearGradient-3)" stroke-linecap="round" x="13.6" y="28.8" width="6.4" height="3.2" rx="1.5"></rect>
                        <path d="M12.4,5.57200006 C12.4606459,7.07706497 12.4909688,7.82959742 12.4909688,7.82959742 C10.8362686,9.66537838 9.77721823,11.0541771 9.31381759,11.9959937 C8.12128145,14.4197069 8.02786334,17.4705436 8.47609519,19.6007111 C8.97456876,21.9696464 9.74629992,24.0849791 12.2858671,25.5088578" id="Path-4" stroke="url(#linearGradient-4)" stroke-linecap="round"></path>
                        <path d="M12.6603928,7.56084972 C16.1168815,11.9889418 20.0108249,14.3784478 24.3422227,14.7293676 C25.0548195,14.7100049 25.4346042,15.313477 25.4815768,16.5397841 C25.5437288,19.1867428 24.6844772,21.8697976 22.9038219,24.5889482" id="Path-5" stroke="url(#linearGradient-5)" stroke-linecap="round"></path>
                    </g>
                </g>
            </g>
        </g>
    </g>
</svg>