<svg xmlns="http://www.w3.org/2000/svg" fill="none" width="24" height="24"><g opacity=".7"><circle cx="12" cy="12" stroke="#000" stroke-width="1.5" stroke-linecap="ROUND" stroke-linejoin="round" r="9"/><path d="M12.15 9.15q.06 0 .118-.006.059-.006.116-.017.058-.012.115-.029.056-.017.11-.04.055-.022.107-.05.052-.027.101-.06.05-.033.095-.07.045-.038.087-.08.042-.041.079-.087.037-.045.07-.094.033-.05.06-.101.028-.052.051-.107.023-.054.04-.11.017-.057.028-.115.012-.058.018-.116.005-.059.005-.118t-.005-.118q-.006-.058-.018-.116-.011-.058-.028-.114-.017-.057-.04-.111-.023-.055-.05-.107-.028-.052-.06-.1-.034-.05-.071-.095-.037-.046-.08-.088-.04-.041-.086-.079-.046-.037-.095-.07-.049-.033-.1-.06-.053-.028-.107-.05-.055-.023-.111-.04-.057-.017-.115-.029-.057-.011-.116-.017-.059-.006-.118-.006t-.117.006q-.059.006-.117.017-.058.012-.114.029t-.11.04q-.055.022-.107.05-.052.027-.101.06-.05.033-.095.07-.045.038-.087.08-.042.041-.08.087-.037.045-.07.094-.032.05-.06.101-.028.052-.05.107-.023.054-.04.11-.017.057-.029.115-.011.058-.017.116-.006.06-.006.118 0 .059.006.118.006.058.017.116.012.058.029.114.017.057.04.111.022.055.05.107.028.052.06.1.033.05.07.095.038.046.08.088.042.041.087.079.046.037.095.07.049.033.1.06.053.028.107.05.055.023.111.04t.114.029q.058.011.117.017.058.006.117.006zm-1.95 6.6c0 .414.336.75.75.75h2.4l.158-.013c.84-.149.787-1.487-.158-1.487H12.9l.001-4.05-.012-.135a.75.75 0 00-.738-.615h-1.2l-.134.012a.75.75 0 00-.616.738l.012.135a.75.75 0 00.738.615h.449V15h-.449l-.134.012a.75.75 0 00-.616.738z" fill-rule="evenodd" fill="#000"/></g></svg>