<svg height="18" viewBox="0 0 18 18" width="18" xmlns="http://www.w3.org/2000/svg" xmlns:xlink="http://www.w3.org/1999/xlink"><mask id="a" fill="#fff"><path d="m.00131868.01621978h17.98246152v17.98375822h-17.98246152z" fill="#fff" fill-rule="evenodd"/></mask><g fill="none" fill-rule="evenodd"><path d="m9.32846154 2.90134066c.08241758-.02747253.1718022-.05494506.23360439-.1030989.0412088-.03435165.21978022-.19918681.22665934-.24039561.04806594-.16483516 0-.1510989-.15797802-.2541978-.10301099-.06868132-.22672527-.18545055-.35035165-.24725275.03432967.27481319.04806594.55639561.04806594.84494506 0-.00685714 0 0 0 0zm-.16483517-.89989011c.04120879.00685714.08241759.02747253.12362638.04806593-.01373627-.12362637-.02747253-.24037362-.04806594-.35723077-.10303296.07556044-.21292307.21301099-.26786813.30228572.04808791-.00685714.10989011-.00685714.19230769.00687912zm-.33661538 2.8507033c.02059341.00685714.04120879.01373626.06868132.0205934-.06182418-.03432967-.11676923-.08241758-.16483517-.12362637 0 .03435165.02747253.06868132.09615385.10303297zm.13057143-2.84384616c0-.00685714.00687912-.01373626.00687912-.01373626-.16492308.02747253-.1718022.17857143-.19927473.32975824.00687912-.00694505.01373627-.00694505.02061539-.01382418.10989011-.09615384.10989011-.17857142.17178022-.3021978z" fill="#1296db" mask="url(#a)"/><path d="m8.99193407.01621978c-4.96652748 0-8.99193407 4.02540659-8.99193407 8.99191209 0 4.96643953 4.02540659 8.99184613 8.99193407 8.99184613 4.96641753 0 8.99184613-4.0254066 8.99184613-8.99184613 0-4.9665055-4.0254286-8.99191209-8.99184613-8.99191209zm5.74270333 3.51021978c-.3091649.00685714-.5289451.00685714-.7762858.17857143-.1030109.06868132-.1716923.15804396-.2953186.19925275-.1168352.03432967-.2404616.00685714-.3503517.04120879-.4053187.13736263-.3434945 1.01665934-.8792967.87920879-.2541319-.06182418-.4327912-.36402198-.5564176-.55641758-.1098901-.17169231-.315934-.31593407-.1785714-.52892308-.0618022.01373626-.1304835 0-.1923956.00687912.0893846-.19230769.3778462-.17171429.4259121-.26786813.1168571-.24046154-.3296703-.26793407-.4602418-.30228572.1511868-.16483516.2336044.05494506.3847033.02061539.1442198-.03435165-.0755604-.22665934-.1648351-.24725275-.0343517-.00687912-.5426814.14421978-.2473407-.12371428-.364022-.23351649-.734967-.46703297-1.0990769-.70063737-.0618022.26107693.4877362.40529671.6663736.50145055-.0275385.10989011-.1923736.26107693-.3228791.21986813-.1236264-.0412967-.0686813-.24046153-.2541978-.21986813-.1305055.30228572.2748132.21301099.3091428.39843956.0412088.21292308-.1510989.12362638-.2266373.11676923-.0206154 0-.158066-.14424175-.1649231-.03435164-.0068791.13050549.2267253.08241758.2404615.21292307-.267934.01373627-.4121758-.0892967-.63204392-.23351648-.24037362-.15797802-.37087912-.15797802-.63195604-.15797802 0 .11676923-.00685714.22665934-.00685714.34340659.18551648-.02059341.44650549.10997802.5563956.12371429.1511868.02061538.2404835.22665934.3229011.31593406.0549451.05494506.1510989.17865934.2472527.16492308.1511869-.02061539.0893627-.15804396.1786594-.21298901.2403736-.16483517.3021978.0618022.3984176.28167033.0892967.2129011.1717143.28846154.3296703.42591209.0755604.06180219.3984396.28846153.3641099.42582417-.0206154.09624176-.3915824.2336044-.4877363.26793407-.3640879.11676923-1.0372527-.18542857-1.1127912.38470329.1373627-.05494505.5358022-.37782417.6594286-.21986813.054945.06868132-.0412088.1718022-.0206154.24048352.0686813.20604395.2266593.13736264.3984396.10301099-.0137363.00687912-.0206154.01373626-.0343517.02061538.2335165-.11676923.206044-.09615384.3090769-.28854945.0343297-.06182417.0825055-.21292308.1374506-.26098901.1648352-.1510989.1923077-.04808791.2953187.06868132.0274725.03432967.2816923.39843956.1923956.3847033-.2954066-.06182418-.5839561-.05494506-.8312088.10989011-.1442418.09615384-.2748132.21978022-.4465055.28158241-.0412088.01382418-.3434945.04129671-.3091648-.00685714.0550329-.07556044.2336043-.12362637.3022857-.20604396-.1991649-.08241758-.3572308.09615385-.5151868.19916484-.1648352.07564835-.1991869.21986813-.34349455.35037363-.06182418.05494505-.17857143.06180219-.23351649.13736263-.05494505.06874726-.06182417.17863737-.11676923.24731868-.04120879.04808792-.13745055.02061539-.17865934.08929671-.05494505.08927472.04808792.17857143.02747253.24734066-.04120879.12362637-.26784615.21978022-.35714286.30905494l.03435165-.03432967c-.0892967.08927473-.19927472.15795605-.26795604.26793407.03435165.1510989.13050549.51520879.10303297.59762637-.08929671.27472528-.26786814-.15118681-.3434066-.26107692-.24734066-.37775824-.74879121-.12362638-1.08534066-.09615385-.43276923.04120879-.85868132.60448352-.59083516 1.05786813.1305934.21984616.3434945.30226374.59083516.25419781.21978022-.04808792.28846154-.35723077.49459341-.35723077.38461538-.00685715.00685714.37782417-.02747253.51518681-.02747253.13050549.04808791.14424176.18545055.17857143.09613187.02061538.24037363-.04120879.32973626.01373626.05494506.03435165.05494506.2336044.12362638.1718022-.14421978.12362637-.10989011.41208791.04120879.51518685.16483516.1167692.36410989.0068791.5358022.054945.32975824.0824176.17171428-.0274725.46026373-.19925273.1923077-.11676923.22663737.02059341.36408793.02059341.0892967 0 .1510989-.13048352.3021978-.08927473.1236264.03432967.1717143.12371429.3229011.15118685.0618022.0068571.1236264-.02061542.1785714-.0137363.2747912.0274725.4808352.206044.7006154.364.1786593.1305055.2954286.103033.5014725.1649231.1511868.0412088.4327693.260989.419033.4532967 0 .0344395-.1373626.2061319-.157956.2885494.0412087.0274726.3091428-.0343296.3915604-.0412088-.0205934.0274726-.1717802.1373627-.2061319.103033.0274725.0343297.1305934.0961539.158066.1167473.0961538-.309055.2541098-.1098901.4465055-.0343297.157978.0686813.3571428.0686813.528923.109978.1442418.0343297.467033.1304835.577011.2541099.1305055.1442418.0412088.3778242-.054945.5220659-.1237143.1854286-.316022.261077-.3984396.4808572-.0618022.1716923-.0137363.3503516-.0480659.5426593-.0480879.2610769-.0892967.1717143-.2541978.3297583-.1442418.1373626 0 .1098901-.1991868.1991868-.1923957.0892747-.364088.0618022-.5014506.2748132.0068571-.0137363.0068571-.0274726.0137363-.0412088-.0549451.0824176-.0824176.2403736-.1098901.2953187-.0686814.1373626-.1649231.2198681-.2679561.3366153-.0412088.0412088-.419033.5632748-.4396483.5152088-.0274726-.054945-.3227912.0549451-.3434066-.0206154.0137362.0618242 0 .0412088.0686813.0824176-.0686813.4259121-.2473407.4877363-.6663736.4945934.0344175.206044-.1510989.1648352-.2403737.2747253-.0480879.0619121-.0755604.2473407-.1098901.3297582-.0206154.0549451-.1855384.261077-.1855384.3022858s.054945.0961538.1031208.1442417c-.2954285.0549451-.59083512.0961539-.89991205.1236264.05494506-.0686813.06868132-.1373626-.10989011-.1442418.04808791-.1304835.16483517-.2061318.21292308-.3366153.02059341-.0618242.00685714-.0824176.02059341-.1442418.06868132-.206044.03435164-.1304835 0-.2885495-.08927473-.3777362.03435164-.4808571.13050549-.8242637.1030989-.3503516.09624176-.8105934.16492308-1.1952967.0343297-.1854505.0824176-.5632747.0205934-.734989-.0686813-.1923077-.38470329-.3434945-.52892307-.473978-.20613187-.1854506-.30916484-.3847033-.46026374-.6113627-.07553846-.1167472-.16492308-.2335824-.22672527-.3572088-.1305055-.2678681 0-.1098901.0205934-.2678681.02061539-.1511868-.0205934-.2885494.04120879-.4533846.06876924-.1786593.2336044-.2885495.29542858-.473978.04806593-.157978.01373626-.3641099-.15109891-.419055-.0892967-.0274725-.1923956.0412088-.28854945.0206154-.13050549-.0206154-.27472527-.1167692-.37782417-.1923077-.14424176-.109978-.19230769-.28169229-.34342857-.38470328-.12369231-.08241758-.21298901-.03435164-.35035165-.07556044-.13736264-.04120879-.22663736-.21298901-.34349451-.26793406-.1716923-.08241758-.26784615.03432967-.44641758.01373626-.15118681-.02061538-.3847033-.19230769-.52903297-.25413187-.28846153-.13048351-.46703296-.2747912-.58386813-.57013186-.09615384-.25419781-.24725275-.37096704-.41208791-.57701099-.17178022-.21298901-.22672528-.39156044-.49459341-.45338462-.03441758-.00685714.06182418.22665934.07556044.24039561.09615385.17857142.24037363.33661538.35026374.50145055.17178022.24048351.09624176.28854945-.07553846.05494505-.19918682-.26784615-.42591209-.5358022-.59762638-.81738461-.06180219-.10997803-.05494505-.17865935-.15795604-.27481319-.10303297-.09615385-.24048352-.14424176-.34349451-.24039561-.3434945-.3434945-.41217582-.79-.37096703-1.27085714.01373626-.15795604.06876923-.28158242.04806594-.42591209-.02059341-.12362637-.09615385-.22663736-.18542858-.31593406-.02747252-.04806594-.10303296-.16492308-.10989011-.17178022-.08241758-.13736264-.1510989-.2816044-.2816923-.39149451-.07553847-.06876923-.27472528-.21986813-.46024176-.35035165.83808791-1.05786813 1.94402198-1.88907692 3.20802198-2.40428571.00685714.06182418.03432967.12362637.07553846.18553846.10303296.1510989.20604395.14421978.40531868.18542857-.02061539.23351649-.29542857.24039561-.48085714.21292308-.21986814-.02747253-.45338462-.10303297-.65263737.08927472.1030989.06191209.39841759.31602198.35720879.05503297.21301099-.01373626.41905495-.01373626.62509891.00687912.08250549.00685715.36408791.10301099.43964835.0618022.03432967-.02059341.06868132-.17178022.09615384-.22672527-.06182417 0-.12362637-.02747253-.18545055-.02061539.13736264-.17857143.27481319-.04120879.45338462.04120879-.19230769.11685714-.07553846.39843956.10989011.1718022.15797802-.18553846-.04120879-.3229011-.23351648-.43279121.19918681-.24734066.32281318-.26793406.50832967.00687912.02747252-.1718022.17171428-.10303297.31593406-.0892967v-.04120879c-.0618022 0-.13048351-.03432967-.19916483-.02747253.1510989-.24046154.05494505-.28854945.26784615-.37096703.1718022-.0618022.65263736-.00685715.71446154-.16492308-.33663736.06876923-.74879121.08250549-1.05098901.2336044-.1305055.06868131-.28854945.27472527-.41905495.13736263-.13736263-.13736263.09615385-.36408791.21292308-.43276923h-.02747253c.5358022-.11676923 1.0921978-.17171428 1.65556044-.17171428.37087912 0 .72810989.02747252 1.0853407.07556044-.12371432.06180219-.0343517.10989011-.12371432.1716923-.17171429.12371429-.47391209.2336044-.68004396.30916484.26107692 0 .88617578.24046154 1.00292308-.11676923l-.2472528-.04120879c.1579781-.10301099.3296704-.18551649.5083297-.24734066 1.6417363.3229011 3.1049011 1.16098901 4.2177143 2.32874725zm1.8890769 3.99793407c-.0893846.00685714-.158044-.05494506-.2267473-.11685715-.0686593-.05494505-.1442197-.13736263-.1923077-.2129011-.0480659-.08241758-.0205934-.16483516-.0137142-.25413186 0-.07562638-.0343517-.18551649 0-.25419781.0137142-.03435164.0480659-.04120879.0618022-.06868131.0274725-.05494506.0206153-.08929671.0618022-.13736264.0412307-.04808791.0961758-.06182418.1373626-.1030989.0206154-.01373627.0274725-.02747253.0343516-.04808791.1304836.37096703.2404616.75567032.316022 1.14723076l-.0068791.00687913c-.0137363.0205934-.1442198.03432967-.1716923.04120879z" fill="#fff" mask="url(#a)" opacity=".6"/></g></svg>