<svg width="186" height="25" xmlns="http://www.w3.org/2000/svg" xmlns:xlink="http://www.w3.org/1999/xlink">
  <defs>
    <linearGradient x1="100%" y1="50%" x2="0%" y2="50%" id="prefix__b">
      <stop stop-color="#FFF" offset="0%" />
      <stop stop-color="#FFF" offset="49.367%" />
      <stop stop-color="#FFF" offset="100%" />
    </linearGradient>
    <path
      d="M12.248 0C5.495 0 0 5.365 0 11.958c0 6.594 5.495 11.958 12.248 11.958h12.52v-3.7h-3.674c2.105-2.149 3.403-5.057 3.403-8.258 0-3.195-1.275-6.198-3.59-8.456 0 0-.702-.687-1.443-1.207L12.248 9.34 9.05 6.22 6.37 8.836l5.878 5.739 7.17-7.002a8.062 8.062 0 011.288 4.385c0 4.554-3.794 8.258-8.458 8.258S3.79 16.512 3.79 11.958c0-4.553 3.794-8.257 8.458-8.257V0zm109.927 3.034c0 1.301 1.08 2.355 2.413 2.355 1.332 0 2.412-1.054 2.412-2.355S125.92.678 124.588.678c-1.333 0-2.413 1.055-2.413 2.356zM103.4.786v23.13h4.136v-8.854c.09-2.149 1.907-3.865 4.131-3.865s4.032 1.716 4.123 3.865v8.854h3.863v-9.678c0-3.785-3.142-6.853-7.019-6.853a7.076 7.076 0 00-5.098 2.146V.786h-4.136zm-16.558 11.45c0 3.065 3.751 4.817 6.895 5.048 2.365.132 3.311.84 3.311 1.716 0 1.188-1.453 1.98-3.007 1.947-1.657-.03-3.953-.767-5.277-1.844l-2.497 2.438c2.434 2.474 5.07 2.903 7.706 2.903 4.765 0 7.165-2.474 7.165-5.345 0-3.576-3.988-5.016-7.131-5.213-2.129-.133-3.11-.995-3.11-1.782 0-1.023 1.082-1.618 3.042-1.618 1.589 0 2.94.363 4.123 1.453l2.512-2.452c-1.927-1.65-4.1-2.333-6.702-2.333-3.042 0-7.03 1.32-7.03 5.081zM46.59 15.65c0 4.692 3.896 8.496 8.702 8.496a8.788 8.788 0 005.771-2.14v1.91h3.834V7.615h-3.834v1.677a8.788 8.788 0 00-5.77-2.14c-4.807 0-8.703 3.805-8.703 8.498zm3.83 0c0-2.8 2.325-5.07 5.193-5.07 2.868 0 5.193 2.27 5.193 5.07 0 2.8-2.325 5.07-5.193 5.07-2.868 0-5.193-2.27-5.193-5.07zm21.453-6.12V7.616h-4.136v16.3h4.135v-8.854c.091-2.149 1.908-3.865 4.132-3.865 2.223 0 4.032 1.716 4.122 3.865v8.854h3.864v-9.678c0-3.785-3.143-6.853-7.02-6.853a7.077 7.077 0 00-5.097 2.146zm50.647 14.387h4.135V7.55h-4.135v16.368zM40.23 7.616h-.28v8.854c-.091 2.149-1.908 3.865-4.132 3.865-2.223 0-4.031-1.716-4.122-3.865V7.616h-3.864v9.678c0 3.785 3.143 6.853 7.02 6.853a7.077 7.077 0 005.097-2.145v1.914h4.136v-16.3H40.23z"
      id="prefix__a" />
  </defs>
  <g fill="none" fill-rule="evenodd">
    <g fill="#FFF">
      <path
        d="M165.655 12.393h2.514V6.955h-2.514v5.438zm2.306 8.139h-2.098a.209.209 0 01-.208-.209v-5.229h2.514v5.229a.208.208 0 01-.208.209zm2.9-16.278h-7.899V21.49c0 .963.778 1.744 1.738 1.744h4.423c.96 0 1.738-.781 1.738-1.744V4.254zM183.592 2.988h-2.74v3.529h-8.017v2.652h8.017v11.163c0 .487-.408.883-.912.883h-3.322v2.652h3.748c1.782 0 3.226-1.399 3.226-3.124V9.17H186V6.517h-2.408V2.988z" />
      <path
        d="M179.418 18.06l-4.238-7.48-2.345 1.38 4.238 7.478zM140.763 9.406l5.509-4.219a.405.405 0 01.467 0l5.508 4.219h-11.484zm5.743-7.05a2.86 2.86 0 00-1.737.57L134 11.171l1.692 2.117 2.612-2v.805h6.83v2.89h-7.88v2.689h7.88v3.505h-9.151v2.689h21.047v-2.689h-9.15v-3.505h7.879v-2.689h-7.879v-2.89h6.829v-.803l2.613 2 1.69-2.117-10.77-8.249a2.86 2.86 0 00-1.736-.57z" />
    </g>
    <g transform="translate(0 .4)">
      <mask id="prefix__c" fill="#fff">
        <use xlink:href="#prefix__a" />
      </mask>
      <path
        d="M12.248 0C5.495 0 0 5.365 0 11.958c0 6.594 5.495 11.958 12.248 11.958h12.52v-3.7h-3.674c2.105-2.149 3.403-5.057 3.403-8.258 0-3.195-1.275-6.198-3.59-8.456 0 0-.702-.687-1.443-1.207L12.248 9.34 9.05 6.22 6.37 8.836l5.878 5.739 7.17-7.002a8.062 8.062 0 011.288 4.385c0 4.554-3.794 8.258-8.458 8.258S3.79 16.512 3.79 11.958c0-4.553 3.794-8.257 8.458-8.257V0zm109.927 3.034c0 1.301 1.08 2.355 2.413 2.355 1.332 0 2.412-1.054 2.412-2.355S125.92.678 124.588.678c-1.333 0-2.413 1.055-2.413 2.356zM103.4.786v23.13h4.136v-8.854c.09-2.149 1.907-3.865 4.131-3.865s4.032 1.716 4.123 3.865v8.854h3.863v-9.678c0-3.785-3.142-6.853-7.019-6.853a7.076 7.076 0 00-5.098 2.146V.786h-4.136zm-16.558 11.45c0 3.065 3.751 4.817 6.895 5.048 2.365.132 3.311.84 3.311 1.716 0 1.188-1.453 1.98-3.007 1.947-1.657-.03-3.953-.767-5.277-1.844l-2.497 2.438c2.434 2.474 5.07 2.903 7.706 2.903 4.765 0 7.165-2.474 7.165-5.345 0-3.576-3.988-5.016-7.131-5.213-2.129-.133-3.11-.995-3.11-1.782 0-1.023 1.082-1.618 3.042-1.618 1.589 0 2.94.363 4.123 1.453l2.512-2.452c-1.927-1.65-4.1-2.333-6.702-2.333-3.042 0-7.03 1.32-7.03 5.081zM46.59 15.65c0 4.692 3.896 8.496 8.702 8.496a8.788 8.788 0 005.771-2.14v1.91h3.834V7.615h-3.834v1.677a8.788 8.788 0 00-5.77-2.14c-4.807 0-8.703 3.805-8.703 8.498zm3.83 0c0-2.8 2.325-5.07 5.193-5.07 2.868 0 5.193 2.27 5.193 5.07 0 2.8-2.325 5.07-5.193 5.07-2.868 0-5.193-2.27-5.193-5.07zm21.453-6.12V7.616h-4.136v16.3h4.135v-8.854c.091-2.149 1.908-3.865 4.132-3.865 2.223 0 4.032 1.716 4.122 3.865v8.854h3.864v-9.678c0-3.785-3.143-6.853-7.02-6.853a7.077 7.077 0 00-5.097 2.146zm50.647 14.387h4.135V7.55h-4.135v16.368zM40.23 7.616h-.28v8.854c-.091 2.149-1.908 3.865-4.132 3.865-2.223 0-4.031-1.716-4.122-3.865V7.616h-3.864v9.678c0 3.785 3.143 6.853 7.02 6.853a7.077 7.077 0 005.097-2.145v1.914h4.136v-16.3H40.23z"
        fill="url(#prefix__b)" mask="url(#prefix__c)" />
    </g>
  </g>
</svg>