<?xml version="1.0" encoding="utf-8"?>
<!-- Generator: Adobe Illustrator 25.2.1, SVG Export Plug-In . SVG Version: 6.00 Build 0)  -->
<svg version="1.1" id="图层_1" xmlns="http://www.w3.org/2000/svg" xmlns:xlink="http://www.w3.org/1999/xlink" x="0px" y="0px"
	 viewBox="0 0 223 30" style="enable-background:new 0 0 223 30;" xml:space="preserve">
<style type="text/css">
	.st0{fill:#005FFF;}
	.st1{fill:url(#SVGID_1_);}
	.st2{fill:url(#SVGID_2_);}
	.st3{fill:url(#SVGID_3_);}
	.st4{fill:url(#SVGID_4_);}
	.st5{fill:url(#SVGID_5_);}
	.st6{fill:url(#SVGID_6_);}
	.st7{fill:url(#SVGID_7_);}
	.st8{fill:url(#SVGID_8_);}
</style>
<g>
	<g>
		<path class="st0" d="M204.82,4.73h-9.76l0,0v21.23c0,1.19,0.96,2.15,2.15,2.15h5.47c1.19,0,2.15-0.96,2.15-2.15V4.73z
			 M201.24,24.78h-2.59c-0.14,0-0.26-0.12-0.26-0.26v-6.44h3.11v6.44C201.49,24.67,201.38,24.78,201.24,24.78z M201.49,14.76h-3.11
			v-6.7h3.11V14.76z"/>
		<path class="st0" d="M219.91,2.88h-3.33v4.43h-9.74v3.33h9.74v14.01c0,0.61-0.5,1.11-1.11,1.11h-4.04v3.33h4.55
			c2.16,0,3.92-1.75,3.92-3.92V10.64h2.92V7.31h-2.92V2.88z"/>
		<rect x="209.13" y="12.68" transform="matrix(0.866 -0.5 0.5 0.866 19.2942 107.787)" class="st0" width="3.33" height="10.42"/>
		<path class="st0" d="M175.68,2.45c-0.78,0-1.52,0.25-2.1,0.71l-13.05,10.21l2.05,2.62l3.17-2.48v1h8.28v3.58h-9.55v3.33h9.55v4.34
			h-11.09v3.33h25.51v-3.33h-11.09v-4.34h9.55v-3.33h-9.55v-3.58h8.28v-0.99l3.17,2.48l2.05-2.62L177.78,3.16
			C177.2,2.7,176.45,2.45,175.68,2.45z M168.72,11.18l6.68-5.22c0.15-0.12,0.41-0.12,0.57,0l6.68,5.22H168.72z"/>
	</g>
	<linearGradient id="SVGID_1_" gradientUnits="userSpaceOnUse" x1="1.4644" y1="15.158" x2="151.637" y2="15.158">
		<stop  offset="0" style="stop-color:#02BA57"/>
		<stop  offset="0.5376" style="stop-color:#4BA5FF"/>
		<stop  offset="1" style="stop-color:#005FFF"/>
	</linearGradient>
	<path class="st1" d="M135.13,9.06c-2.41,0-4.58,1.01-6.11,2.63V0.96h-4.96v28.39h4.62h0.34V18.49c0.11-2.64,2.29-4.74,4.95-4.74
		c2.66,0,4.83,2.11,4.94,4.74v10.87h4.63c0,0,0-1.61,0-3.64c0-3.48,0-8.21,0-8.24C143.54,12.83,139.77,9.06,135.13,9.06z"/>
	<linearGradient id="SVGID_2_" gradientUnits="userSpaceOnUse" x1="1.4644" y1="19.2076" x2="151.637" y2="19.2076">
		<stop  offset="0" style="stop-color:#02BA57"/>
		<stop  offset="0.5376" style="stop-color:#4BA5FF"/>
		<stop  offset="1" style="stop-color:#005FFF"/>
	</linearGradient>
	<path class="st2" d="M73.34,11.41c-1.84-1.63-4.26-2.63-6.92-2.63c-5.76,0-10.43,4.67-10.43,10.43s4.67,10.43,10.43,10.43
		c2.65,0,5.07-0.99,6.92-2.63v2.34h4.59v-20h-4.59V11.41z M66.8,25.43c-3.44,0-6.22-2.79-6.22-6.22s2.79-6.22,6.22-6.22
		s6.22,2.79,6.22,6.22S70.24,25.43,66.8,25.43z"/>
	<linearGradient id="SVGID_3_" gradientUnits="userSpaceOnUse" x1="1.4644" y1="19.39" x2="151.637" y2="19.39">
		<stop  offset="0" style="stop-color:#02BA57"/>
		<stop  offset="0.5376" style="stop-color:#4BA5FF"/>
		<stop  offset="1" style="stop-color:#005FFF"/>
	</linearGradient>
	<path class="st3" d="M112.81,17.04c-2.55-0.16-3.73-1.22-3.73-2.19c0-1.26,1.3-1.98,3.64-1.98c1.9,0,3.52,0.45,4.94,1.78l3.01-3.01
		c-2.31-2.02-4.91-2.86-8.03-2.86c-3.64,0-8.42,1.62-8.42,6.24c0,3.76,4.49,5.91,8.26,6.2c2.83,0.16,3.97,1.03,3.97,2.11
		c0,1.46-1.74,2.43-3.6,2.39c-1.99-0.04-4.74-0.94-6.32-2.26l-2.99,2.99c2.92,3.04,6.07,3.56,9.23,3.56c5.71,0,8.59-3.04,8.59-6.56
		C121.35,19.05,116.58,17.28,112.81,17.04z"/>
	<linearGradient id="SVGID_4_" gradientUnits="userSpaceOnUse" x1="1.4644" y1="14.6758" x2="151.637" y2="14.6758">
		<stop  offset="0" style="stop-color:#00B955"/>
		<stop  offset="0.5376" style="stop-color:#4BA5FF"/>
		<stop  offset="1" style="stop-color:#005FFF"/>
	</linearGradient>
	<path class="st4" d="M29.52,14.68c0-3.92-1.53-7.61-4.3-10.38c0,0-0.84-0.84-1.73-1.48l-8.65,8.65l-3.83-3.83L7.8,10.84l7.04,7.04
		l8.59-8.59c1,1.6,1.54,3.45,1.54,5.38c0,5.59-4.55,10.13-10.13,10.13S4.71,20.26,4.71,14.68c0-5.59,4.55-10.13,10.13-10.13V0
		C6.75,0,0.17,6.58,0.17,14.68s6.58,14.68,14.68,14.68h15v-4.54h-4.4C27.97,22.17,29.52,18.6,29.52,14.68z"/>
	<linearGradient id="SVGID_5_" gradientUnits="userSpaceOnUse" x1="1.4644" y1="19.3098" x2="151.637" y2="19.3098">
		<stop  offset="0" style="stop-color:#02BA57"/>
		<stop  offset="0.5376" style="stop-color:#4BA5FF"/>
		<stop  offset="1" style="stop-color:#005FFF"/>
	</linearGradient>
	<rect x="146.97" y="9.27" class="st5" width="4.96" height="20.09"/>
	<linearGradient id="SVGID_6_" gradientUnits="userSpaceOnUse" x1="1.4644" y1="3.7235" x2="151.637" y2="3.7235">
		<stop  offset="0" style="stop-color:#02BA57"/>
		<stop  offset="0.5376" style="stop-color:#4BA5FF"/>
		<stop  offset="1" style="stop-color:#005FFF"/>
	</linearGradient>
	<path class="st6" d="M149.45,6.61c1.6,0,2.89-1.29,2.89-2.89c0-1.6-1.29-2.89-2.89-2.89c-1.6,0-2.89,1.29-2.89,2.89
		C146.56,5.32,147.85,6.61,149.45,6.61z"/>
	<linearGradient id="SVGID_7_" gradientUnits="userSpaceOnUse" x1="1.4644" y1="19.491" x2="151.637" y2="19.491">
		<stop  offset="0" style="stop-color:#02BA57"/>
		<stop  offset="0.5376" style="stop-color:#4BA5FF"/>
		<stop  offset="1" style="stop-color:#005FFF"/>
	</linearGradient>
	<path class="st7" d="M48.04,9.35v10.87c-0.11,2.64-2.29,4.74-4.95,4.74c-2.66,0-4.83-2.11-4.94-4.74V9.35h-4.63c0,0,0,1.61,0,3.64
		c0,3.48,0,8.21,0,8.24c0,4.64,3.77,8.41,8.41,8.41c2.41,0,4.58-1.01,6.11-2.63v2.35h4.96v-20h-4.62H48.04z"/>
	<linearGradient id="SVGID_8_" gradientUnits="userSpaceOnUse" x1="1.4644" y1="19.2076" x2="151.637" y2="19.2076">
		<stop  offset="0" style="stop-color:#02BA57"/>
		<stop  offset="0.5376" style="stop-color:#4BA5FF"/>
		<stop  offset="1" style="stop-color:#005FFF"/>
	</linearGradient>
	<path class="st8" d="M92.4,9.06c-2.41,0-4.58,1.01-6.11,2.63V9.35h-4.96v20h4.62h0.34V18.49c0.11-2.64,2.29-4.74,4.95-4.74
		c2.66,0,4.83,2.11,4.94,4.74v10.87h4.63c0,0,0-1.61,0-3.64c0-3.48,0-8.21,0-8.24C100.81,12.83,97.04,9.06,92.4,9.06z"/>
</g>
</svg>
