<svg height="30" viewBox="0 0 30 30" width="30" xmlns="http://www.w3.org/2000/svg"><path d="m15 0c8.2842712 0 15 6.71572875 15 15 0 8.2842712-6.7157288 15-15 15-8.28427125 0-15-6.7157288-15-15 0-8.28427125 6.71572875-15 15-15zm-4.8425135 8.54587392c-.38098637-.39452292-1.01213143-.40358135-1.40941183-.01993212-.40005017.38632395-.41038404 1.01459143-.02926779 1.40924886l4.86619312 5.03980934-5.03912608 4.8675135c-.364175.3516797-.39990689.9165124-.10149871 1.3138006l.08156659.0956112c.38632395.4000502 1.01459143.4103841 1.40924886.0292678l5.03980934-4.8671931 4.8675135 5.0401261c.3516797.364175.9165124.3999069 1.3138006.1014987l.0956112-.0815666.0854005-.0932301c.3139233-.3883681.2956669-.9517196-.0561327-1.3160188l-4.8671931-5.0408093 5.0401261-4.8665135c.364175-.35167973.3999069-.91651242.1014987-1.31380061l-.0815666-.09561122-.0932301-.08540044c-.3883681-.31392328-.9517196-.29566696-1.3160188.05613265l-5.0408093 4.86619312z" fill-rule="evenodd" opacity=".3"/></svg>