<svg xmlns="http://www.w3.org/2000/svg" xmlns:xlink="http://www.w3.org/1999/xlink" fill="none" version="1.1" width="59" height="24" viewBox="0 0 59 24"><defs><linearGradient x1="1" y1="0.5" x2="0" y2="0.5" id="master_svg0_731_26145"><stop offset="0%" stop-color="#6B51D4" stop-opacity="1"/><stop offset="100%" stop-color="#E14576" stop-opacity="1"/></linearGradient></defs><g><g><path d="M8,0L51,0C55.4183,0,59,3.58172,59,8L59,16C59,20.4183,55.4183,24,51,24L8,24C3.58172,24,0,20.4183,0,16L0,8C0,3.58172,3.58172,0,8,0" fill-rule="evenodd" fill="url(#master_svg0_731_26145)" fill-opacity="1"/></g><g><path d="M10.3,19.488Q9.372,19.488,8.58,19.024Q7.788,18.560000000000002,7.324,17.776Q6.859999,16.992,6.859999,16.064L6.859999,15.776L8.428,15.776L8.428,16.064Q8.428,16.832,8.972,17.375999999999998Q9.516,17.92,10.3,17.92L10.86,17.92Q11.644,17.92,12.18,17.375999999999998Q12.716000000000001,16.832,12.716000000000001,16.064L12.716000000000001,14.048Q11.868,14.512,10.86,14.512L10.3,14.512Q9.372,14.512,8.58,14.048Q7.788,13.584,7.324,12.792Q6.859999,12,6.859999,11.072L6.859999,8.943999999999999Q6.859999,8.016,7.324,7.232Q7.788,6.448,8.58,5.984Q9.372,5.52,10.3,5.52L10.86,5.52Q11.804,5.52,12.588000000000001,5.984Q13.372,6.448,13.836,7.232Q14.3,8.016,14.3,8.943999999999999L14.3,16.064Q14.3,16.992,13.836,17.776Q13.372,18.560000000000002,12.588000000000001,19.024Q11.804,19.488,10.86,19.488L10.3,19.488ZM8.428,11.072Q8.428,11.856,8.972,12.392Q9.516,12.928,10.3,12.928L10.86,12.928Q11.644,12.928,12.18,12.392Q12.716000000000001,11.856,12.716000000000001,11.072L12.716000000000001,8.943999999999999Q12.716000000000001,8.176,12.18,7.632Q11.644,7.088,10.86,7.088L10.3,7.088Q9.516,7.088,8.972,7.632Q8.428,8.176,8.428,8.943999999999999L8.428,11.072ZM19.34,19.488Q18.412,19.488,17.619999999999997,19.024Q16.828,18.560000000000002,16.364,17.776Q15.9,16.992,15.9,16.064L15.9,15.776L17.468,15.776L17.468,16.064Q17.468,16.832,18.012,17.375999999999998Q18.555999999999997,17.92,19.34,17.92L19.9,17.92Q20.683999999999997,17.92,21.22,17.375999999999998Q21.756,16.832,21.756,16.064L21.756,14.048Q20.908,14.512,19.9,14.512L19.34,14.512Q18.412,14.512,17.619999999999997,14.048Q16.828,13.584,16.364,12.792Q15.9,12,15.9,11.072L15.9,8.943999999999999Q15.9,8.016,16.364,7.232Q16.828,6.448,17.619999999999997,5.984Q18.412,5.52,19.34,5.52L19.9,5.52Q20.844,5.52,21.628,5.984Q22.412,6.448,22.876,7.232Q23.34,8.016,23.34,8.943999999999999L23.34,16.064Q23.34,16.992,22.876,17.776Q22.412,18.560000000000002,21.628,19.024Q20.844,19.488,19.9,19.488L19.34,19.488ZM17.468,11.072Q17.468,11.856,18.012,12.392Q18.555999999999997,12.928,19.34,12.928L19.9,12.928Q20.683999999999997,12.928,21.22,12.392Q21.756,11.856,21.756,11.072L21.756,8.943999999999999Q21.756,8.176,21.22,7.632Q20.683999999999997,7.088,19.9,7.088L19.34,7.088Q18.555999999999997,7.088,18.012,7.632Q17.468,8.176,17.468,8.943999999999999L17.468,11.072ZM26.78,18.064L26.78,10.208L25.34,10.208L26.556,5.2L28.3,5.2L27.964,6.352L36.7,6.352L36.7,15.488L36.412,16.912L34.412,16.912L34.14,15.488L35.196,15.488L35.196,7.84L27.5,7.84L27.196,8.911999999999999L34.204,8.911999999999999L34.204,13.488L33.916,14.992L28.268,14.992L28.268,18.064L37.34,18.064L37.068,19.488L27.068,19.488L26.78,18.064ZM32.78,13.488L32.78,10.416L28.268,10.416L28.268,13.488L32.78,13.488ZM45.452,15.456L40.028,15.456L39.74,13.952L41.244,13.952L41.244,10.032L45.452,10.032L45.452,7.888L41.932,7.888L41.916,7.824L41.308,9.664L40.044,9.664L41.228,5.2L42.78,5.2L42.38,6.384L51.452,6.384L51.164,7.888L46.956,7.888L46.956,10.032L50.876,10.032L50.604,11.536L46.956,11.536L46.956,13.952L51.74,13.952L51.452,15.456L46.956,15.456L46.956,19.456L45.452,19.456L45.452,15.456ZM45.452,13.952L45.452,11.536L42.668,11.536L42.668,13.952L45.452,13.952Z" fill="#FFFFFF" fill-opacity="1"/></g></g></svg>