<svg xmlns="http://www.w3.org/2000/svg" xmlns:xlink="http://www.w3.org/1999/xlink" fill="none" version="1.1" width="42" height="16" viewBox="0 0 42 16"><defs><linearGradient x1="1" y1="0.5" x2="0" y2="0.5" id="master_svg0_2228_98977"><stop offset="0%" stop-color="#6A58D1" stop-opacity="1"/><stop offset="100%" stop-color="#DF4677" stop-opacity="1"/></linearGradient><clipPath id="master_svg1_2871_001424/2228_016488"><rect x="0" y="0" width="42" height="16" rx="4"/></clipPath></defs><g clip-path="url(#master_svg1_2871_001424/2228_016488)"><rect x="0" y="0" width="42" height="16" rx="4" fill="url(#master_svg0_2228_98977)" fill-opacity="1"/><g><path d="M8.65,11.93Q8.07,11.93,7.575,11.64Q7.08,11.35,6.79,10.86Q6.5,10.37,6.5,9.79L6.5,9.61L7.48,9.61L7.48,9.79Q7.48,10.27,7.82,10.61Q8.16,10.95,8.65,10.95L9,10.95Q9.49,10.95,9.825,10.61Q10.16,10.27,10.16,9.79L10.16,8.530000000000001Q9.629999999999999,8.82,9,8.82L8.65,8.82Q8.07,8.82,7.575,8.530000000000001Q7.08,8.24,6.79,7.745Q6.5,7.25,6.5,6.67L6.5,5.34Q6.5,4.76,6.79,4.27Q7.08,3.7800000000000002,7.575,3.49Q8.07,3.2,8.65,3.2L9,3.2Q9.59,3.2,10.08,3.49Q10.57,3.7800000000000002,10.86,4.27Q11.15,4.76,11.15,5.34L11.15,9.79Q11.15,10.37,10.86,10.86Q10.57,11.35,10.08,11.64Q9.59,11.93,9,11.93L8.65,11.93ZM7.48,6.67Q7.48,7.16,7.82,7.495Q8.16,7.83,8.65,7.83L9,7.83Q9.49,7.83,9.825,7.495Q10.16,7.16,10.16,6.67L10.16,5.34Q10.16,4.859999999999999,9.825,4.52Q9.49,4.18,9,4.18L8.65,4.18Q8.16,4.18,7.82,4.52Q7.48,4.859999999999999,7.48,5.34L7.48,6.67ZM14.3,11.93Q13.719999999999999,11.93,13.225,11.64Q12.73,11.35,12.440000000000001,10.86Q12.15,10.37,12.15,9.79L12.15,9.61L13.129999999999999,9.61L13.129999999999999,9.79Q13.129999999999999,10.27,13.469999999999999,10.61Q13.809999999999999,10.95,14.3,10.95L14.65,10.95Q15.14,10.95,15.475,10.61Q15.81,10.27,15.81,9.79L15.81,8.530000000000001Q15.28,8.82,14.65,8.82L14.3,8.82Q13.719999999999999,8.82,13.225,8.530000000000001Q12.73,8.24,12.440000000000001,7.745Q12.15,7.25,12.15,6.67L12.15,5.34Q12.15,4.76,12.440000000000001,4.27Q12.73,3.7800000000000002,13.225,3.49Q13.719999999999999,3.2,14.3,3.2L14.65,3.2Q15.24,3.2,15.73,3.49Q16.22,3.7800000000000002,16.509999999999998,4.27Q16.8,4.76,16.8,5.34L16.8,9.79Q16.8,10.37,16.509999999999998,10.86Q16.22,11.35,15.73,11.64Q15.24,11.93,14.65,11.93L14.3,11.93ZM13.129999999999999,6.67Q13.129999999999999,7.16,13.469999999999999,7.495Q13.809999999999999,7.83,14.3,7.83L14.65,7.83Q15.14,7.83,15.475,7.495Q15.81,7.16,15.81,6.67L15.81,5.34Q15.81,4.859999999999999,15.475,4.52Q15.14,4.18,14.65,4.18L14.3,4.18Q13.809999999999999,4.18,13.469999999999999,4.52Q13.129999999999999,4.859999999999999,13.129999999999999,5.34L13.129999999999999,6.67ZM18.95,11.04L18.95,6.13L18.05,6.13L18.810000000000002,3L19.9,3L19.689999999999998,3.7199999999999998L25.15,3.7199999999999998L25.15,9.43L24.97,10.32L23.72,10.32L23.55,9.43L24.21,9.43L24.21,4.65L19.4,4.65L19.21,5.32L23.59,5.32L23.59,8.18L23.41,9.120000000000001L19.880000000000003,9.120000000000001L19.880000000000003,11.04L25.55,11.04L25.38,11.93L19.130000000000003,11.93L18.95,11.04ZM22.7,8.18L22.7,6.26L19.880000000000003,6.26L19.880000000000003,8.18L22.7,8.18ZM30.62,9.41L27.23,9.41L27.05,8.469999999999999L27.99,8.469999999999999L27.99,6.02L30.62,6.02L30.62,4.68L28.42,4.68L28.41,4.640000000000001L28.03,5.79L27.24,5.79L27.98,3L28.95,3L28.7,3.74L34.370000000000005,3.74L34.19,4.68L31.56,4.68L31.56,6.02L34.010000000000005,6.02L33.84,6.96L31.56,6.96L31.56,8.469999999999999L34.55,8.469999999999999L34.370000000000005,9.41L31.56,9.41L31.56,11.91L30.62,11.91L30.62,9.41ZM30.62,8.469999999999999L30.62,6.96L28.88,6.96L28.88,8.469999999999999L30.62,8.469999999999999Z" fill="#FFFFFF" fill-opacity="1"/></g></g></svg>