<svg xmlns="http://www.w3.org/2000/svg" xmlns:xlink="http://www.w3.org/1999/xlink" fill="none" version="1.1" width="18" height="8" viewBox="0 0 18 8"><g transform="matrix(1,0,0,-1,0,16)"><g transform="matrix(1,0,0,-1,0,32)"><path d="M11.575026014518738,16.947571L16.18202601451874,22L17.093826014518736,23L0.9118260145187378,23L1.8236510145187377,22L6.430586014518738,16.947571C7.851196014518738,15.684143,10.154456014518738,15.684143,11.575026014518738,16.947571ZM10.873966014518738,17.66288L14.828726014518738,22L3.176956014518738,22L7.131646014518738,17.66289Q7.902576014518738,17,9.002816014518737,17Q10.103066014518738,17,10.873966014518738,17.66288Z" fill-rule="evenodd" fill="#0D0D0D" fill-opacity="0.11999999731779099"/></g><g transform="matrix(1,0,0,-1,0,30)"><path d="M6.764275336303711,15.999615C7.956795336303711,14.666794,10.043195336303711,14.666796,11.23572533630371,15.999616C11.23572533630371,15.999616,16.60523533630371,22.00087,16.60523533630371,22.00087C16.60523533630371,22.00087,1.394735336303711,22.00087,1.394735336303711,22.00087C1.394735336303711,22.00087,2.289471336303711,21.00087,2.289471336303711,21.00087C2.289471336303711,21.00087,6.764275336303711,15.999615,6.764275336303711,15.999615C6.764275336303711,15.999615,6.764275336303711,15.999615,6.764275336303711,15.999615Z" fill="#FFFFFF" fill-opacity="1"/></g></g></svg>