<svg height="242" viewBox="0 0 242 242" width="242" xmlns="http://www.w3.org/2000/svg" xmlns:xlink="http://www.w3.org/1999/xlink"><defs><path id="a" d="m121 1.00251622c49.705627 0 90 40.29437248 90 89.99999998 0 49.7056278-40.294373 89.9999998-90 89.9999998-49.7056275 0-90-40.294372-90-89.9999998 0-49.7056275 40.2943725-89.99999998 90-89.99999998zm-2.631579 52.99999998c-25.196848 1.2663061-38.319655 14.0135009-39.368421 38.2415843v29.7584155c0 4.418278 3.581722 8 8 8h23.368421c4.418278 0 8-3.581722 8-8v-21.758416c0-4.4182775-3.581722-7.9999995-8-7.9999995h-3.412816c-5.565034 0-8.6427239-24.5009577 11.412816-23.8183311zm45.631579 0c-25.196848 1.2663061-38.319655 14.0135009-39.368421 38.2415843v29.7584155c0 4.418278 3.581722 8 8 8h23.368421c4.418278 0 8-3.581722 8-8v-21.758416c0-4.4182775-3.581722-7.9999995-8-7.9999995h-3.412816c-5.565034 0-8.642724-24.5009577 11.412816-23.8183311z"/><filter id="b" height="170%" width="170%" x="-35%" y="-18.3%"><feOffset dx="0" dy="30" in="SourceAlpha" result="shadowOffsetOuter1"/><feGaussianBlur in="shadowOffsetOuter1" result="shadowBlurOuter1" stdDeviation="16"/><feColorMatrix in="shadowBlurOuter1" type="matrix" values="0 0 0 0 0.398840937   0 0 0 0 0.486545778   0 0 0 0 0.656108469  0 0 0 0.236587631 0"/></filter></defs><g fill="none" fill-rule="evenodd" transform="translate(0 -.002516)"><use fill="#000" filter="url(#b)" xlink:href="#a"/><use fill="#fff" fill-rule="evenodd" xlink:href="#a"/></g></svg>